<?xml version="1.0" encoding="UTF-8"?>
<svg id="Layer_1" data-name="Layer 1" xmlns="http://www.w3.org/2000/svg" viewBox="0 0 1536 1024">
  <defs>
    <style>
      .cls-1 {
        fill: #dff2f1;
      }

      .cls-2 {
        fill: #f8d5a8;
      }

      .cls-3 {
        fill: #dab593;
      }

      .cls-4 {
        fill: #e5c09e;
      }

      .cls-5 {
        fill: #3d7c8a;
      }

      .cls-6 {
        fill: #f4d0a6;
      }

      .cls-7 {
        fill: #32636d;
      }

      .cls-8 {
        fill: #fbeac3;
      }

      .cls-9 {
        fill: #363e47;
      }

      .cls-10 {
        fill: #515c5d;
      }

      .cls-11 {
        fill: #f8faf7;
      }

      .cls-12 {
        fill: #364951;
      }

      .cls-13 {
        fill: #fbf1d7;
      }

      .cls-14 {
        fill: #fefefd;
      }

      .cls-15 {
        fill: #f9ddaf;
      }

      .cls-16 {
        fill: #61a9a8;
      }
    </style>
  </defs>
  <g id="z-50">
    <g>
      <path class="cls-4" d="M636.1,680.44c.65-.53,1.31-1.07,1.96-1.6,2.12,.47,3.5-1.03,5.12-1.91,.29,0,.58-.01,.86-.04,.33,.3,.66,.61,.99,.91,16.15-5.9,27.4-15.45,25.58-35.01-.88,5.66,2.94,7.51,6.47,9.79,3.12,2.02,3.86,.48,3.97-2.21,.13-3.15,.02-6.31,.02-9.46,.34,0,.68,0,1.03,0h0c-.02,1.46-.05,2.92,1.99,3.01h0c-.54,3.61,2.02,6.23,2.99,9.36,.35,1.13,1.08,1.6,2.23,1.51,1.25-.1,1.45-1.02,1.8-2.01,1.27-3.55,.94-7.21,.94-10.86,.23-1.31-.44-2.75,.71-4.38,.51,1.69,.92,3.03,1.32,4.38,1.84,3.77,.62,7.79,.99,11.68,.12,1.23-.38,2.88,1.57,3.06,1.37,.13,2.13-.88,2.34-2.09,.67-4,3.62-7.38,3.1-11.71-.16-1.37,.04-2.7,1.85-2.9,.04,1.65,.07,3.3,.11,4.96-2.28,4.99-.19,9.98,.01,14.98,0,2.99,.05,5.99-.03,8.98-.06,2.02,.63,3.14,2.5,1.7,16.95-12.3,20.49-17.05,24.51-37.62,1.47,1.21,.82,2.61,.49,4.08-.91,4.01-1.79,8.03-2.42,12.09-.21,1.34-.82,3.34,.68,4.11,1.68,.86,2.36-1.29,3.5-2.08,2.92-2.04,3.45-6.64,7.74-7.21-3.71,12.54-14.97,20.13-20.71,31.71-3.36,6.85-6.58,7.53-14.15,5.7-3.31-.8-6.2-.28-9.06,1.26-.41,.11-.83,.22-1.24,.33-.3,.07-.61,.14-.91,.22-4.35-1.48-8.68-2.57-12.75,.75-2.25-.57-4.07,.41-5.83,1.61-6.4-1.41-12.85-.45-19.28-.44-2.93-.07-5.85-.19-8.78-.29,.66-1.17,1.83-.77,2.83-.93,8.03,.34,15.91-.6,23.67-2.64-7.79-.35-15.55-.35-23.31-.34-1.49,0-3.1-.18-3.39,1.93-2.38,.02-4.75,.03-7.13,.05-1.52-.68-3.04-1.35-4.55-2.03-.06-.06-.32-.33-.34-.4Z"/>
      <path class="cls-9" d="M869.28,714.74c-5.6,6.81-11.2,13.61-16.8,20.42-.19-.08-.37-.18-.53-.31-1.59-1.84-3.73-1.1-5.62-1.06-18.25,.6-36.59,.22-54.8,1.61-1.82,0-3.65,.02-5.47,.02-2.85-1.21-5.85-.59-8.74-.43-2.9,.16-2.86-1.14-2.29-3.16,5.37-6.42,12.22-8.17,20.5-8.39,5.36-.14,11.32,.67,16.47-2.32,8.3-.76,16.61-1.52,24.91-2.28,.99-.02,1.98-.03,2.97-.05,4.16,.08,8.35,.41,12.38-1.07,5.57-1.59,11.21-2.82,17.03-2.98Z"/>
      <path class="cls-8" d="M775,497.07c15.89,37.5,35.06,73.4,58.18,106.98,16.86,24.8,33.73,49.59,52.69,72.85-8.07-2.16-13.16-8.4-18.89-13.78-4.02-3.77-5.55-9.81-11.1-12.18-4.65-7-9.31-14-13.96-21-6.92-12.89-14.38-25.46-22.02-37.94-3.25-5.18-6.04-10.74-9.9-15.42-3.23-3.93-4.2-9.96-10.09-11.56l.02,.03c-.03-1.14,.24-2.4-1.15-3.02-4.12-7.54-6.28-15.88-9.63-23.73-2.81-6.6-5-13.49-9.54-19.22-1.53-5.44-3.05-10.88-4.58-16.32,.62-1.9-1.74-3.77-.05-5.68Z"/>
      <path class="cls-9" d="M852.48,735.16c-2.38,3.17-5.39,5.86-7.16,9.49-.92,1.89-2.54,2.29-4.54,2.26-9.61-.14-19.23-.17-28.85-.24-1.99-1.26-3.98-1.26-5.97,0-3.34,0-6.68-.01-10.02-.02-8.63-1.4-17.27-1.25-25.92-.2-10.99,.01-21.99,.03-32.98,.04,.51-6.29-4.3-3.21-3.99-8.36,19.61-.45,39.21-.89,58.82-1.34,20.07,.41,40.1-.08,60.09-1.95,.17,.12,.34,.22,.53,.31Z"/>
      <path class="cls-6" d="M841.93,629.94c4.65,7,9.31,14,13.96,21,6.4,11.61,14.15,22.39,23.06,32.06,4.51,4.89,11.28,8.23,18.92,5.88,1.04,.64,2.08,1.29,3.12,1.93-.42,.4-.83,.81-1.25,1.21-8.2-2.31-16.57-1.08-24.88-1.25,.16-1.84-.58-2.98-2.2-4.04-8.46-5.52-14.79-13.17-20.49-21.34-11.38-16.15-21.19-33.38-29.22-51.44,1.11,.05,1.66,.81,2.34,1.59,3.94,4.47,8,8.84,11.98,13.27,1.32,1.47,2.67,2.55,4.66,1.13Z"/>
      <path class="cls-5" d="M660.54,697.04c.62-.24,1.24-.48,1.86-.73,1.35,2.71-1.76,3.55-2.3,5.46-1.61,.73-2.24,2-2.08,3.72-5.74,2.39-4.6,9.61-9.24,12.91,3.17-.42,7.45,3.39,8.76-2.58,.36-1.67-.59-4.26,2.65-3.74,2.51,.4,4.35,1.53,3.97,4.6-.29,2.31,.38,4.19,2.88,4.94,.21,.79,.67,2.24,.59,2.27-3.26,1.26-1.47,3.72-1.43,5.74-.9,.41-1.15,1.15-1.07,2.07-2.35-4.05-6.15-4.38-10.22-3.94-1.12,.12-1.78-.93-2.55-1.06-5.64-1-9.3-5.53-14.23-7.76,0,0-.13-.04-.13-.04,1.34-1.87,.89-4.02,.94-6.09,1.55-2.53-.2-7.7,5.66-7.04,.27,.03,1.24-4.05,1.47-6.25,.24-2.32,.92-2.77,3.12-1.88,2.25,.92,4.81,2.37,6.76-.68,1.49,2.65,3.02,2.73,4.6,.09Zm-9.99,6.5c-1.38,.43-1.66,1.64-1.98,2.68-.51,1.65,1,1.93,2,2.23,1.4,.41,2.25-.55,2.38-1.81,.18-1.71-2.49-1.33-2.4-3.1Z"/>
      <path class="cls-13" d="M712.05,522.06c.67-1.66,1.34-3.32,2.01-4.98,0,0,0,0,0,0,1.29-.04,1.96-.71,1.99-2.01,.01-.32,.02-.65,.02-.97,3.72-2.04,6-7.94,5.07-13.15,5.1-.55,10.17,1.6,15.27,.88,.02-.64,.04-1.28,.06-1.92h-13.49c.28-2.04,2.08-1.56,3.33-2.05,1.79-.7,3.71-1.36,3.75-3.82,2.27,.18,5.08-.43,6.69,.69,3.97,2.75,6.64-.05,9.74-1.3,3.38-.32,5.86,.54,5.96,4.97,.05-5.03,2.1-6.15,6.41-4.58,2.68,.98,5.1,.55,5.62-3.27,.19-1.44-.02-3.41,1.67-4.45,.89,4.33,1.78,8.66,2.66,12.99-1.59,.68-3.18,1.35-4.77,2.03-.29-1.75,.65-4.45-2.13-4.58-2.77-.13-3.08,2.22-2.88,4.48-4.97,.04-9.94,.08-14.91,.13-5.83,1.09-10.65,3.8-14.85,8.08-5.04,5.14-10.17,10.32-17.21,12.85Z"/>
      <path class="cls-8" d="M643.18,676.94c-1.62,.88-3,2.37-5.12,1.91-.03-.31-.05-.63-.07-.94,5.81-8.44,7.91-18.23,10.07-27.99,.02-1,.04-1.99,.07-2.99,.79-.45,.98-1.17,.9-2.01,.02-1,.05-1.99,.07-2.99,2.1-5.2,.56-10.63,1-15.93,2,.33,4,.65,6,.98,.05,5.63,.37,11.19,3.99,15.92-.29,.39-.78,.76-.83,1.17-1.34,11.46-6.04,21.14-14.89,28.72-1.14,.98-1.38,2.59-1.19,4.14Z"/>
      <path class="cls-1" d="M638.11,718.94c4.93,2.22,8.58,6.75,14.23,7.76,.77,.14,1.43,1.18,2.55,1.06,4.07-.44,7.87-.11,10.22,3.94,3.13,2.11,6.61,1.56,10.05,1.36,.65,1.55,1.31,3.11,1.96,4.66-2.13,.82-4.57-1.27-6.84,.51,6.48,2.14,12.66,4.18,18.85,6.22-1.3,2.2-3.39,1.17-5.2,1.27-6.86-4.24-14.63-4.42-22.31-5.1-5.18-.46-10.34-1.08-15.51-1.62,0-.62-.01-1.25-.02-1.87,2.59,.05-1.37-12-4.02-12.67,.12-2.88-4.79-2.15-3.96-5.53Z"/>
      <path class="cls-6" d="M661.01,579.18c-2.82,1.61-5.99,.39-8.91,1.11-1.13-.85-.94-2.02-.81-3.19,2.22,.07,4.24-.54,6.02-1.88,6.11-4.59,12.96-7.87,19.78-11.2,2.11-.09,4.3-.53,6.28-.44,5.47,.25,11.52-.36,14.97,5.57,.38,2.26,.77,4.52,1.15,6.78-1.29-2.45-3.29-2.58-5.94-2.79-8.05-.63-16.1-1.01-23.9,1.05-3.05,.8-7.57,.3-8.65,5Z"/>
      <path class="cls-12" d="M733.04,738.14c-.31,5.14,4.51,2.07,3.99,8.36-.66,.02-1.31,.03-1.97,.05-2.34-2.74-4.7-2.7-7.07-.03-9.65,.21-19.3,.55-28.91-.73,1.28-4.48-4.66-2.85-5.02-5.94,2.64-.45,5.5,.92,7.98-.94,2.34-.04,4.67-.07,7.01-.11,3.7,1.47,7.37,2.09,10.97-.29,4.32-.74,8.67-.55,13.02-.37Z"/>
      <path class="cls-8" d="M677.09,564.02c-6.82,3.33-13.67,6.61-19.78,11.2-1.79,1.34-3.8,1.95-6.02,1.88,.5-3.62,3.88-5.68,4.86-9.03,3.87-4.24,8.12-8.21,9.9-13.93,5.38,.3,10.75,.76,16.03,1.9-.06,2.04-1.41,3.16-3.02,3.98-1.71,.88-2.06,2.3-1.97,4Z"/>
      <path class="cls-4" d="M682.08,556.03c-5.28-1.13-10.65-1.6-16.03-1.9-2.3-.06-4.6-.13-6.9-.19-.03-.31-.1-.61-.2-.91,2.13-1.91,4.78-.56,7.12-1.13,1.66,.02,3.32,.03,4.98,.04,4.19,.41,8.28-.15,12.04-1.98,4.41-2.14,8.66-4.62,12.97-6.96,3.85,1.49,3.45-3.33,5.87-3.96-.34,4.32,1.16,8.75-.86,12.96-4.67-.28-3.19,3.85-4.37,6.08-4.98,.05-9.61-2.38-14.63-2.07Z"/>
      <path class="cls-15" d="M897.87,688.88c-7.64,2.35-14.42-.99-18.92-5.88-8.91-9.67-16.66-20.45-23.06-32.06,5.56,2.37,7.09,8.41,11.1,12.18,5.72,5.38,10.82,11.62,18.89,13.78,3.53,4.46,7.81,8.17,11.99,11.98Z"/>
      <path class="cls-9" d="M879.87,705.81c-4.88,.26-6.15,4.85-9.02,7.52-8.29,.48-16.57,1.21-24.88,.35-1.07-1.5,5.74,.5,1.19-2.73-1.14-.81-.66-1.87,1.09-2.15,3.17-.52,6.32-1.14,9.87-1.02-1.3-1.53-3.28-.25-4.16-1.77,8.61-1.23,17.22-2.46,25.82-3.7,.41,1.16,1.01,2.31,.1,3.51Z"/>
      <path class="cls-10" d="M879.87,705.81c.92-1.2,.31-2.35-.1-3.51,3.18,.69,5.55-.3,6.92-3.34,2.66-.27,6.99,3.57,7.13-2.9,2.55-.5,4.97-1.18,5.91-4.03,.42-.4,.83-.81,1.25-1.21,5.32,.47,9.92-2.22,14.88-3.35,1.29-.29,2.57-.61,3.84-.95,.84-.23,1.75-.38,2.16,.54,.58,1.29-.54,1.72-1.42,2.06-3.24,1.24-6.51,2.4-9.75,3.62-2.66,1-4.84,2.23-4.95,5.7-.05,1.58-.57,4.48-3.55,1.71-.92-.86-2.49,.2-3.76,.56-6.17,1.76-12.37,3.41-18.57,5.11Z"/>
      <path class="cls-13" d="M767.97,465.34c4.56,10.71,11.3,20.2,17.02,30.26,3.17,5.57,6.46,11.06,9.7,16.58-.32,.29-.64,.57-.96,.86-7.09-8.03-12.05-17.55-17.81-26.53-1.44-2.3-2.96-5.43-4.49,0-.08,.29-.85,.39-1.3,.58-1.23-6.15-2.51-12.29-3.67-18.45-.24-1.3-1.8-3.51,1.51-3.3Z"/>
      <path class="cls-10" d="M646.11,739.01c5.17,.55,10.33,1.17,15.51,1.62,7.68,.68,15.45,.86,22.31,5.1-9.91,.8-19.83,.54-29.75,.08-3.86-.18-7.02-1.75-9.38-4.82-1.37-1.77-.61-2.3,1.31-1.99Z"/>
      <path class="cls-1" d="M845.97,713.68c8.31,.86,16.59,.13,24.88-.35-.52,.47-1.05,.95-1.57,1.42-5.82,.16-11.46,1.38-17.03,2.98-4.06-2.21-8.15-.23-12.23-.09-2.26-1.41-4.75-.62-7.14-.73-1.47-.07-3.03,.24-3.02-1.99,.14-1.22,.29-2.43,.43-3.65,5.22,.81,10.45,1.61,15.67,2.42Z"/>
      <path class="cls-10" d="M767.97,465.34c-3.32-.21-1.76,1.99-1.51,3.3,1.16,6.16,2.43,12.3,3.67,18.45,1.18,5.33,2.32,10.66,3.47,16-.51,.57-1.02,1.14-1.52,1.71-2.92-.86-1.8-4.03-3.26-5.72-.89-4.33-1.78-8.66-2.66-12.99-.97-7.68-1.94-15.35-2.9-23.03,.55-.12,1.1-.23,1.65-.35,.87,1.05,3.46,.1,3.07,2.63Z"/>
      <path class="cls-11" d="M666.06,551.91c-2.34,.57-4.99-.79-7.12,1.13-1.11-.22-2.05,1.2-3.52,.17,6.03-6.79,13.12-12.18,20.56-17.16,.39,.3,.78,.61,1.16,.91,.25,3.32-2.66,4.34-4.63,5.69-3.42,2.34-5.79,5.13-6.46,9.26Z"/>
      <path class="cls-10" d="M694.06,739.85c.36,3.09,6.3,1.46,5.02,5.94-3.46,.61-6.62-1.01-9.96-1.34-6.19-2.04-12.37-4.08-18.85-6.22,2.27-1.79,4.71,.31,6.84-.51,1.25,.07,2.5,.15,3.75,.22,.87,1.89,2.37,2.08,4.02,1.28,1.74-.84,3.47-.5,5.23-.28,1.07,1.37,2.59,.76,3.94,.91Z"/>
      <path class="cls-5" d="M699.91,529.31c-.05,.26,.03,.47,.22,.64-.04,.35-.08,.69-.12,1.04-.69,.08-1.38,.16-2.08,.23-3.31,0-6.61,.01-9.92,.02-.86-.21-1.49-1.23-2.56-.72v-.09c0-2.95,0-5.89,0-9.47,4.35,1.4,7.68,4.33,11.04,6.98,1.16,.91,2.08,1.37,3.41,1.37Z"/>
      <path class="cls-13" d="M688.02,531.24c3.31,0,6.61-.01,9.92-.02,.31,2.04,3.91,3.45,1.71,5.68-1.06,1.07-3.77,1.76-5.45,.8-4.79-2.74-10.17-1.55-15.17-2.75,.78-3.44,4.78-2.31,6.43-4.53,0,0,0,.09,0,.1-.27,.96-.42,1.97,.8,2.29,1.21,.32,1.65-.52,1.76-1.58Z"/>
      <path class="cls-6" d="M679.04,534.96c4.99,1.2,10.37,0,15.17,2.75,1.67,.96,4.39,.27,5.45-.8,2.2-2.23-1.4-3.64-1.71-5.68,.69-.08,1.38-.16,2.08-.23,3.35,2.05,1.59,5.31,1.91,8.07-2.42,.63-2.02,5.45-5.87,3.96-1.27-3.18-4.05-3.73-6.99-3.98-3.85-1.39-7.82-2.1-11.92-2.08-.39-.3-.77-.61-1.16-.91,.73-1.17,1.94-1,3.06-1.1Z"/>
      <path class="cls-7" d="M732.16,492.63c-2.29-2.62-.73-5.63-1.21-9.58,5.53,3.55,11.46,4.8,14.92,10.07-4.61,.86-9.14-.18-13.71-.49Z"/>
      <path class="cls-11" d="M648.06,649.92c-2.16,9.76-4.26,19.54-10.07,27.99-2.25-.36-1.64-1.69-.87-2.87,4.3-6.67,5.09-14.62,7.89-21.84,.66-1.69,1-3.13,3.05-3.27Z"/>
      <path class="cls-11" d="M659.15,553.95c2.3,.06,4.6,.12,6.9,.19-1.79,5.72-6.04,9.69-9.9,13.93-1.07-5.14,2.49-9.31,3-14.12Z"/>
      <path class="cls-11" d="M721.14,500.95c.93,5.21-1.34,11.11-5.07,13.15-.29-3.46,.41-6.94-.57-10.41-.48-1.72,.42-3.25,2.47-3.62,.75,1.1,1.49,.97,2.23,0,.24,0,.47,0,.71,0,.1,.29,.18,.59,.23,.9Z"/>
      <path class="cls-3" d="M636.44,680.84c1.52,.68,3.04,1.35,4.55,2.03,1.25,1.75,3.38,2.08,5.05,3.14,1.12,1.41,1.17,3.06,1.07,4.74-4.17-2.65-8.88-4.7-10.67-9.91Z"/>
      <path class="cls-11" d="M647.11,690.76c.1-1.68,.05-3.33-1.07-4.74,.76-.4,1.53-.8,2.29-1.21,2.27,.08,4.53,.16,6.8,.23-.1,.31-.16,.86-.31,.89-4.82,.74-4.41,4.53-4.67,7.93l-.05,.05c-1.97-.13-2.93-1.21-2.99-3.15Z"/>
      <path class="cls-12" d="M732.16,492.63c4.56,.31,9.1,1.36,13.71,.49,.2,.11,.41,.21,.63,.3-3.11,1.26-5.77,4.05-9.74,1.3-1.62-1.12-4.43-.51-6.69-.69,.11-1.35,1.39-.95,2.1-1.41Z"/>
      <path class="cls-13" d="M773.6,503.09c-.79-3.67-1.59-7.34-2.38-11.01,3.48,0,3.6,2.52,3.78,5-1.69,1.91,.67,3.78,.05,5.68-.52,.1-1.03,.19-1.55,.29,0,0,.1,.04,.1,.04Z"/>
      <path class="cls-10" d="M770.02,746.46c8.65-1.06,17.29-1.2,25.92,.2-8.64,.32-17.28,.28-25.92-.2Z"/>
      <path class="cls-3" d="M764.9,462.71c-.55,.12-1.1,.24-1.65,.35,0-3.91,0-7.82,0-12.73,1.41,4.66,2.39,8.39,1.65,12.37Z"/>
      <path class="cls-3" d="M721.14,500.95c-.05-.31-.13-.6-.23-.9,.69-.05,1.38-.1,2.08-.14,4.5,0,8.99,0,13.49,0-.02,.64-.04,1.28-.06,1.92-5.1,.72-10.17-1.43-15.27-.88Z"/>
      <path class="cls-1" d="M638.93,712.81c-.05,2.07,.4,4.22-.94,6.09-2.01-.16-2.94-1.33-2.84-3.25,.13-2.37,1.8-2.86,3.78-2.84Z"/>
      <path class="cls-10" d="M728,746.52c2.37-2.67,4.73-2.71,7.07,.03-2.36-.01-4.71-.02-7.07-.03Z"/>
      <path class="cls-13" d="M799.87,519.68c-2.41-.13-3.22-1.17-3.62-3.11,2.1-.14,2.91,.97,3.62,3.11Z"/>
      <path class="cls-10" d="M805.96,746.67c1.99-1.26,3.98-1.27,5.97,0-1.99,0-3.98,0-5.97,0Z"/>
      <path class="cls-11" d="M660.54,697.04c-1.59,2.64-3.12,2.57-4.6-.09,1.53,.03,3.07,.06,4.6,.09Z"/>
      <path class="cls-13" d="M804.35,528.32c.12-.27,.24-.55,.36-.82,.94,.31,.94,.32,.46,1.18-.27-.12-.55-.24-.82-.36Z"/>
      <path class="cls-13" d="M800.35,522.32c.12-.27,.24-.55,.36-.82,.94,.31,.94,.32,.46,1.18-.27-.12-.55-.24-.82-.36Z"/>
      <path class="cls-11" d="M649.03,644.92c.07,.84-.11,1.56-.9,2.01-1.51-1.48-.38-1.78,.9-2.01Z"/>
      <path class="cls-11" d="M716.05,515.07c-.03,1.3-.69,1.96-1.99,2.01,.02-1.3,.68-1.97,1.99-2.01Z"/>
      <path class="cls-13" d="M802.69,524.48c.94,.3,.95,.31,.47,1.18-.94-.3-.95-.31-.47-1.18Z"/>
      <path class="cls-13" d="M720.2,500.06c-.74,.98-1.48,1.11-2.23,0,.74-1.04,1.48-.99,2.23,0Z"/>
      <path class="cls-11" d="M652.87,694.06c-.13,.04-.33,.13-.36,.09-.09-.11-.1-.28-.14-.42,.13-.04,.33-.13,.37-.09,.09,.11,.1,.28,.14,.42Z"/>
      <polygon class="cls-3" points="636.1 680.44 636.16 680.54 635.8 680.51 636.1 680.44"/>
      <path class="cls-11" d="M650.15,693.86c.13,.09,.27,.17,.4,.26-.15-.07-.3-.14-.45-.21,0,0,.05-.05,.05-.05Z"/>
      <path class="cls-6" d="M739.04,565.76c-7.93,.08-15.87,.15-23.8,.24-2.8,.03-5.59-.09-8.36,.72-1.35,.39-3.21,.88-4.21-.39-1.39-1.78,.81-2.88,1.41-4.29,.76-.29,1.71-.38,2.24-.9,13.61-12.7,34.3-20.93,52.73-15.02-2.84,1.99-5.82,3.81-8.5,6-4.43,3.62-9.24,6.36-14.96,7.17-4.7,.67-9.42,1.18-14.14,1.76-1.3,.16-3,.14-2.77,1.95,.19,1.56,1.86,.99,2.9,1.01,4.46,.07,8.93,0,13.39,.06,1.53,.02,3.47-.64,4.08,1.71Zm-26.75-1.75c.53-.27,1.16-.4,1.26-.69,.24-.75-.34-1.16-1.01-1.1-.35,.03-.86,.42-.93,.74-.06,.26,.41,.65,.69,1.05Z"/>
      <path class="cls-8" d="M704.07,659.91c-.2-4.99-2.29-9.98-.01-14.98,1.96-1.91,.56-4.65,1.74-6.85,.72-1.34,.37-2.92-1.72-3.14-.05-.35-.1-.69-.14-1.04,.04-.98,.09-1.97,.13-2.95,2.06-.07,1.98-1.57,2-3,1-.33,1.99-.67,2.99-1,1.29,.41,2.76,2.02,3.78-.12,.61-1.27,.19-2.7-1.19-3.43-1.69-.9-2.42,.12-2.81,1.62-.3-.38-.6-.76-.9-1.15,.03-.97,.07-1.95,.1-2.92,3.9-.53,3.4-3.89,3.96-6.41,1.45-6.49,2.71-13.03,4.05-19.54,2.69,.33,5.55-.85,8.07,.91-1.09,10.96-4.13,21.5-7.07,32.05-3.26,11.04-6.17,22.45-12.99,31.95Z"/>
      <path class="cls-8" d="M759.04,546.11c-18.42-5.9-39.12,2.32-52.73,15.02-.53,.52-1.48,.61-2.24,.9,.77-4.62,3.7-8.15,6.01-11.99,4.82-.67,8.71-3.22,11.72-6.78,1.82-2.16,3.72-3.44,6.35-4.36,2.35-.82,5.95-.76,5.87-4.8,6.65,1.04,13.35,1.63,20.01,2.7,5.21,.84,7.89,2.7,7.07,8.18-.02,.35-.04,.71-.06,1.06-.66,.02-1.33,.03-1.99,.05Z"/>
      <path class="cls-4" d="M702.82,600.15c.09,5.48,.15,10.97,.27,16.45,.05,2.1,.03,3.46-2.95,2.6-16.04-4.62-32.56-5.7-49.13-6.25-2.73-.09-5.08-.19-2.65-3.78,.92-.04,1.84-.09,2.76-.13,2.49,1.85,5.32,.54,7.98,.89,5.45-.22,10.87,.23,16.36-.49,9.35-1.22,16.67-7.51,25.64-9.52,.58,.08,1.16,.16,1.73,.23Z"/>
      <path class="cls-4" d="M759.04,546.11c.66-.02,1.33-.03,1.99-.05,.37-.02,.74-.04,1.1-.05,1.01,6.97,2.09,13.93,1.82,21.01-.69,.03-1.39,.06-2.08,.09-3.27-.16-6.55-.32-9.82-.47-.38-1.22-.88-2.01-2.04-.6-3.66-.08-7.32-.17-10.98-.26-.61-2.35-2.54-1.68-4.08-1.71-4.46-.07-8.93,.01-13.39-.06-1.04-.02-2.71,.55-2.9-1.01-.23-1.81,1.48-1.79,2.77-1.95,4.71-.58,9.44-1.09,14.14-1.76,5.72-.81,10.52-3.55,14.96-7.17,2.68-2.19,5.66-4.01,8.5-6Z"/>
      <path class="cls-8" d="M651.12,609.04c-.92,.04-1.84,.08-2.76,.13-.44-3.36,1.49-6.15,3.23-8.38,3.26-4.19,4.81-8.78,5.58-13.82,15.31,1.29,30.32,4.09,44.9,9.03,.74,1.3,1.23,2.64,.75,4.16-.58-.08-1.16-.15-1.74-.23-.6-1.36-1.84-1.68-3.11-2.15-5.56-2.06-11.17-2.35-16.88-.78-3.01-7.56-4.16-7.96-10.72-3.11-6.57,4.86-12.21,10.9-19.25,15.16Z"/>
      <path class="cls-4" d="M661.01,579.18c1.08-4.69,5.6-4.19,8.65-5,7.8-2.05,15.85-1.68,23.9-1.05,2.65,.21,4.65,.34,5.94,2.79,.4,1.16,.81,2.31,1.22,3.47,.22,1.51,1.31,3.78-1.83,2.97-12.46-3.21-25.23-2.43-37.88-3.19Z"/>
      <path class="cls-8" d="M712.05,522.06c7.04-2.53,12.17-7.71,17.21-12.85,4.2-4.28,9.03-6.99,14.85-8.08,.32,2.49,2.29,1.84,3.78,1.9,3.74,.17,7.48,.23,11.22,.33,0,.53,0,1.05,.01,1.58-.37,.06-.74,.12-1.11,.18-8.98,.93-17.36,3.63-24.75,8.88-4.19,2.97-8.68,5.33-13.16,7.79-1.38,.76-3.84,.66-3.99,3.15l-5.04,.16-.08-.08c.03-1.1-.12-2.26,1.04-2.96Z"/>
      <path class="cls-4" d="M758.02,505.13c.37-.06,.74-.12,1.1-.18,1.82,5.91,.16,12.16,1.75,18.1-.7,.06-1.4,.11-2.11,.17-8.22-.42-16.41-2-24.68-.53-.31-3.41,2.41-3.75,4.65-4.69,7.24-3.05,14.44-6.2,19.27-12.86Z"/>
      <path class="cls-6" d="M758.02,505.13c-4.84,6.66-12.03,9.82-19.27,12.86-2.24,.94-4.96,1.28-4.65,4.69-5.99,.75-11.98,1.51-17.97,2.26,.15-2.48,2.61-2.39,3.99-3.15,4.47-2.46,8.97-4.81,13.16-7.79,7.39-5.25,15.78-7.94,24.75-8.88Z"/>
      <path class="cls-4" d="M724.13,595.9c-2.53-1.76-5.38-.58-8.07-.91-2.59-.43-5.18-.87-7.76-1.3,3.87-3.88,8.58-1.42,12.83-1.35,2.35,.04,4.87,.77,7.32,.61,11.95-.78,23.72,1.16,35.57,2.05,.39,.78,1.1,.96,1.88,1.02,0,1.66-.01,3.33-.02,4.99-.29,0-.57-.02-.86-.02-9.13-2.64-18.27-5.21-27.93-3.05-3.87-3.51-8.64-1.31-12.95-2.04Z"/>
      <path class="cls-4" d="M762.8,583.11c-17.04-2.29-34.32-4.09-51.48-2.28-1.04,.06-2.61,.56-2.9-1.06-.52-2.58,3.83-2.69,5.51-2.69,16.09-.1,32.2-.8,48.14,2.24,.77,.83,1.8,.63,2.77,.71,.01,.98,.03,1.96,.04,2.94-.7,.05-1.39,.09-2.09,.14Z"/>
      <path class="cls-4" d="M761.09,545c.82-5.49-1.86-7.35-7.07-8.18-6.65-1.07-13.36-1.66-20.01-2.7-6-.33-12-.66-18-1-2.21-.2-4.61,.25-7.39-2.77,17.98-.79,34.69,1.66,51.45,2.89,.59,.28,1.18,.56,1.77,.84-.27,3.7,1.16,7.34,.34,11.06-.37-.05-.73-.09-1.1-.14Z"/>
      <path class="cls-4" d="M704.06,630.95c-.04,.98-.09,1.97-.13,2.95-.95,.01-1.91,.03-2.86,.04-1.36-1.36-3.18-1.71-4.92-1.96-9.68-1.4-19.37-2.68-29.06-4-3.66-.33-7.33-.67-10.99-1-2-.33-4-.65-6-.98-.69-.45-1.37-.89-2.06-1.34,18.45,.43,36.87,.69,54.87,5.21,.34,.04,.68,.07,1.02,.11,.07,.32,.11,.64,.14,.97Z"/>
      <path class="cls-13" d="M716.02,533.12c6,.33,12,.66,18,1,.08,4.04-3.52,3.97-5.87,4.8-2.63,.92-4.53,2.2-6.35,4.36-3,3.56-6.9,6.1-11.72,6.78,1.7-5.74,6.52-10.39,5.94-16.93Z"/>
      <path class="cls-13" d="M708.29,593.69c2.59,.43,5.18,.87,7.76,1.3-1.34,6.52-2.6,13.05-4.05,19.54-.56,2.52-.06,5.88-3.96,6.41,.08-9.09,.16-18.17,.25-27.26Z"/>
      <path class="cls-4" d="M702.07,595.99c-14.58-4.94-29.59-7.74-44.9-9.03-1.13-.11-2.35,.08-3.85-1.87,6.87,.46,13.09,.62,19.24,1.34,8.15,.96,16.22,2.72,24.38,3.41,4.5,.38,5.85,2.06,5.14,6.15Z"/>
      <path class="cls-10" d="M700.71,579.39c-.41-1.16-.81-2.31-1.22-3.47-.38-2.26-.77-4.52-1.15-6.78-.08-3.75,.55-7.61-1.63-11.05,1.18-2.23-.3-6.36,4.37-6.08,.03,1.34,.05,2.68,.08,4.02-1.5,7.76,.49,15.58-.44,23.34Z"/>
      <path class="cls-13" d="M701.15,556.05c-.03-1.34-.05-2.68-.08-4.02,2.02-4.21,.52-8.64,.86-12.96-.32-2.77,1.44-6.02-1.91-8.07,.04-.35,.08-.69,.12-1.04,1.94,.09,3.98-.19,3.55,3.01-.5,3.69,4.29,6.4,2.33,10.41-2,4.09-.6,9.47-4.86,12.67Z"/>
      <path class="cls-6" d="M762.8,583.11c.7-.05,1.39-.09,2.09-.14,.13,4.36,1.66,8.62,.99,13.04-.78-.05-1.49-.24-1.88-1.02-.4-3.96-.8-7.92-1.2-11.88Z"/>
      <path class="cls-6" d="M764.85,580.03c-.96-.08-2,.12-2.77-.71,1.45-4.1,1.53-8.18-.21-12.23,.69-.03,1.39-.06,2.08-.09,.35,2.66,.7,5.33,1.05,7.99l-.16,5.03Z"/>
      <path class="cls-6" d="M761.85,534.08c-.59-.28-1.18-.56-1.77-.84,.23-3.43-.79-6.7-1.3-10.03,.7-.05,1.4-.11,2.11-.16,.32,3.68,.65,7.36,.97,11.04Z"/>
      <path class="cls-13" d="M707.94,623.87c.3,.38,.6,.76,.9,1.15,.07,.64,.14,1.29,.21,1.93-1,.33-1.99,.67-2.99,1,.12-1.59-.62-3.58,1.88-4.08Z"/>
      <path class="cls-6" d="M703.93,629.98c-.34-.04-.68-.07-1.02-.11,0-2.27,0-4.53,0-6.8,.34,0,.68-.01,1.02-.02v6.92Z"/>
      <path class="cls-6" d="M750.02,566.02c1.16-1.41,1.66-.62,2.04,.6-.83,.32-1.51,.12-2.04-.6Z"/>
      <path class="cls-8" d="M711.09,525.1c-.15,.12-.31,.25-.46,.37,.13-.15,.26-.3,.38-.45,0,0,.08,.08,.08,.08Z"/>
      <path class="cls-3" d="M765.01,600.98c.29,0,.57,.02,.86,.02-.59,6.22,2.46,12.05,1.99,18.26-1.87,8.15-1.92,16.42-1.54,24.71-.11,13.82-1.38,27.63-.07,41.44-12.13-.18-24.26-.36-36.39-.55-2.41-1.52-4.95-1.69-7.61-.8-5.64,.54-11.27-1.39-16.92-.14-2.22-1.16-3.22-1.01-3.45,2.01-.24,3.22,1.77,6.96-1.66,9.65-.1-1.58-.2-3.17-.31-4.75-.75-2.68,2.63-6.89-2.89-7.79l.1-.41c2.86-1.54,5.75-2.06,9.06-1.26,7.58,1.83,10.79,1.15,14.15-5.7,5.74-11.57,17-19.17,20.71-31.71,0,0,0-.01,0-.01,3.49-1.24,3.12-5.92,6.42-7.65,.87,2.25-.61,3.83-.65,5.63-.03,1.51-1.93,3.62,.11,4.35,2,.72,2.78-1.79,3.59-3.37,.29-.57,.35-1.27,.51-1.9,.79-.46,.99-1.21,1.01-2.05v.02c4.87-5.75,5.52-13.41,8.96-19.78,3.1-5.75,4.49-11.73,4.02-18.19Zm-12,69.92c4.03-1.46,6.55-4.21,7.12-8.62-2.36,2.88-6,4.68-7.12,8.62-2.08,.27-3.43,1.2-3.64,3.7,2.52-.41,3.41-1.75,3.63-3.7Z"/>
      <path class="cls-6" d="M765.01,600.98c.47,6.46-.91,12.44-4.02,18.19-3.44,6.37-4.09,14.04-8.97,19.78,.72-6.29,4.97-12.3,1.22-18.92-.5,2.28,.05,4.94-2.3,6.93,2-8.5,1.53-16.8-1.54-24.79-.63,5.21-1.36,10.54-1.9,15.88-.9,8.95-4.02,17.33-6.47,25.88,0,0,0,.01,0,.01-4.29,.57-4.82,5.17-7.74,7.21-1.14,.8-1.82,2.95-3.5,2.08-1.5-.77-.89-2.77-.68-4.11,.63-4.06,1.52-8.08,2.42-12.09,.33-1.47,.98-2.87-.49-4.08,0-1,0-2,0-3.01,.67-.09,1.32-.24,1.37-1.07,.61-10.46,3.38-20.59,4.68-30.94,9.66-2.16,18.8,.41,27.93,3.05Z"/>
      <path class="cls-2" d="M667.09,627.98c9.69,1.32,19.38,2.6,29.06,4,1.74,.25,3.56,.6,4.92,1.96-.45,4.3-3.27,6.53-6.98,7.98-.41-1.35-.81-2.7-1.32-4.38-1.15,1.63-.48,3.07-.71,4.38-2.98-.61-5.23,1.64-7.96,2,0,0,0,0,0,0,.01-1.45,.02-2.89-1.99-3,0,0,0,0,0,0-.2-1.21-.26-2.5-1.68-3.11-.55,1.27-.41,2.29,.66,3.11,0,3.15,.11,6.31-.02,9.46-.11,2.69-.85,4.22-3.97,2.21-3.53-2.28-7.35-4.13-6.47-9.79,1.82,19.56-9.42,29.11-25.57,35.01-.33-.3-.66-.61-.99-.91-.29,.02-.58,.04-.86,.04-.19-1.55,.05-3.16,1.19-4.14,8.86-7.58,13.55-17.26,14.89-28.72,.05-.42,.54-.78,.83-1.17,.54,.31,1.16,.96,1.61,.86,9.25-1.93,6.34-8.83,5.4-15.78Zm-3.17,29.96c.32-3.46-.78-5.48-1.86-7.51-.18,2.31-.15,4.57,1.86,7.51Zm.89,2.21c.02-.13,.05-.26,.07-.39-.18,.03-.35,.07-.53,.1,.05,.12,.06,.27,.15,.34,.05,.04,.2-.03,.31-.06Z"/>
      <path class="cls-2" d="M731.04,629.95c0,1,0,2,0,3.01-4.03,20.61-7.57,25.32-24.51,37.62-1.86,1.44-2.55,.32-2.5-1.7,.08-2.99,.03-5.98,.03-8.98,6.82-9.5,9.73-20.91,12.99-31.95,1.28-.18,2.97,.09,3.79-.62,4.81-4.19,7.61-1.37,10.19,2.62Z"/>
      <path class="cls-6" d="M694.09,641.93c3.7-1.46,6.53-3.68,6.98-7.98,.96-.01,1.91-.03,2.86-.04,.05,.35,.09,.69,.14,1.04-.04,1.68-.09,3.35-.13,5.03-1.81,.2-2.02,1.53-1.85,2.9,.52,4.33-2.43,7.71-3.1,11.71-.2,1.21-.97,2.22-2.34,2.09-1.95-.19-1.45-1.84-1.57-3.06-.37-3.89,.85-7.92-.99-11.68Z"/>
      <path class="cls-6" d="M684.09,643.93c2.73-.36,4.99-2.61,7.96-2,0,3.64,.32,7.31-.94,10.86-.35,.99-.55,1.92-1.8,2.01-1.15,.09-1.87-.38-2.23-1.51-.97-3.13-3.53-5.74-2.99-9.36Z"/>
      <path class="cls-3" d="M648.12,682.82c.29-2.11,1.9-1.93,3.39-1.93,7.76,0,15.52,0,23.31,.34-7.76,2.04-15.64,2.98-23.67,2.64-.72-1.19-1.97-.84-3.03-1.05Z"/>
      <path class="cls-5" d="M685.13,684.9c-4.02,2.15-7.96,4.54-13.09,4.05,1.45-1.13,2.89-2.27,4.35-3.41,1.76-1.21,3.58-2.18,5.83-1.61,.97,.32,1.94,.65,2.92,.97Z"/>
      <path class="cls-16" d="M685.13,684.9c-.97-.32-1.95-.65-2.92-.97,4.07-3.31,8.4-2.23,12.75-.75-.12,.16-.15,.34-.08,.53-1.29,.29-1.78,1.17-1.78,2.41-2.39-2.17-5.3-.9-7.98-1.22Z"/>
      <path class="cls-1" d="M648.12,682.82c1.06,.21,2.31-.13,3.03,1.05-.99,.16-2.17-.24-2.83,.93-.76,.4-1.52,.8-2.29,1.21-1.67-1.06-3.8-1.4-5.05-3.14,2.38-.02,4.75-.03,7.13-.05Z"/>
      <path class="cls-13" d="M703.94,639.97c.04-1.68,.09-3.35,.13-5.03,2.09,.22,2.43,1.8,1.72,3.14-1.17,2.19,.23,4.94-1.74,6.85-.04-1.65-.07-3.3-.11-4.96Z"/>
      <path class="cls-6" d="M682.1,640.93c2.01,.11,2,1.55,1.99,3-2.03-.09-2.01-1.54-1.99-3Z"/>
      <path class="cls-6" d="M681.07,640.93c-1.07-.82-1.2-1.84-.66-3.11,1.42,.61,1.48,1.9,1.68,3.11-.34,0-.68,0-1.03,0Z"/>
      <path class="cls-10" d="M695.88,682.95c.41-.11,.83-.22,1.24-.33,0,0-.1,.41-.1,.41-.24,.3-.48,.61-.72,.91-.14-.33-.28-.66-.42-.99Z"/>
      <path class="cls-1" d="M695.88,682.95c.14,.33,.28,.66,.42,.99l-.38-.1c-.24,.03-.48,.09-.72,.16l-.31-.31c-.07-.19-.04-.37,.08-.53,.3-.08,.6-.15,.91-.22Z"/>
      <path class="cls-8" d="M644.04,676.9c.33,.3,.66,.61,.99,.91-.33-.3-.66-.61-.99-.91Z"/>
      <path class="cls-7" d="M829.87,714.91c-.01,2.23,1.55,1.92,3.02,1.99,2.39,.11,4.88-.68,7.14,.73-.05,.39-.1,.77-.15,1.16-.99,.02-1.98,.03-2.97,.05-1.17-1.74-3-1.21-4.54-1.12-6.59,.39-13.23,.58-19.75,1.57-4.56,.69-9.27-.58-13.68,1.32-6.77,.12-13.53,.23-20.3,.34,.15-1.02,.29-2.04,.44-3.06,3.7-2.5,8.1-1.23,12.05-1.67,6.25-.69,12.57-1.7,19.15-.95,3.94,.45,8.3,3.41,12.53,.59,2.39-.05,4.86,.49,7.06-.96Z"/>
      <path class="cls-1" d="M690.13,738.94c-1.76-.22-3.49-.56-5.23,.28-1.65,.8-3.15,.61-4.02-1.28,.73-.31,1.45-.63,2.18-.94,1.4-.12,2.8-.24,4.19-.36,14.27,.34,28.53,.65,42.77-.68,4.99-.14,9.99-.28,14.98-.41,13.69,.18,27.38,.69,41.07-.12,1.82,0,3.65-.02,5.47-.02,.11,.47,.22,.94,.32,1.4-19.61,.45-39.21,.89-58.82,1.34-4.35-.17-8.7-.36-13.02,.37-3.67-.41-7.32-.1-10.97,.29-6.31,.13-12.62,.13-18.93,.14Z"/>
      <path class="cls-5" d="M786.07,735.43c-13.69,.81-27.38,.3-41.07,.12,.89-2.48,3.34-1.99,5.15-2.72,.35,0,.71,0,1.06-.01,4.3,2.44,7.49,1.73,8.7-1.94,2.67-2.22,5.87-2.1,9.06-2.06,1.66,1.74,4.75,.59,6.06,3.02-.57,2.02-.61,3.32,2.29,3.16,2.89-.16,5.89-.78,8.74,.43Z"/>
      <path class="cls-16" d="M791.86,736.81c-.11-.47-.21-.94-.32-1.4,18.2-1.38,36.54-1.01,54.79-1.61,1.89-.03,4.03-.78,5.62,1.06-19.99,1.87-40.03,2.36-60.09,1.95Z"/>
      <path class="cls-7" d="M775.03,731.84c-1.31-2.43-4.4-1.28-6.06-3.02,1.33-.31,2.66-.61,4-.92,1.06,1.07,2.04,1.3,2.88-.24,.43-1.53,.86-3.05,1.3-4.58,.3-.11,.55-.28,.78-.51,6.95-.3,13.89-.6,20.84-.9,4.46,.99,8.79-1.02,13.23-.55-5.15,2.98-11.11,2.18-16.47,2.32-8.28,.22-15.13,1.97-20.5,8.39Z"/>
      <path class="cls-16" d="M812,721.13c-4.44-.48-8.77,1.53-13.23,.55,.06-.35,.12-.7,.18-1.06,4.4-1.89,9.12-.62,13.68-1.32,6.51-.99,13.15-1.18,19.75-1.57,1.54-.09,3.37-.62,4.54,1.12-8.3,.76-16.61,1.52-24.91,2.28Z"/>
      <path class="cls-12" d="M839.87,718.79c.05-.39,.1-.77,.15-1.16,4.08-.14,8.17-2.12,12.23,.09-4.03,1.48-8.22,1.15-12.38,1.07Z"/>
      <path class="cls-2" d="M810.98,593.99c-2.34-6.33-5.56-12.34-7.1-18.97,4.13-.2,4.57,3.27,6.12,5.87,2.57,4.31,2.73,10.89,9.91,11.12,7.63,12.48,15.1,25.05,22.02,37.94-1.99,1.43-3.33,.35-4.66-1.13-3.98-4.43-8.04-8.8-11.98-13.27-.69-.78-1.23-1.53-2.34-1.59-.44-.8-1.18-.99-2.01-1.04-1.6-7.22-2.97-14.55-9.96-18.94Z"/>
      <path class="cls-10" d="M779.62,519.07c1.91,7.25,3.82,14.49,5.73,21.74-1.5,.75-1.29,2.26-1.57,3.55-.28-.06-.54-.16-.78-.32-1.57-6.35-3.15-12.71-4.72-19.06-.29-1.02-.58-2.05-.87-3.07l.02-.15c-.49-6.41-3.59-12.27-3.93-18.71,.52-.1,1.03-.19,1.55-.29,1.53,5.44,3.05,10.88,4.58,16.32Z"/>
      <path class="cls-15" d="M819.91,592c-7.18-.23-7.34-6.81-9.91-11.12-1.55-2.6-1.99-6.07-6.12-5.87-2.47-2.88-2.79-6.6-3.96-9.99,5.89,1.6,6.86,7.63,10.09,11.56,3.85,4.68,6.65,10.24,9.9,15.42Z"/>
      <path class="cls-15" d="M799.94,565.05c-1.13-.72-.95-1.94-1.15-3.02,1.39,.62,1.12,1.88,1.15,3.02Z"/>
      <path class="cls-4" d="M820.94,612.92c.83,.04,1.57,.24,2.01,1.04,8.03,18.06,17.85,35.29,29.22,51.44,5.7,8.17,12.03,15.82,20.49,21.34,1.62,1.06,2.36,2.21,2.2,4.04-5.33,.33-10.65,.67-15.98,1,.04-1.17,0-2.34-.9-3.24-5.28-5.28-8.55-11.87-11.99-18.36-1.09-2.06-2.44-3.97-5.08-4.27-4.96-10.03-9.83-20.09-13.07-30.84-.28-.37-.55-.74-.83-1.11-.13-.64-.25-1.29-.37-1.93,.65-4.61-1.14-8.2-4.63-11.07-.99-1.89-2.18-3.71-2.15-5.97,.86-.42,1.05-1.2,1.07-2.06Z"/>
      <path class="cls-16" d="M660.1,701.77c4.83,.68,9.05-2.09,13.85-2.39,5.07-.31,10.12-.5,15.19-.43,2.01,1.62,4.35,2.09,6.86,1.95,3.88,1.69,7.42,1.76,10.18-2.07,5.34,.28,10.57-1.54,15.94-.85,1.03,1.22,2.01,1.24,2.92-.13,1.3-.06,2.59-.12,3.89-.18,.39,1.63,.78,3.26,1.17,4.89-3.02,.15-6.05,.3-9.07,.46-2.31,.04-4.61,.08-6.92,.12-.67,.03-1.33,.05-2,.08-1.09-.27-2.16-.31-3.14,.36-1.97,.11-3.94,.23-5.91,.34-2.51-.03-5.07-.59-7.45,.73-2.84,.1-5.68,.19-8.51,.29-1.65,.09-3.31,.13-4.96,.2-8.07-.82-16.04,1.62-24.12,.34-.16-1.72,.48-2.99,2.08-3.72Z"/>
      <path class="cls-7" d="M666.18,729.63c-.03-2.02-1.83-4.48,1.43-5.74,.08-.03-.38-1.48-.59-2.27,1.06-2.9,1.97-5.86,3.22-8.68,1.08-2.44,2.54-4.7,5.84-4.22,1.33,1.85,.7,6.12,5.12,4.13,3.21-.42,3.3,3.72,5.96,4.09,2.04,3.04-2.7,3.71-2.18,6.22-1.94,.23-3.89,.47-5.83,.7-2.76,.54-6.19,.13-6.23,4.47-1.25,.45-2.51,.9-3.76,1.35-.36-.45-.73-.47-1.11-.01-.33,.05-.67,.09-1,.14-.25-.02-.5-.02-.75,0l-.11-.17Z"/>
      <path class="cls-1" d="M676.08,708.72c-3.3-.48-4.76,1.78-5.84,4.22-1.24,2.82-2.16,5.78-3.22,8.68-2.5-.75-3.16-2.63-2.87-4.94,.38-3.07-1.46-4.2-3.97-4.6-3.23-.52-2.28,2.07-2.65,3.74-1.31,5.97-5.59,2.17-8.76,2.58,4.64-3.29,3.5-10.52,9.24-12.91,8.08,1.28,16.05-1.17,24.12-.34-.27,2.52-3.14,1.05-4.03,2.62-.68,.32-1.35,.63-2.03,.95Z"/>
      <path class="cls-16" d="M667.04,729.8c.33-.05,.67-.09,1-.14,.37,0,.74,0,1.11,.01,1.25-.45,2.51-.9,3.76-1.34,1.69,.15,3.37,.29,5.06,.44,.05,.36,.1,.72,.15,1.09-.79,1.25-1.54,2.55-2.97,3.21-3.44,.19-6.92,.74-10.05-1.36-.08-.92,.17-1.66,1.07-2.07,0,0,.11,.17,.11,.17,.25,.67,.5,.55,.75,0Z"/>
      <path class="cls-7" d="M650.55,703.54c-.09,1.76,2.58,1.39,2.4,3.1-.13,1.26-.98,2.23-2.38,1.81-1-.3-2.51-.58-2-2.23,.32-1.04,.6-2.25,1.98-2.68Z"/>
      <path class="cls-11" d="M761.85,534.08c-.32-3.68-.64-7.36-.97-11.04-1.6-5.93,.07-12.18-1.76-18.1,0-.53,0-1.05,0-1.58-.03-.79-.06-1.57-.09-2.36-.2-2.26,.11-4.61,2.88-4.48,2.78,.13,1.84,2.83,2.13,4.58-.14,6.73,.55,13.38,1.9,19.96-.97,18.04,3.08,35.88,2.04,53.92h-2.97c-.35-2.66-.7-5.32-1.05-7.99,.27-7.08-.81-14.04-1.83-21.01,.03-.29,.05-.57,.06-.86,.83-3.71-.6-7.36-.34-11.06Z"/>
      <path class="cls-8" d="M765.94,521.07c-1.35-6.59-2.04-13.24-1.9-19.97,1.59-.68,3.18-1.35,4.77-2.03,1.46,1.69,.35,4.86,3.26,5.72-.04,1.08-.07,2.16-.11,3.24-1.88,.03-3.49,.4-2.53,2.85,.76,1.93,.08,4.02,.65,5.85,1.31,4.24-.86,4.72-4.15,4.33Z"/>
      <path class="cls-3" d="M759.03,501.01c.03,.79,.06,1.57,.09,2.36-3.74-.1-7.48-.16-11.22-.33-1.49-.07-3.47,.59-3.78-1.9,4.97-.04,9.94-.08,14.91-.13Z"/>
      <path class="cls-1" d="M693.11,686.11c0-1.24,.49-2.12,1.78-2.41,0,0,.31,.31,.31,.3-.78,4.25,1.1,8.72-1.09,12.85-.34-.41-.67-.81-1.01-1.22,0-3.17,0-6.35,0-9.52Z"/>
      <path class="cls-5" d="M693.1,695.63c.34,.41,.67,.81,1.01,1.22-.23,1.43,.53,1.99,1.83,2.08,.02,.66,.04,1.32,.06,1.98-2.51,.14-4.85-.33-6.86-1.95,2.91,.78,2.46-2.44,3.97-3.32Z"/>
      <path class="cls-15" d="M667.09,627.98c.95,6.95,3.85,13.85-5.4,15.78-.45,.1-1.07-.56-1.61-.86-3.62-4.73-3.94-10.29-3.99-15.92,3.66,.33,7.33,.67,10.99,1Z"/>
      <path class="cls-11" d="M675.16,733.06c1.43-.66,2.18-1.96,2.97-3.21,.24-.53,.48-1.07,.72-1.6,.1-1.46,.2-2.93,.3-4.39,1.94-.23,3.89-.47,5.83-.7,4.71,1.05,9.41-.55,14.11-.02,.69,.83,2.11,1.1,1.94,2.57-7.1,.83-13.78,2.33-18.97,8.04-2.26,2.48-1.22,2.73,.98,3.25-.73,.31-1.45,.63-2.18,.94-1.25-.07-2.5-.15-3.75-.22-.65-1.55-1.31-3.11-1.96-4.66Z"/>
      <path class="cls-15" d="M696.71,558.1c2.18,3.44,1.55,7.29,1.63,11.05-3.45-5.93-9.51-5.32-14.97-5.57-1.98-.09-4.17,.35-6.28,.44-.09-1.7,.26-3.12,1.97-4,1.6-.82,2.95-1.95,3.02-3.98,5.02-.31,9.65,2.12,14.63,2.07Z"/>
      <path class="cls-9" d="M709.06,738.8c3.65-.39,7.3-.7,10.97-.29-3.6,2.37-7.27,1.75-10.97,.29Z"/>
      <path class="cls-9" d="M690.13,738.94c3.97,0,7.95-.02,11.92-.03-2.48,1.86-5.34,.49-7.98,.94-1.35-.15-2.87,.46-3.94-.91Z"/>
      <path class="cls-15" d="M689.07,539.04c2.94,.25,5.72,.79,6.99,3.98-4.32,2.33-8.56,4.82-12.97,6.96-3.76,1.82-7.85,2.39-12.04,1.98,.07-1.5,1.12-2.17,2.17-3.07,4.79-4.1,10.56-6.59,15.86-9.85Z"/>
      <path class="cls-13" d="M689.07,539.04c-5.3,3.25-11.06,5.75-15.86,9.85-1.05,.89-2.1,1.57-2.17,3.07-1.66-.02-3.32-.03-4.98-.04,.67-4.13,3.04-6.92,6.46-9.26,1.96-1.35,4.87-2.37,4.63-5.69,4.1-.02,8.07,.69,11.92,2.08Z"/>
      <path class="cls-7" d="M845.97,713.68c-5.22-.81-10.45-1.61-15.67-2.42-.91-1.98-2.6-2.46-4.57-2.37,.95-1.66,3.28-.46,4.26-2.05,4.6,2.94,8.64-.89,12.99-1.06,3.66,.07,7.32,.14,10.98,.22,.88,1.52,2.86,.24,4.16,1.77-3.55-.12-6.7,.51-9.87,1.02-1.74,.28-2.22,1.34-1.09,2.15,4.55,3.23-2.26,1.23-1.19,2.73Z"/>
      <path class="cls-1" d="M853.95,706c-3.66-.07-7.32-.14-10.98-.22-3.19-1.87-6.73-.35-10.04-1.04-.02-.28-.04-.55-.05-.83,5.05-.04,10.1-.07,15.16-.11,3.07-1.56,6.35-2.11,9.76-2.01,2.51,2.35,4.39,.84,6.22-1.01,.17,0,.33,.03,.48,.11,1.33,1.66,2.57,2.01,4.96,1.36,5.62-1.54,11.47-2.24,17.23-3.28-1.38,3.04-3.74,4.03-6.92,3.34-8.61,1.23-17.22,2.46-25.82,3.7Z"/>
      <path class="cls-12" d="M886.7,698.96c-5.76,1.04-11.61,1.75-17.23,3.28-2.39,.65-3.63,.3-4.96-1.36,2.26-3.87,6.04-.99,9.07-1.81,6.54-1.77,13.32-3.25,20.26-3.01-.15,6.47-4.47,2.63-7.14,2.9Z"/>
      <path class="cls-9" d="M825.72,708.89c1.98-.09,3.67,.39,4.58,2.37-.14,1.22-.29,2.43-.43,3.65-2.2,1.45-4.67,.92-7.06,.96-.61-1.9,0-3.52,1.18-5,.46-.66,.93-1.33,1.39-1.99h.34Z"/>
      <path class="cls-1" d="M771.97,508.04c.04-1.08,.07-2.16,.11-3.24,.51-.57,1.01-1.14,1.52-1.71,0,0-.1-.04-.1-.04,.34,6.44,3.44,12.3,3.93,18.71-.5,.13-1,.27-1.5,.4-3.07-4.21-2.21-9.53-3.97-14.12Z"/>
      <path class="cls-14" d="M688.02,531.24c-.11,1.06-.55,1.9-1.76,1.58-1.22-.32-1.07-1.33-.8-2.29,1.07-.52,1.7,.5,2.56,.71Z"/>
      <path class="cls-4" d="M712.29,564.01c-.29-.41-.75-.79-.69-1.05,.08-.32,.59-.71,.93-.74,.68-.06,1.25,.35,1.01,1.1-.09,.29-.73,.42-1.26,.69Z"/>
      <path class="cls-15" d="M731.04,629.95c-2.59-3.99-5.38-6.81-10.19-2.62-.82,.71-2.5,.44-3.79,.62,2.94-10.56,5.98-21.09,7.07-32.05,4.31,.73,9.08-1.47,12.95,2.04-1.3,10.35-4.06,20.48-4.68,30.94-.05,.83-.7,.99-1.37,1.07Z"/>
      <path class="cls-4" d="M709.05,626.95c-.07-.64-.14-1.29-.21-1.93,.38-1.5,1.12-2.52,2.8-1.62,1.38,.74,1.79,2.17,1.19,3.43-1.03,2.15-2.49,.54-3.78,.12Z"/>
      <path class="cls-6" d="M762.19,545.14c0,.29-.03,.58-.06,.86-.37,.02-.73,.04-1.1,.05,.02-.35,.04-.71,.06-1.06,.37,.05,.73,.09,1.1,.14Z"/>
      <path class="cls-6" d="M681.09,596.98c5.71-1.57,11.32-1.28,16.88,.78,1.27,.47,2.51,.79,3.11,2.15-8.96,2.01-16.29,8.3-25.64,9.52-5.48,.71-10.91,.26-16.35,.49,.07-1.44,1.2-1.64,2.25-2.19,6.62-3.51,13.17-7.15,19.75-10.75Z"/>
      <path class="cls-15" d="M681.09,596.98c-6.58,3.6-13.13,7.24-19.75,10.75-1.05,.55-2.17,.75-2.25,2.19-2.65-.35-5.49,.96-7.98-.89,7.04-4.26,12.69-10.3,19.25-15.16,6.56-4.85,7.71-4.45,10.72,3.11Z"/>
      <path class="cls-13" d="M765.01,575c.99,0,1.98,0,2.97,0,2.14,6.23,.45,12.67,1.01,18.99,.73,3.68-1.8,7.92,1.91,11.08l-.02,1.79c-2.03,4.77-.83,10.14-2.77,14.92-.08-.84-.16-1.68-.24-2.52,.47-6.21-2.58-12.04-1.99-18.26,0-1.66,.01-3.33,.01-4.99,.68-5.4-1.37-10.59-1.04-15.98,.05-1.68,.11-3.36,.16-5.03Z"/>
      <path class="cls-9" d="M767.4,685.79c-.38-.13-.76-.25-1.15-.38-1.12-10.84-.34-21.69-.14-32.54,1.3-1.93,1.27-3.9,.13-5.89,.03-1,.05-2.01,.08-3.01,1.56,0,2.28-1.43,3.48-2.02,.78,5.31,1.56,10.61,2.34,15.92,.68,5.99,1.35,11.98,2.03,17.97,.9,10.23,1.68,20.47,2.48,30.7-1.22,.11-2.43,.22-3.65,.33-.21-.23-.26-.48-.15-.77,.85-7.49-3.19-13.66-5.46-20.31Z"/>
      <path class="cls-4" d="M741.04,643.94c2.45-8.55,5.57-16.93,6.47-25.88,.54-5.35,1.27-10.67,1.9-15.88,3.06,7.99,3.53,16.29,1.54,24.79,2.35-1.98,1.8-4.64,2.3-6.93,3.74,6.62-.5,12.63-1.22,18.92,0,0,0-.02,0-.02-.84,.44-1,1.21-1.01,2.05-.16,.64-.22,1.33-.51,1.9-.81,1.57-1.59,4.08-3.59,3.37-2.04-.73-.14-2.84-.11-4.35,.04-1.8,1.51-3.37,.65-5.63-3.29,1.74-2.93,6.41-6.42,7.65Z"/>
      <path class="cls-1" d="M705.33,683.92c5.65-1.25,11.27,.69,16.92,.14-4.37,2.04-8.27,5.12-13.21,5.86-.06-.26-.07-.45-.38-.49,.14,.15,.28,.3,.42,.46,.03,1.93-.79,3.08-2.84,3.1-.64-1.67,.97-3.75-.97-5.17,.02-1.3,.04-2.6,.06-3.9Z"/>
      <path class="cls-16" d="M709.04,689.91c4.94-.73,8.85-3.82,13.21-5.86,2.66-.89,5.21-.71,7.62,.81-7.58,1.86-14.11,5.9-20.6,10-1.24-.26-2.65-.24-3.03-1.88,2.05-.03,2.88-1.17,2.84-3.11l-.04,.04Z"/>
      <path class="cls-9" d="M705.33,683.92c-.02,1.3-.04,2.6-.06,3.9-2,1.69-1.2,4.28-1.97,6.39-.82,2.23,1.03,2.72,2.88,2.71,0,.64,0,1.28,0,1.93-2.76,3.83-6.3,3.76-10.18,2.07-.02-.66-.04-1.32-.06-1.98,.12-.34,.25-.68,.37-1.01,.77-.04,1.45-.23,1.77-1.04h-.01c.96-.02,1.77-.31,2.15-1.3,3.44-2.69,1.42-6.43,1.66-9.65,.23-3.03,1.23-3.17,3.45-2.01Z"/>
      <path class="cls-10" d="M769.81,641.95c-1.21,.6-1.93,2.03-3.48,2.02-.38-8.29-.33-16.56,1.54-24.71,.7,5.25,.15,10.65,2.05,15.72-.04,2.32-.08,4.64-.11,6.97Z"/>
      <path class="cls-9" d="M696.3,683.94c.24-.3,.48-.61,.72-.91,5.53,.9,2.15,5.11,2.89,7.79-3.33,1.19-1.24,4.03-1.85,6.06,0,0,.01,0,.01,0-.57-.01-1.14-.03-1.72-.04-.15-4.33-.29-8.66-.44-12.99l.38,.1Z"/>
      <path class="cls-4" d="M753.01,670.91c1.12-3.94,4.76-5.73,7.12-8.62-.57,4.41-3.09,7.16-7.12,8.62h0Z"/>
      <path class="cls-10" d="M698.07,696.88c.6-2.02-1.49-4.87,1.85-6.06,.1,1.58,.2,3.17,.31,4.75-.38,.98-1.19,1.27-2.15,1.31Z"/>
      <path class="cls-4" d="M753.01,670.9c-.22,1.95-1.12,3.29-3.63,3.7,.21-2.5,1.56-3.43,3.64-3.7,0,0,0,0,0,0Z"/>
      <path class="cls-10" d="M766.25,646.99c1.14,1.99,1.17,3.95-.13,5.89,.04-1.96,.09-3.92,.13-5.89Z"/>
      <path class="cls-6" d="M751.02,640.99c.02-.84,.17-1.62,1.01-2.05-.02,.84-.22,1.59-1.01,2.05Z"/>
      <path class="cls-4" d="M663.92,657.94c-2.01-2.95-2.04-5.2-1.86-7.51,1.07,2.04,2.18,4.06,1.86,7.51Z"/>
      <path class="cls-4" d="M664.81,660.15c-.11,.02-.26,.1-.31,.06-.08-.07-.1-.22-.15-.34,.18-.03,.35-.07,.53-.1-.02,.13-.05,.26-.07,.39Z"/>
      <path class="cls-11" d="M695.92,683.85c.15,4.33,.29,8.66,.44,12.99-.02,.36-.04,.72-.05,1.08-.12,.34-.24,.67-.37,1.01-1.3-.08-2.06-.65-1.83-2.08,2.19-4.13,.31-8.6,1.09-12.85,.24-.07,.48-.13,.72-.16Z"/>
      <path class="cls-1" d="M823.99,710.88c-1.18,1.48-1.79,3.09-1.18,5-4.23,2.82-8.58-.15-12.53-.59-6.59-.75-12.9,.26-19.15,.95-3.95,.44-8.35-.83-12.05,1.66-.6,0-1.19,0-1.79,0-1.17-2.06-3.18-1.19-4.89-1.43-3.04-.44-6.18,1.01-9.16-.49,5.1-1.93,10.56-1.55,15.82-2.47,4.46-.64,9.38,.41,12.93-3.54,1.51,.16,2.11,2.28,3.87,1.84,9.31-2.33,18.75-.34,28.12-.91Z"/>
      <path class="cls-11" d="M777.29,717.89c.6,0,1.19,0,1.79,0-.15,1.02-.29,2.04-.44,3.06-.24,.54-.48,1.07-.71,1.61-.22,.23-.48,.4-.78,.51-9.02-.02-18.02,.1-26.83,2.39-1.44-.61-2.89-1.22-4.33-1.83-2.04-1.81-4.78,.04-7.76-1.75,4.02,.38,7.13-.31,10.35-.4,4.75-.14,9.77,.21,14.43-1.53,4.77-.58,9.91,1.39,14.27-2.06Z"/>
      <path class="cls-1" d="M777.93,722.57c.24-.54,.48-1.07,.71-1.61,6.77-.11,13.53-.23,20.3-.35-.06,.35-.12,.7-.18,1.06-6.95,.3-13.89,.6-20.84,.9Z"/>
      <path class="cls-5" d="M729.6,735.96c-19.84,1.33-39.72,1.03-59.6,.68,3.15-1.45,6.68-.72,10.02-.76,14.09-.2,14.09-.14,13.5-9.9,12.47-1.08,25.01-1.48,37.56-1.73-1.57,3.83-1.62,7.77-1.47,11.71Z"/>
      <path class="cls-7" d="M730.02,735.96c-.11-3.95-.07-7.88,1.05-11.71,4.97-.2,9.95-.41,14.92-.61,1.44,.61,2.89,1.22,4.33,1.83-1.28,2.43-1.39,4.88-.17,7.36-1.81,.73-4.26,.24-5.15,2.72-4.99,.14-9.99,.28-14.98,.41Z"/>
      <path class="cls-16" d="M750.15,732.82c-1.22-2.48-1.11-4.93,.17-7.36,8.81-2.28,17.81-2.41,26.83-2.39-.43,1.53-.86,3.05-1.29,4.58-.96,.08-1.92,.16-2.88,.24-1.33,.31-2.66,.61-4,.92-3.19-.05-6.39-.16-9.06,2.06-2.9,.65-5.8,1.29-8.7,1.94-.35,0-.71,0-1.06,.01Z"/>
      <path class="cls-1" d="M751.21,732.81c2.9-.65,5.8-1.29,8.7-1.94-1.21,3.67-4.4,4.38-8.7,1.94Z"/>
      <path class="cls-5" d="M772.97,727.9c.96-.08,1.92-.16,2.88-.24-.84,1.54-1.83,1.31-2.88,.24Z"/>
      <path class="cls-12" d="M783.79,544.36c.28-1.29,.07-2.8,1.57-3.55,16.46,53.07,30.93,107.88,59.52,156-5.98-.35-11.91-1.48-17.93-1.03-.66-1.37-1.98-.79-3.02-1-5.57-1.14-11.42-.46-16.81-2.7,0-1.25,.01-2.49,.02-3.74-.8-9.74-1.6-19.48-2.41-29.22-2.21-26.46-7.79-52.38-12.88-78.36-1.51-7.71-2.28-15.7-6.06-22.84,1.02-4.77-1.83-8.97-1.98-13.56Z"/>
      <path class="cls-3" d="M840.92,665.91c2.63,.3,3.98,2.21,5.08,4.27,3.44,6.49,6.71,13.07,11.99,18.36,.9,.9,.93,2.07,.9,3.24-3.42,.82-5.5-.67-7.28-3.57-4.33-7.08-7.64-14.61-10.68-22.29Z"/>
      <path class="cls-6" d="M845.94,699.84c.33,.02,.66,.03,.98,.03,.89,.72,2.4,.43,2.89,1.78-.65,.07-1.29,.15-1.94,.22-5-.63-10.01-1.26-15.01-1.88-3.91-1.15-7.95-1.06-11.96-1.26,1.14-3.38,3.99-1.25,5.99-1.85,6.51-.08,12.96,.24,19.04,2.96Z"/>
      <path class="cls-6" d="M820.94,612.92c-.02,.86-.21,1.63-1.07,2.06-3.54-6.76-6.35-13.82-8.89-20.99,6.99,4.38,8.37,11.72,9.96,18.94Z"/>
      <path class="cls-4" d="M847.89,701.88c.65-.07,1.29-.15,1.94-.22-.5-1.36-2.01-1.06-2.89-1.78,5.71-1.04,11.44-2.45,17.02,.53-2.39-1.04-4.36-.24-6.14,1.39-3.41-.1-6.69,.45-9.76,2.01-.05-.64-.1-1.28-.16-1.92Z"/>
      <path class="cls-8" d="M845.94,699.84c-6.08-2.72-12.52-3.04-19.04-2.96,.01-.37,.02-.74,.03-1.11,6.02-.45,11.96,.68,17.93,1.03,.36,1.01,.71,2.02,1.07,3.03Z"/>
      <path class="cls-6" d="M822.02,620.95c3.49,2.88,5.28,6.46,4.63,11.07-2.24-3.4-3.49-7.21-4.63-11.07Z"/>
      <path class="cls-13" d="M857.81,701.79c1.78-1.63,3.75-2.43,6.14-1.39,0,0,.07,.38,.07,.38-1.82,1.85-3.71,3.37-6.22,1.01Z"/>
      <path class="cls-6" d="M827.02,633.96c.28,.37,.55,.74,.83,1.11-.28-.37-.55-.74-.83-1.11Z"/>
      <path class="cls-13" d="M775.93,522.15c.5-.13,1-.27,1.5-.4,0,0-.02,.15-.02,.15-.48,1.24-.69,2.41,.88,3.07,1.57,6.35,3.15,12.71,4.72,19.06-.63,1.1-1.23,.18-1.85-.02-1.76-6.67-3.52-13.34-5.27-20.01,.02-.62,.03-1.24,.05-1.86Z"/>
      <path class="cls-8" d="M781.16,544.02c.61,.2,1.22,1.12,1.85,.02,.24,.15,.5,.26,.78,.32,.15,4.59,3,8.79,1.98,13.56-2.26-4.39-4.62-8.75-4.61-13.89Z"/>
      <path class="cls-1" d="M778.29,524.97c-1.57-.66-1.35-1.83-.88-3.07,.29,1.02,.58,2.05,.88,3.07Z"/>
      <path class="cls-11" d="M678.11,707.77c.89-1.57,3.76-.1,4.03-2.62,1.31-.05,2.63-.1,3.94-.15,.37,.5,.7,.46,1.02-.05,2.84-.1,5.68-.19,8.52-.29,2.5-.03,5.11,1.03,7.45-.73,1.97-.11,3.94-.23,5.91-.34,1.26,1.73,2.32,1.72,3.14-.36,.67-.03,1.33-.05,2-.08,2.33,1.06,4.63,1.18,6.92-.12,3.02-.15,6.05-.3,9.07-.46,7.98,.03,15.95,.05,23.93,.08,.33,.11,.66,.22,.98,.33,1.3,1.25,2.62,1.22,3.98,.1,.99,.04,1.98,.08,2.97,.11,1.65,2.87,3.84,1.76,6.02,.83,.34-.07,.68-.13,1.02-.2,.75,1.1,2.66,.41,3.09,2-1.58,2.29-4.05,1.99-6.36,2.18-1.57-.09-3.15-.19-4.72-.28-6.24-1.88-12.63-.58-18.94-.77-2.99-.09-6.2-1.06-9.04,.89-.31,.15-.62,.3-.92,.44-13.36-.4-26.67,.3-39.96,1.63-1.14-.15-1.8,.4-2.11,1.46-.34,.49-.68,.98-1.02,1.47l.03-.08c-.99,1.22-1.87,2.49-1.88,4.16-2.67-.37-2.75-4.51-5.96-4.09,1.48-3.23,.38-4.87-3.09-5.08Z"/>
      <path class="cls-5" d="M754.03,702.66c-7.98-.03-15.95-.05-23.93-.08-.39-1.63-.78-3.26-1.17-4.89,1.36,.02,2.71,.03,4.07,.05,.26,2.38,2.05,2.15,3.69,2.15,4.6,0,9.2,.05,13.81,0,1.99-.02,3.71,.12,3.53,2.78Z"/>
      <path class="cls-1" d="M721.02,703.04c-2.28,1.3-4.59,1.19-6.92,.12,2.31-.04,4.61-.08,6.92-.12Z"/>
      <path class="cls-1" d="M703.06,703.93c-2.33,1.76-4.94,.7-7.45,.73,2.38-1.31,4.94-.76,7.45-.73Z"/>
      <path class="cls-1" d="M712.11,703.24c-.82,2.08-1.88,2.09-3.14,.36,.98-.67,2.05-.63,3.14-.36Z"/>
      <path class="cls-5" d="M722.12,697.99c.97-.04,1.95-.08,2.92-.13-.92,1.37-1.9,1.34-2.92,.13Z"/>
      <path class="cls-1" d="M687.09,704.95c-.31,.51-.65,.56-1.02,.05,.34-.02,.68-.04,1.02-.05Z"/>
      <path class="cls-5" d="M649.59,716.93c.01-1.67,1.43-2.94,3.03-4.16,.26,1.26-.15,2.75,2.87,2.99,2.27,.18,3.17-.76,4.22-1.78,2.04-1.96-.18-2.96-2.09-4.07,21.48-1.33,43.01-2.03,64.6-1.63-1.87,3.36-3.74,6.71-5.65,10.14,2.47,.53,4.2-.04,5.98-.11,8.53-.31,17.18-1.68,25.51,.73-.01,.27-.05,.53-.13,.8-26.36,1.1-52.71,2.19-79.07,3.29-7.61-.53-15.21,1.07-22.82,.02-.83-2.51,6.83-3.18,3.53-6.22Z"/>
      <path class="cls-5" d="M679.15,723.86c-.1,1.46-.2,2.93-.3,4.4-.29,.17-.58,.34-.87,.51-1.69-.14-3.37-.29-5.06-.44,.04-4.34,3.47-3.93,6.23-4.47Z"/>
      <path class="cls-5" d="M669.16,729.68c-.37,0-.74,0-1.11-.01,.38-.46,.74-.44,1.11,.01Z"/>
      <path class="cls-5" d="M667.04,729.8c-.25,.55-.5,.67-.75,0,.25-.02,.5-.02,.75,0Z"/>
      <path class="cls-1" d="M677.97,728.77c.29-.17,.58-.34,.87-.51-.24,.53-.48,1.07-.72,1.6-.05-.36-.1-.72-.15-1.09Z"/>
      <path class="cls-15" d="M775.93,522.15c-.02,.62-.03,1.24-.05,1.86-2.29,.24-1.99,1.83-1.68,3.34,1.9,9.22,3.82,18.44,5.73,27.66-3.07-.64-3.38-4.66-6.6-5.55-2.02,8.14-.5,16.32,1.77,23.37,1.7,5.27-.38,11.52,4.09,15.96,.56,.55-.37,1.07-1.01,1.25-1.5,.41-2.13,1.46-2.2,2.93,0,1,0,2,0,3-1.52,1.28-.7,3.06-1.02,4.6-.76,3.66-.3,7.72-3.01,11.79-.94-2.54,1.01-4.36-1.07-5.52,0-.6,.01-1.2,.02-1.8-1.16-3.6-.18-7.58-1.91-11.08-.57-6.32,1.12-12.76-1.01-18.99,1.04-18.04-3-35.89-2.04-53.92,3.29,.39,5.46-.09,4.15-4.33-.56-1.83,.12-3.92-.65-5.85-.97-2.45,.65-2.82,2.53-2.85,1.75,4.58,.89,9.9,3.97,14.12Z"/>
      <path class="cls-1" d="M699.09,723.14c19.9-1.2,39.77-3.01,59.69-3.72,1.41,.18,2.82,.36,4.24,.53-4.66,1.74-9.68,1.39-14.43,1.53-3.22,.09-6.33,.78-10.35,.4,2.97,1.78,5.71-.06,7.76,1.75-13.96,.7-27.97,.66-41.87,2.34-1.03-.09-2.06-.18-3.09-.26,.16-1.47-1.25-1.75-1.94-2.57Z"/>
      <path class="cls-5" d="M832.94,704.74c3.31,.69,6.85-.83,10.04,1.04-4.34,.17-8.39,4-12.99,1.06,.05-.44,.1-.88,.15-1.32,.94-.26,1.87-.51,2.81-.77Z"/>
      <path class="cls-12" d="M830.13,705.51c-.05,.44-.1,.88-.15,1.32-.98,1.59-3.31,.39-4.26,2.05,0,0-.34,0-.35,0-2.91-3.63-6.94-1.42-10.43-2.02,.01-.28,.02-.56,.03-.84,5.05-.17,10.11-.34,15.16-.51Z"/>
      <path class="cls-13" d="M832.89,703.91c-1.02-1.3,.51-2.61-.01-3.92,5,.63,10.01,1.26,15.01,1.88,.05,.64,.1,1.28,.16,1.92-5.05,.04-10.1,.07-15.15,.11Z"/>
      <path class="cls-5" d="M791.97,708.82c.29-.3,.58-.6,.87-.91,7.34-1,14.88,2.31,22.11-1.05,3.49,.6,7.53-1.61,10.43,2.02-.46,.66-.93,1.33-1.39,1.99-9.36,.57-18.81-1.42-28.12,.91-1.76,.44-2.36-1.68-3.87-1.84-.01-.38-.02-.75-.03-1.13Z"/>
      <path class="cls-2" d="M770.88,606.86c2.08,1.16,.14,2.97,1.07,5.52,2.7-4.07,2.25-8.13,3.01-11.79,.32-1.54-.5-3.33,1.02-4.6,2.29,4.71,1.77,10.08,3.48,15.1,.4-.82,.72-1.48,1.36-2.81,.67,7.99,1.05,15.24-1.54,22.39-6.17-2.89-6.45-2.75-9.36,4.32-1.64-4.26-1.4-8.77-1.81-13.2,1.94-4.79,.74-10.15,2.77-14.92Zm5.21,15.29c-1.15-.14-2.04,.33-1.7,1.24,.59,1.57,.3,3.83,2.61,4.34,1.2,.26,1.87-.43,1.91-1.61,.07-2.11-1.2-3.26-2.82-3.97Z"/>
      <path class="cls-2" d="M768.99,593.98c1.73,3.5,.75,7.48,1.91,11.08-3.7-3.17-1.18-7.4-1.91-11.08Z"/>
      <path class="cls-7" d="M754.03,702.66c.18-2.66-1.53-2.8-3.53-2.78-4.6,.05-9.2,.01-13.81,0-1.64,0-3.43,.23-3.69-2.15,.16-.32,.42-.48,.78-.48,1.47,1.12,2.96,2.99,4.32-.11,.62,.04,1.24,.08,1.86,.12,.4,.78,.78,.73,1.13-.04,8.91-1.21,17.96,.17,26.84-1.43,0,1.04-.01,2.09-.02,3.14h-11.49c.03,.54,.07,1.08,.1,1.62,3.84,.78,7.75,.32,11.64,.33,1.01,.77,.79,1.89,.83,2.94-.34,.07-.68,.13-1.02,.2-1.92-.87-3.93-1.13-6.02-.83-2.32-.1-4.63-.16-6.95-.22-.33-.11-.66-.22-.98-.33Z"/>
      <path class="cls-12" d="M768.99,703.83c-.04-1.05,.18-2.17-.83-2.94-.08-.65-.17-1.3-.25-1.95,0-1.05,.01-2.09,.02-3.14-.17-3.34-.35-6.67-.52-10.01,2.27,6.65,6.3,12.83,5.46,20.31-.26-.09-.52-.18-.78-.27-.43-1.59-2.34-.9-3.09-2Z"/>
      <path class="cls-12" d="M706.17,696.92c-1.85,0-3.7-.48-2.88-2.71,.78-2.11-.02-4.7,1.97-6.39,1.93,1.42,.33,3.5,.97,5.17,.38,1.64,1.79,1.62,3.03,1.88-.66,1.25-1.6,2.07-3.09,2.05Z"/>
      <path class="cls-16" d="M738.1,697.14c-1.36,3.1-2.85,1.23-4.32,.11,1.42-.59,2.87-.32,4.32-.11Z"/>
      <path class="cls-16" d="M741.08,697.23c-.35,.77-.73,.82-1.13,.04,.38-.01,.75-.02,1.13-.04Z"/>
      <path class="cls-3" d="M779.94,555.02c-1.91-9.22-3.84-18.44-5.73-27.66-.31-1.51-.61-3.1,1.68-3.34,1.76,6.67,3.51,13.34,5.27,20.01-.01,5.15,2.35,9.5,4.61,13.89,3.79,7.14,4.55,15.14,6.06,22.84,5.09,25.98,10.67,51.9,12.88,78.36,.81,9.74,1.61,19.48,2.41,29.22-2.76-.34-5.57-.45-8.26-1.07-5.72-1.33-11.01-.65-15.91,2.66-1.24-.62-2.48-1.24-3.71-1.86-1.37-.35-2.74-.7-4.11-1.06-.32-3.72-.64-7.45-.96-11.17,12.65-15,21.31-34.95,17.74-54.92-2.83-12.62-2.82-25.84-7.91-37.94-.81-9.4-1.6-18.81-4.07-27.97Z"/>
      <path class="cls-6" d="M784.01,582.98c5.09,12.1,5.08,25.31,7.91,37.94-3.7,.91-3.39-3.09-5.06-4.63-2.44,2.22-2.34,4.97-1.77,7.24,2.24,8.82-1.87,16.05-5.12,23.61-1.82,4.23-6.46,6.26-7.82,10.73-.78-5.31-1.56-10.61-2.34-15.92,.04-2.32,.08-4.64,.11-6.97,2.91-7.07,3.19-7.21,9.36-4.32,2.59-7.15,2.2-14.4,1.54-22.39-.64,1.32-.96,1.99-1.36,2.81-1.7-5.02-1.18-10.39-3.48-15.1,0-1,0-2,0-3,1.35,.62,1.97,1.68,2.01,3.16,.03,1.12-.14,2.58,1.54,2.59,1.42,0,1.78-1.36,2.15-2.43,.5-1.46-.05-2.92-.14-4.38-.21-3.19-.56-6.58,2.47-8.94Z"/>
      <path class="cls-4" d="M772.15,657.87c1.37-4.47,6-6.5,7.82-10.73,3.25-7.56,7.36-14.79,5.12-23.61-.57-2.26-.68-5.02,1.77-7.24,1.67,1.54,1.36,5.53,5.06,4.63,3.57,19.97-5.09,39.91-17.74,54.92-.68-5.99-1.35-11.98-2.03-17.97Z"/>
      <path class="cls-12" d="M779.24,688.07c1.24,.62,2.48,1.24,3.71,1.86,0,0-.02-.04-.02-.04,.16,3.12,.43,6.23,.63,9.35,.24,3.8-.39,8.18,5.81,7.53,.79-.08,1.73,1.33,2.6,2.06,.01,.38,.02,.75,.03,1.13-3.55,3.95-8.47,2.9-12.93,3.54-1.55-2.83-5.4-1.15-7.12-3.64,.36-.99,.71-1.98,1.07-2.98,1.22-.11,2.43-.22,3.65-.33,2.41-.91,2.32-2.99,2.35-5.02,.07-4.49,.15-8.97,.23-13.45Z"/>
      <path class="cls-1" d="M779.24,688.07c-.08,4.48-.16,8.97-.23,13.45-.03,2.03,.06,4.11-2.35,5.02-.51-6.51-1.02-13.02-1.52-19.53,1.37,.35,2.74,.7,4.11,1.06Z"/>
      <path class="cls-1" d="M773.01,706.88c-.36,.99-.71,1.98-1.07,2.98-3.06,2.72-3.81-2.36-6.22-1.84,2.3-.19,4.77,.11,6.36-2.18,.26,.09,.52,.18,.78,.27-.12,.29-.07,.55,.15,.77Z"/>
      <path class="cls-16" d="M709.07,689.88c-.14-.15-.28-.3-.42-.46,.31,.04,.32,.23,.38,.49,0,0,.04-.04,.04-.04Z"/>
      <path class="cls-10" d="M696.31,697.92c.02-.36,.04-.72,.05-1.08,.57,.01,1.14,.03,1.72,.04-.32,.81-.99,1.01-1.77,1.04Z"/>
      <path class="cls-7" d="M765.72,708.01c2.41-.52,3.16,4.56,6.22,1.84,1.72,2.49,5.58,.8,7.12,3.64-5.26,.92-10.72,.54-15.82,2.47-1.61,1-4.35,.53-4.46,3.46-2.55,.09-5.1,.18-7.66,.27-.86-.95-1.96-.76-3.05-.64-5.15-2.41-10.5-1.04-15.78-.73-1.1,.06-2.17,.64-3.7,.11,1.18-3.43,2.34-6.78,3.49-10.14,.31-.15,.62-.3,.92-.44,9.33-.04,18.65-.08,27.98-.12,1.57,.09,3.15,.19,4.72,.28Z"/>
      <path class="cls-16" d="M758.78,719.42c.11-2.92,2.86-2.46,4.46-3.46,2.98,1.5,6.12,.05,9.16,.49,1.7,.25,3.72-.63,4.89,1.43-4.36,3.46-9.5,1.48-14.27,2.06-1.41-.18-2.82-.36-4.24-.53Z"/>
      <path class="cls-4" d="M820.92,698.73c-10.07-1.05-20.22-1.53-29.9-4.93,1.86-2.27,5.57,.69,7.11-2.5,2.99,.26,5.98,.52,8.97,.78,5.39,2.24,11.25,1.56,16.81,2.7,1.05,.21,2.36-.37,3.02,1-.01,.37-.02,.74-.03,1.11-2,.6-4.85-1.52-5.99,1.85Z"/>
      <path class="cls-10" d="M807.11,692.08c-2.99-.26-5.98-.52-8.97-.77-5.02-1.03-10-2.38-15.2-1.41,0,0,.02,.04,.02,.04,4.9-3.32,10.18-3.99,15.91-2.66,2.69,.62,5.5,.73,8.26,1.07,0,1.25,0,2.5-.01,3.74Z"/>
      <path class="cls-1" d="M761,707.73c-9.33,.04-18.65,.08-27.98,.12,2.84-1.95,6.05-.98,9.04-.89,6.31,.19,12.7-1.11,18.94,.77Z"/>
      <path class="cls-1" d="M761.96,703.2c2.08-.3,4.09-.04,6.02,.83-2.17,.93-4.37,2.05-6.02-.83Z"/>
      <path class="cls-1" d="M755.01,702.99c1.33,.03,2.65,.07,3.98,.1-1.36,1.12-2.68,1.15-3.98-.1Z"/>
      <path class="cls-5" d="M690.03,711.39c-.34,.49-.68,.98-1.02,1.47,.34-.49,.68-.98,1.02-1.47Z"/>
      <path class="cls-16" d="M748.08,719.05c1.09-.12,2.19-.31,3.05,.64-1.04,.05-2.09,.11-3.13,.16,.04-.26,.07-.53,.08-.8Z"/>
      <path class="cls-2" d="M784.01,582.98c-3.02,2.36-2.67,5.76-2.47,8.94,.1,1.47,.64,2.93,.14,4.38-.37,1.07-.73,2.43-2.15,2.43-1.68,0-1.51-1.47-1.54-2.59-.04-1.48-.66-2.54-2.01-3.16,.07-1.48,.7-2.52,2.2-2.93,.65-.18,1.57-.7,1.01-1.25-4.47-4.44-2.39-10.69-4.09-15.96-2.27-7.06-3.79-15.24-1.77-23.37,3.22,.88,3.53,4.9,6.6,5.55,2.47,9.16,3.26,18.56,4.07,27.97Z"/>
      <path class="cls-7" d="M814.94,706.87c-7.23,3.36-14.77,.04-22.11,1.05,.31-.32,.65-.93,.94-.91,7.11,.61,14.08-1.8,21.2-.98,0,.28-.02,.56-.03,.84Z"/>
      <path class="cls-3" d="M782.93,689.89c5.2-.96,10.19,.38,15.2,1.41-1.54,3.19-5.25,.22-7.11,2.5-2.87,.25-5.27-1.47-7.98-1.92-.04-.66-.08-1.33-.11-1.99Z"/>
      <path class="cls-4" d="M776.09,622.15c1.62,.71,2.89,1.86,2.82,3.97-.04,1.18-.71,1.87-1.91,1.61-2.31-.51-2.02-2.77-2.61-4.34-.34-.91,.55-1.38,1.7-1.24Z"/>
      <path class="cls-16" d="M767.91,698.94c.08,.65,.16,1.3,.25,1.95-3.88,0-7.8,.46-11.64-.33-.03-.54-.07-1.08-.1-1.62h11.49Z"/>
    </g>
  </g>
</svg>