<?xml version="1.0" encoding="UTF-8"?>
<svg id="Layer_1" data-name="Layer 1" xmlns="http://www.w3.org/2000/svg" xmlns:xlink="http://www.w3.org/1999/xlink" viewBox="0 0 1564 2071.08">
  <defs>
    <style>
      .cls-1 {
        fill: #06283d;
      }

      .cls-2 {
        clip-path: url(#clippath);
      }

      .cls-3 {
        fill: none;
      }
    </style>
    <clipPath id="clippath">
      <rect class="cls-3" width="1564" height="2071.08"/>
    </clipPath>
  </defs>
  <g class="cls-2">
    <path class="cls-1" d="M527.44,1024.34c-32.58-1.02-66.42,.05-75.43-1.67,24.75-5.4,51.3-4.53,70.97-24.06-.05-.55-.11-1.09-.16-1.64-11.23-1.1-22.47-2.2-33.71-3.3,1.25-1.01,2.52-1.45,3.82-1.6,9.49-1.12,18.99-2.22,28.48-3.27,14.39-1.58,28.49-4.02,40.25-13.51,2.46-1.98,4.66-4.27,6.97-6.41-.16-.61-.34-1.23-.51-1.85h-30.38c6.33-7.59,14.54-9.96,22.72-12.41,7.51-2.27,15.14-4.24,22.49-6.95,4.13-1.53,7.81-4.3,11.7-6.51-.12-.65-.24-1.3-.39-1.95-3.6-.72-7.21-1.46-12.04-2.43,14.36-3.65,27.71-6.89,39.12-14.91-.07-.56-.13-1.11-.2-1.67h-16.69c2.78-2.41,4.33-3.76,5.88-5.1-.25-.48-.52-.95-.78-1.43-13.37,.69-24.39,8.44-36.71,14.22,1.67-3.41,2.95-6.03,4.8-9.79-7.69,1.14-12.94,4.15-17.51,8.35-4.44,4.08-8.58,8.5-12.86,12.77-.18-.18-.38-.37-.57-.55,2.47-4.49,4.95-8.98,8.09-14.69-18.75,3.06-23.98,20.32-36.47,28.63,3.5-6.29,7.03-12.58,11.08-19.84-20.5,1.81-26.45,19.34-37.99,30.3,.69-4.25,1.38-8.49,2.07-12.74-.51-.23-1.01-.47-1.53-.7-10.69,7.67-14.59,21.71-26.29,29.94,5.7-11.39,13.6-20.46,17.5-31.85-10.57,.53-19.47,3.57-25.29,12.56-3.64,5.63-6.74,11.65-10.59,17.13-3.15,4.49-7.04,8.45-10.59,12.65-.43-.35-.83-.68-1.25-1.03,.67-1.13,1.29-2.31,2.04-3.39,6.28-9.05,12.66-18.03,18.81-27.16,1.02-1.51,1.13-3.64,1.65-5.47-1.94,.15-4.18-.26-5.79,.57-6.2,3.23-12.2,6.88-18.3,10.33-1.46,.82-3,1.48-4.48,2.25-4.3,2.27-9.67,3.6-12.62,7.06-6.41,7.53-11.59,16.16-17.29,24.32-1.2,1.7-2.59,3.28-3.88,4.92-.41-.25-.82-.5-1.22-.75,2.6-6.32,5.2-12.64,7.8-18.96-.51-.41-1.03-.8-1.55-1.21-17.1,3.94-29.02,15.19-38.43,30.75-1-2.61-1.52-3.95-2.45-6.4-3.19,3.04-6.38,5.2-8.36,8.2-3.12,4.7-5.33,10.01-8.09,14.96-1.03,1.86-2.58,3.44-3.89,5.15-.45-.31-.92-.61-1.37-.92,1.61-5.01,3.22-10.02,4.95-15.39-1.6,.04-10.47,.26-24.37,.62,1.08-1.14,2.1-2.34,3.2-3.44-.2-.61-.42,.82-.62,.22-7.23-.43-14.47-.85-21.7-1.26,25.57-5.93,48.18-16.78,65.94-36.47-.09-.66-.19-1.33-.3-2.01-7.62-.38-15.24-.74-22.86-1.12,5.25-3.14,10.61-5.21,16.01-7.15,17.76-6.4,34.01-15.29,47.07-29.38,1.87-2.03,3.3-4.48,5.81-7.96-16.78,.01-30.57,7.04-45.61,8.09,18.32-10.05,37.29-18.95,51.52-35.97-16.52-3.54-28.8,7.41-43.28,9.64,2.67-2.25,5.49-4.33,8.55-5.89,11.58-5.91,23.27-11.58,34.83-17.49,1.78-.91,3.17-2.64,4.73-3.98-.19-.4-.4-.79-.58-1.19h-14.16c11.03-7.26,21.43-13.89,30.64-22.14-.23-.7-.45-1.41-.67-2.11-4.78,.31-9.54,.6-15.55,.97,8.04-5.01,15.07-9.38,22.09-13.76-.31-.64-.61-1.28-.93-1.92-4.98,1.25-9.95,2.5-15.27,3.85,.34-2.13,.6-3.87,.99-6.33-11.29,1.09-14.65,11.75-22.44,17.01-2.22-4.09-4.26-1.69-6.03,.52-1.82,2.26-3.38,4.76-4.99,7.2-5.52,8.42-11.01,16.85-16.52,25.28-.26-.14-.53-.29-.8-.42,.67-4.03,1.34-8.06,2.18-13.11-6.54,2.83-9.75,6.95-12.34,11.7-2.72,5-5.17,10.14-8.02,15.06-1.43,2.49-3.48,4.63-5.25,6.93-.23-.21-.48-.42-.72-.63,1.97-5.28,3.91-10.58,5.87-15.87-.44-.27-.88-.54-1.31-.81-1.37,.91-2.82,1.72-4.12,2.73-5.55,4.32-10.87,8.96-16.63,12.98-9.43,6.61-15.93,14.91-17.72,26.7-.5,3.35-2.15,6.51-3.27,9.75-.46-.12-.91-.24-1.37-.36v-19.36c-16.4,8.91-20.97,24.21-24.74,40.49-.62-.99-.93-1.25-.91-1.49,.16-1.88,.61-3.78,.54-5.65-.05-1.42-.38-3.15-1.26-4.08-.45-.47-2.68,.13-3.61,.88-9.89,7.83-22.74,12.27-28.41,26.93,.07-5.41-1.71-6.11-4.46-4.12-9.02,6.52-18.77,12.3-26.72,19.97-8.17,7.86-18.43,9.72-27.97,13.87,7.23-5.1,14.7-9.76,22.23-14.33,27.41-16.62,52.17-36.61,74.33-59.88,4.13-4.35,7.77-9.19,12.51-14.85-13.74-1.84-24.33,5.39-36.12,4.85,24.46-10.92,51.08-17.97,69.55-42.1-14.31-.76-26.76,4.21-39.75,3.6,20.82-6.02,41.63-11.91,58.54-27.93-6.35-.6-12.72-1.2-19.9-1.87,14.21-4.1,26.88-9.56,38.03-18.01-.09-.54-.18-1.09-.29-1.63-2.88-.6-5.77-1.21-8.65-1.81,8.47-2.58,17.46-2.78,25.45-6.55-.07-.57-.14-1.14-.22-1.7h-15.59c7.66-5.98,15.35-11.87,22.89-17.98,1.44-1.16,2.21-3.17,3.29-4.78-1.43-.73-2.85-1.47-4.09-2.11,3.82-2.45,7.76-4.87,11.55-7.48,.85-.58,1.36-1.86,1.65-2.93,.08-.34-1.24-1.58-1.66-1.46-3.93,1.19-7.68,1.17-11.83,.43-2.06-.38-5.01,2.55-7.11,4.48-6.48,5.94-12.72,12.11-19.3,18.44,.77-3.88,1.7-7.37,2.09-10.94,.14-1.24-.73-3.02-1.71-3.81-.54-.42-2.63,.45-3.45,1.29-1.77,1.83-3.32,3.92-4.7,6.08-3.34,5.18-6.54,10.46-9.8,15.69-.88-5.76,2.4-10.61,.76-15.83-.56-.32-1.14-.62-1.7-.94-8.75,11.36-17.5,22.72-26.25,34.07-.44-.3-.88-.6-1.32-.91,5.18-10.51,12.51-20.35,11.29-34.19-13.28,5.73-16.74,18.78-25.25,28.69,0-3.84,.22-6.45-.07-8.98-.22-1.88-1.14-3.68-1.75-5.52-1.71,.94-4.07,1.44-5,2.88-4.23,6.66-8.58,13.33-11.85,20.49-3.2,7.03-4.87,14.74-7.75,21.93-1.35,3.41-3.96,6.31-5.99,9.45-.61-.27-1.23-.55-1.84-.82,.86-7.08,1.73-14.15,2.66-21.86-6.86,1.58-11.62,5.26-15.08,10.18-3.34,4.76-5.68,10.23-9.1,16.61v-12.72c-6.19,2.27-8.01,7.47-10.86,11.87-2.09,3.22-4.62,6.21-7.35,8.91-4.61,4.58-9.75,8.62-14.27,13.3-6.56,6.8-12.79,13.92-19.09,20.96-11.22,12.56-25.4,22.43-33.92,38.72v-10.18c-4.11,2.27-7.34,4.01-10.53,5.82-3.23,1.83-6.41,3.76-9.63,5.64,26.13-19.44,50.09-40.86,70.2-66.41-.26-.73-.54-1.47-.81-2.21h-17.49c8.42-7.42,17.05-13.97,24.35-21.79,5.06-5.42,8.39-12.51,12.26-18.99,.66-1.09,.2-2.87,.25-4.33-1.45,.07-3.05-.26-4.31,.27-3.61,1.56-7.06,3.48-10.58,5.23-2.7,1.33-5.42,2.63-8.12,3.93-.21-.44-.44-.89-.65-1.32,3.56-2.61,7.2-5.13,10.7-7.82,10-7.66,19.45-15.86,25.24-27.45,.73-1.49,.55-3.44,.81-5.17-1.81,.03-3.67-.18-5.4,.16-1.47,.3-2.78,1.3-4.2,1.9-5.12,2.14-10.27,4.24-15.41,6.34-.11-1.43,.19-2.03,.67-2.44,12.94-11.26,23.51-24.49,31.58-39.69,2.93-5.51,5.51-11.3,2.89-18.57-7.75,6.11-14.95,11.77-22.15,17.44,.37-2.34,1.6-3.89,2.59-5.59,4.83-8.33,9.79-16.6,14.23-25.12,.98-1.89,.14-4.77,.14-7.18-2.12,.85-4.53,1.28-6.26,2.63-3.16,2.47-5.92,5.48-8.85,8.26,1.57-6.04,4.22-11.37,6.35-16.9,.88-2.22,.72-4.88,.9-7.34,.13-2.03-.63-4.39,.16-6.05,1.94-4.1,6.7-6.59,6.7-11.98,0-.69,1.83-1.3,2.71-2.1,1.08-.97,2.2-1.98,3.02-3.17,1.89-2.71,3.65-5.54,5.45-8.31,.64-.98,1.44-1.87,1.92-2.92,1.82-3.87,3.13-8.06,5.44-11.61,2.3-3.53,5.99-5.6,8.16-9.93,3.71-7.34,9.99-13.31,14.87-20.09,3.7-5.11,6.91-10.56,10.26-15.91,2.01-3.18,3.7-6.58,5.8-9.67,3.62-5.27,7.46-10.4,11.21-15.58,.7,.08,1.42,.15,2.12,.23,4.41,7.65,8.82,15.29,13.23,22.95,.33-.17,.66-.34,.99-.51-.4,2-.81,3.98-1.34,6.59,4.98,.15,4.18,2.91,3.24,6.17-.24,.89,1.27,3.25,2.17,3.35,4.26,.5,4.44,4.01,5.61,6.85,.77,1.82,1.51,3.66,2.26,5.48,.53-.11,1.07-.23,1.6-.35v11.26c.51,.21,1.04,.44,1.55,.65,1.74-2.11,4.01-3.97,5.13-6.38,6.37-13.81,6.4-27.69-.24-41.48-2.59-5.38-5.08-10.8-7.62-16.2,4.44,3.72,8.83,6.91,11.17,12.55,2.07,4.99,6.4,9,9.98,13.76,1.3-.54,3.03-1.26,4.63-1.92,0,5.74-.02,11.07,.03,16.39,0,.47,.36,.97,.64,1.37,2.71,3.82,5.52,7.57,8.13,11.44,1.9,2.87,3.54,2.62,4.65-.35,1.32-3.54,2.47-7.2,3.26-10.91,5.78-27.06-4.96-46-30.95-54.75-2.21-.75-4.44-1.51-6.65-2.26,.14-.49,.27-.98,.42-1.46,7.8,1.61,15.59,3.23,23.41,4.82,5.33,1.08,10.66,2.15,16.02,3.16,.6,.11,1.3-.33,1.95-.27,1.47,.1,2.95,.23,4.39,.56,2.47,.57,4.91,1.29,7.36,1.95,3.2,.91,5.57,4.98,9.62,.92,5.87,4.8,7.52,4.97,9.98,1.42,2.81,1.91,5.62,3.82,8.42,5.72,.35-.46,.7-.93,1.06-1.38-.95-1.84-1.89-3.7-2.84-5.54,2.42,1.32,4.22,3.13,6.1,4.83,2.65,2.42,4.45,2.39,4.5-2.45,2.64,4.08,4.16,2.59,4.91-.32,2.24,1.36,4.16,2.56,6.57,4.02,.32-1.78,.56-2.32,.45-2.75-.21-.82-.54-1.65-1-2.36-9.6-15.11-22.2-26.05-40.04-30.02-18.69-4.16-37.27-3.84-55.85,.6-4.96,1.19-9.95,2.22-14.94,3.33-.17-.44-.35-.87-.52-1.3,5.9-3.69,11.9-7.23,17.64-11.17,1.84-1.26,2.97-3.58,5-6.13h6.96c-.66-2.06-1.09-3.43-1.74-5.49,3.62,0,6.92,0,10.24,.01,1.43,0,2.85,.03,4.27,.04-.45-1.34-.87-2.7-1.37-4.02-.27-.69-.7-1.32-1.18-2.23,5.14,.32,8.67,10.28,14.26,1.82,2.51,1.03,5,2.06,8.77,3.6-1.02-3.34-1.53-4.98-2.14-6.96,11.93,9.08,13.71,9.53,16.57,4.61,2.67,.94,5.3,1.85,7.94,2.78,.32-.58,.64-1.15,.96-1.72-2.32-2.74-4.66-5.49-7.01-8.23l1.33-1.33c2.28,2.72,4.4,5.6,6.88,8.11,3.85,3.89,5.01,3.66,7.11,.05,3.74,.48,7.09,.91,10.43,1.33,.18-.7,.37-1.41,.55-2.1-11.35-13.87-25.39-23.95-43.31-26.7-36.67-5.65-62.64,8.56-75.94,46.09-4.07-23.16-12.51-41.53-31.99-52.64-18.13-10.35-37.1-17.05-58.4-12.16,6.46,5.48,12.18,11.88,21.31,11.47-.36,8.5,6.34,4.71,10.2,6.46-2.47,3.72-.29,4.66,3,5.92,3.37,1.29,8.55,3.33,9.01,5.79,1.16,6.23,6.53,4.55,9.35,7-2.84,6.66,3.79,5.72,6.26,8.02-3.17,6.03,3.18,6.77,4.87,9.26-2.87,9.46,7.74,12.1,8.89,19.67-2.99-.91-5.64-1.47-8.09-2.48-15.42-6.39-29.09-1.74-42.13,6.74-1.41,.92-2.74,2.19-3.6,3.6-.61,1.01-.9,2.84-.38,3.75,.46,.8,2.49,1.49,3.38,1.12,2.75-1.14,5.26-2.86,7.92-4.24,1.21-.63,2.57-1.39,3.87-1.41,3.95-.02,7.91,.25,11.85,.5,4.9,.31,9.78,.69,15.89,1.14-1.6,1.49-1.81,1.85-2.08,1.9-1.01,.2-2.03,.4-3.04,.42-11.74,.33-22.55,4.05-32.38,10.23-10.39,6.54-16.7,16.03-17.3,28.76-.05,1.13,.61,2.3,.94,3.46,.4,.24,.78,.49,1.17,.74,1.19-2.92,2.56-5.39,5.88-4.11,.19,.07,1.44-1.77,1.68-2.84,.51-2.17,.66-4.43,.98-6.83,.61,2.03,1.14,3.76,1.66,5.48,.66,.09,1.31,.17,1.95,.26,1-3.56,2-7.12,2.81-10.06,.33,.93,.83,2.42,1.74,5.08,1.86-2.56,2.99-4.09,4.13-5.65,1.39,.43,2.81,.86,4.35,1.32,.46-.76,.95-1.3,1.1-1.92,2.04-7.91,5.24-8.79,11.74-3.32,.71,.6,2.49,.96,3.03,.51,2.88-2.39,5.72-2.59,9.18-1.32,1.31,.48,3.21-.71,4.85-1.15,1.48-.4,2.93-.81,5.28-1.48-.7,1.78-.83,2.45-1.21,2.97-8.24,11.8-16.21,23.83-24.86,35.31-11.91,15.79-24.14,31.35-36.61,46.7-11.34,13.95-24.2,26.75-30.64,44.15-.11,.31-.75,.41-1.25,.66-.51-2.62-.99-5-1.74-8.78-4.61,5.69-6.26,10.98-7.13,16.58-.83,5.42-1.48,10.85-2.2,16.28-1.88-1.14-2.3-2.27-2.95-3.23-.82-1.19-1.85-2.23-2.79-3.33-.94,1.12-2.36,2.1-2.73,3.38-1.17,4.13-2.31,8.34-2.81,12.61-1.29,10.98-2.25,22-3.37,33.35-1.16-19.03-2.3-37.68-3.44-56.33-.64-.02-1.28-.04-1.92-.06-13.58,27.83-20.87,57.44-23.58,89.83-2.05-8.22-3.72-14.97-5.62-22.6-13.65,9.75-16.58,23.65-18.92,38.54-.88-2.46-1.54-4.32-2.45-6.91-1.71,1.43-3.29,2.24-4.15,3.54-4.56,6.83-9.81,13.37-13.21,20.77-9.6,20.86-19.03,41.77-32.27,60.62-4.3,6.12-8.89,12.03-13.34,18.03-.46-.19-.92-.39-1.38-.59-1.03-6.31-6.51-11.78,.07-19.16,14.68-16.45,27.07-34.74,37.55-54.24,3.08-5.72,5.22-11.96,7.56-18.07,.46-1.22,.29-3.57-.51-4.16-.87-.66-2.92-.22-4.23,.32-3.51,1.45-6.89,3.21-10.31,4.85,13.95-13.48,26.74-27.35,31.01-46.8-.5-.49-.98-.98-1.46-1.47-7.13,3.73-14.25,7.45-21.37,11.18,14.42-15.2,26.61-31.21,29.4-52.47-.52-.46-1.05-.93-1.57-1.38-6.55,4.71-13.11,9.43-19.68,14.15,5.54-8.54,11.46-16.69,16.31-25.45,3.27-5.9,5.28-12.54,7.36-19.03,1.14-3.59-1.23-5.26-4.61-4.53-1.71,.37-3.26,1.68-4.74,2.76-3.7,2.7-7.32,5.51-10.97,8.27,4.51-8,10.13-14.79,14.61-22.28,3.11-5.18,4.8-11.27,6.73-17.09,.41-1.19-.92-2.98-1.46-4.49-1.33,.53-2.9,.8-4,1.66-3.15,2.41-6.12,5.07-9.17,7.63,10.75-21.4,18.55-43.17,19.1-66.95-.95-.63-1.9-1.27-2.84-1.9-2.07,3.11-4.12,6.2-6.19,9.31-.47-.42-.93-.85-1.41-1.26,3.85-8.75,8.27-17.36,7.84-27.12-.49-.23-.98-.47-1.46-.7-3.59,2.91-7.19,5.82-10.79,8.74,2.56-10.19,5.98-19.69,9.14-29.29,.89-2.72,1.23-5.69,1.32-8.56,.03-.91-1.42-2.32-2.46-2.67-.7-.23-2.14,.77-2.79,1.59-.97,1.21-1.53,2.75-2.97,5.53-.36-2.45-.79-3.38-.53-4.01,1.23-2.99,2.09-6.43,4.14-8.72,3.65-4.05-4.73-5.77-1.26-9.35,.21-.21,.11-.72,.3-.98,1.43-1.86,2.88-3.69,4.5-5.75-3.91-3.67-3.08-7.41-.08-11.31,.68-.89,.63-2.45,.66-3.72,.08-2.99-.36-6.05,.08-8.97,.93-6.02,3.03-11.94,3.22-17.95,.14-4.71,.67-8.38,5.84-10.85-6.02-3.44-3.53-7.38-1.7-11.36,.55-1.17,.68-2.54,1.01-3.81l2.49-9.93c.38-2.41-.95-5.96,.26-7.58,3.21-4.3,4.12-8.25,2.61-13.44-.45-1.54,1.82-4.06,3.16-5.9,.68-.92,2.08-1.3,3.25-1.98-3.6-4.35-4.43-9.72-1.58-12.71,1.85-1.96,1.28-3.48,1.39-5.67,.21-4.13-.14-9.17,5.16-11.39,.7-.3,1.24-2.93,.75-3.89-2.1-4.01-1.15-9.17,2.74-11.2,2.09-1.09,2.92-1.83,1.53-4.25-2.68-4.62-.94-9.59,3.67-12.53,.96-.61,1.88-2.79,1.51-3.7-1.95-4.78-1.17-7.12,3.12-10.02,1.28-.87,2.7-4.03,2.22-4.64-3.25-4.04-.33-7.11,1-10.49,.94-2.38,1.51-4.92,2.56-7.24,1.38-3.1,.21-8.17,5.98-8.18,.4,0,1.55-3.04,1.08-3.64-3.13-3.93-.49-6.73,1.44-9.72,.72-1.13,1.63-2.17,2.21-3.37,2.44-5.05,7.14-9.27,5.84-15.73,7.07-2.3,4.79-9.45,7.19-14.16,2.2-4.3,4.44-8.57,6.68-12.85,.24-.45,.53-1.14,.89-1.22,6.12-1.29,5.98-7.52,8.84-11.37,.81-1.09,1.42-2.58,2.5-3.2,13.47-7.67,20.17-20.65,26.42-34.02,.57-1.22,1.54-2.26,2.31-3.38,.51,.21,1,.44,1.49,.66-1.03,4.24-2.31,8.43-2.99,12.72-.31,1.97-.14,4.88,1.06,6.08,7.51,7.52,15.34,14.75,23.17,21.95,1.55,1.41,3.57,2.28,6.86,4.32v-25.43c.76-.09,1.55-.17,2.31-.25,.93,5.44,2.64,10.88,2.62,16.31-.04,13.39,7.1,23.02,15.16,32.3,.88,1,2.65,1.2,4,1.77,.54-1.34,1.42-2.67,1.56-4.06,.23-2.39,.11-4.84-.03-7.25-.2-3.44-.69-6.87-.86-10.31-.14-3.26-.03-6.52-.03-9.78,.63-.02,1.25-.05,1.87-.07,.99,11.46,1.95,22.92,3,34.38,.6,6.62,4.18,11.26,10.31,15.65,4.63-14.59,5.46-28.86,7.56-42.86,.12,6.57,.56,13.12,.02,19.6-.78,9.28-2.56,18.48-3.28,27.77-.16,2.17,2.19,4.54,3.38,6.82,1.42-1.71,3.19-3.24,4.13-5.18,.95-1.96,1.12-4.32,1.55-6.52,1.54-7.93,3.02-15.87,4.54-23.81,.32,3.09,.15,6.13-.31,9.13-1.43,9.38-3.17,18.72-4.28,28.13-.25,2.03,1.63,4.31,2.53,6.48,1.42-1.55,3.5-2.87,4.12-4.69,1.62-4.66,2.6-9.56,3.83-14.36-.04,6.94-1.58,13.62-2.3,20.4-.2,1.92,1.97,4.1,3.05,6.16,1.38-1.55,3.58-2.89,4.02-4.67,1.93-7.83,3.36-15.78,4.98-23.68,.47,3.66,.13,7.22-.15,10.79-.54,6.71-1.19,13.41-1.51,20.13-.18,3.77,2.13,6.57,5.62,6.74,1.24,.06,3.44-3.32,3.88-5.41,3-14.58,4.37-29.22,3.02-44.22-2.63-29.31-13.21-55.21-31.14-78.12-5.93-7.56-12.66-14.47-18.64-21.98-1.57-1.97-1.2-5.48-2.72-7.53-2.3-3.14-5.25-5.93-8.35-8.34-7.77-6.08-15.77-11.86-24.04-18.02,.93-.19,1.53-.42,2.15-.43,16.94-.25,33.16-3.87,48.76-10.57,4.41-1.88,5.03-4.13,1.87-7.79-1.23-1.43-2.7-2.66-3.94-4.07-2.97-3.4-5.89-6.86-8.87-10.37,3.92,1.39,8.06,2.79,12.14,4.35,12.45,4.79,25.15,7.71,38.55,5.54,1.32-.21,2.53-1.26,3.8-1.92-.89-1.15-1.56-2.61-2.7-3.4-6.97-4.88-14.06-9.59-21.12-14.37,6.24,1.68,12.33,3.79,18.11,6.53,17.87,8.46,36.25,15.28,55.77,18.57,1.62,.26,3.42-.57,5.14-.89-.81-1.37-1.33-3.11-2.49-4.05-4.63-3.79-9.48-7.34-14.23-10.98-3.85-2.94-7.7-5.88-11.56-8.81,.3-.43,.58-.86,.87-1.28,3.75,2.16,7.5,4.33,11.27,6.48,9.5,5.45,18.92,11.03,28.58,16.2,2.19,1.18,5.15,.9,7.77,1.29-.59-2.5-1.17-5.01-1.8-7.5-.14-.57-.47-1.1-.72-1.65,6.33,4.95,11.52,10.92,17.39,16.08,8.36,7.32,17.19,14.11,25.94,20.96,1.39,1.09,3.48,1.26,5.55,1.95,.07-1.46,.32-2.11,.09-2.43-15.26-22.56-34.34-41.77-52.73-61.64,7.41,5.99,14.88,11.98,21.22,19.01,12.09,13.37,23.47,27.39,35.27,41.02,6.06,7,12.28,13.87,18.67,20.54,2.08,2.17,4.42,4.98,9.08,3.15-8.17-18.98-22.96-33.21-33.04-50.53,25.32,26.21,41.98,59.73,70.23,83.75-.43-4.97-1.27-9.79-2.63-14.45-5.55-19.13-13.31-37.3-23.41-54.45-11.17-18.94-23.61-36.93-40.26-51.29-9.16-7.9-19.19-15.03-29.62-21.13-17.24-10.07-35.79-17.06-55.7-19.87-21.28-2.99-42.5-2.37-63.81,.02-29.66,3.33-58.04,11.58-85.09,23.73-18.51,8.31-35.95,19.08-53.81,28.86-6.66,3.66-13.16,7.61-19.73,11.42,.12-1.29,.68-1.88,1.34-2.35,14.45-10.47,29.16-20.54,43.26-31.46,13.37-10.36,27.89-19.41,38.73-32.9,.98-1.2,3.33-1.88,4.99-1.8,6.12,.31,12.22,1.38,18.34,1.46,3.72,.04,7.43-1.23,11.16-1.9-1.11-3.48-1.49-7.49-3.48-10.36-5.12-7.39-10.96-14.28-16.53-21.38,6.24,1.09,12.87,2.67,19.58,3.3,9.49,.91,19.04,1.26,28.57,1.49,1.91,.04,3.87-1.6,5.81-2.46-1.12-1.6-1.92-3.66-3.41-4.7-5.6-3.92-11.4-7.56-17.18-11.23-2.36-1.51-4.84-2.83-7.25-4.24,6.41,.14,12.48,1.58,18.53,1.48,11.88-.18,23.77-1.11,35.63-2.02,1.52-.11,2.9-1.91,4.36-2.94-1.15-1.16-2.13-2.63-3.49-3.43-6.5-3.84-13.1-7.5-20.59-11.75,8.44,0,15.82,.53,23.09-.13,8.44-.78,16.83-2.46,25.18-4.09,1.71-.34,3.15-2.14,4.7-3.27-1.29-1.49-2.43-3.19-3.94-4.4-1.86-1.49-4.04-2.55-6.09-3.8h-90.22c-10.78,6.28-21.66,12.42-32.35,18.86-27.12,16.3-51.13,36.34-70.02,62.02-10.9,14.78-20.64,30.42-30.9,45.69-.64,.94-1.25,1.89-2.75,2.45,1.37-4.35,2.35-8.88,4.23-12.98,2.09-4.54,1.26-8.02-1.39-11.97-3.41-5.08-6.18-10.61-9.21-15.95,.4-.33,.79-.65,1.19-.98,2.22,2.56,4.44,5.09,6.62,7.68,1.01,1.17,1.82,2.5,2.84,3.67,3.78,4.33,5.7,4.16,8.23-.93,5.27-10.62,10.41-21.32,15.61-32,.33,.05,.81-.02,.96,.16,4.47,5.98,5.49,6.08,10.64,.49,4.87-5.29,9.76-10.59,14.38-16.12,3.34-4.02,3.94-8.43,1.3-13.44-2.95-5.62-5.5-11.51-7.76-17.46-3.05-8.09-8.94-13.73-15.14-19.18H96.37c1.23,1.15,2.27,2.83,3.72,3.37,11.31,4.22,17.37,14.56,25.32,22.95-1.5-1.06-3.01-2.08-4.48-3.19-1.51-1.12-2.92-2.37-4.44-3.47-2.77-2.01-5.48-4.12-8.41-5.87-3.97-2.37-6.51-1.39-7.65,3.1-.89,3.45-1.14,7.06-1.77,11.26-8.84-3.68-15.91-14.69-26.76-6.19-.62-.99-1-1.38-.93-1.53,5.55-10.37-1.81-15.24-8.44-20.44H0V1326.75H1564V148.38c-10.05,3.71-20.59,5.53-31.13,7.43-.11-.45-.22-.9-.35-1.33,10.49-2.99,21-5.99,31.47-8.97v-28.41c-2.45,4.74-8.23,4.14-12.28,6.35,3.78-2.57,7.54-5.12,11.31-7.69,.32,.42,.63,.85,.97,1.26V0h-129.78c-1.24,2.17-2.49,4.33-3.74,6.5,2.27,.8,4.61,2.41,6.83,2.27,8.06-.52,16.1-1.65,24.15-2.48,1.52-.16,3.05-.02,4.59-.02-.29,1.88,.09,4.8-.97,5.49-7.68,5.05-13.61,13.08-23.62,14.31-3.81,.47-6.98,8.43-5.63,13.58,.4,1.48,1.07,2.87,1.29,4.67-15.8-16.7-33.65-30.87-52.12-44.31h-101.5c-2.29,1.76-4.69,3.42-6.86,5.34-1.19,1.05-2.01,2.55-2.98,3.84,1.3,.97,2.46,2.4,3.92,2.84,11.26,3.33,22.76,4.35,34.45,3.17,5.5-.56,11.04-.95,16.57-1.41-1.85,1.82-3.95,2.88-6.03,3.94-6.57,3.33-13.18,6.57-19.65,10.07-1.11,.61-1.67,2.3-2.47,3.49,1.09,.71,2.11,1.89,3.29,2.08,7.58,1.14,15.18,2.84,22.8,2.9,12.13,.11,24.25-.91,36.27-1.45-.78,.45-1.81,.99-2.8,1.62-7.81,4.95-15.65,9.83-23.37,14.95-1.21,.8-1.74,2.66-2.59,4.02,1.28,.68,2.52,1.53,3.88,2,1.27,.45,2.67,.65,4.02,.71,14.03,.59,28,.21,41.75-3.2,3.64-.9,7.29-1.66,10.95-2.48-1.79,2.33-3.84,3.83-5.97,5.21-8.85,5.72-15.33,13.67-20.67,22.66-2.42,4.06-1.54,5.61,3.11,5.87,2.21,.12,4.51,.42,6.64-.02,9.49-1.93,16.02,1.76,20.48,10.16,1.91,3.62,4.51,3.81,7.34,.77,1.75-1.88,3.53-3.75,5.46-5.46,.96-.87,2.22-1.39,3.35-2.08,.35,.44,.7,.88,1.06,1.31-2.75,3.19-5.34,6.55-8.31,9.5-2.85,2.83-2.76,5.06,.06,7.83,7.35,7.22,14.52,14.64,21.81,21.93,3.82,3.83,7.74,7.57,11.63,11.34-7.6-3.62-14.31-8.27-21.21-12.59-25.16-15.78-51.54-29.16-78.76-40.9-24.72-10.64-50.38-17.96-77.19-19.38-28.52-1.5-56.89,.31-85.13,5.63-52.2,9.86-91.62,38.7-121.46,81.94-9.64,13.97-17.9,28.95-26.36,43.71-2.81,4.9-4.3,10.57-6.37,15.89,2.2,.34,3.41,.12,4.18-.58,6.15-5.46,12.5-10.71,18.22-16.6,17.21-17.74,33.99-35.91,51.34-53.53,6.74-6.86,14.54-12.67,21.86-18.96,.51,.53,1,1.06,1.49,1.59-1.54,1.05-3.3,1.86-4.57,3.18-16.14,16.63-32.23,33.3-48.22,50.06-1.16,1.21-1.53,3.19-2.27,4.8,.56,.42,1.12,.83,1.68,1.24,25.31-14.86,43.4-38.61,66.04-56.77-.94,1.74-2.17,3.14-3.47,4.46-7.61,7.73-15.3,15.34-22.75,23.21-1.73,1.84-2.63,4.5-3.9,6.79,.51,.44,1.03,.89,1.55,1.32,2.08-.97,4.35-1.66,6.2-2.95,13.6-9.51,26.99-19.32,40.7-28.66,9.37-6.39,19.12-12.2,28.71-18.27-9.6,8.78-19.91,16.38-29.98,24.29-1.97,1.53-3.01,4.23-4.49,6.39,2.53,.1,5.27,.93,7.55,.21,22.14-7.05,44.22-14.26,66.25-21.63,9.66-3.24,19.14-6.97,28.71-10.48-9.45,6.44-19.12,12.27-28.68,18.29-1.24,.78-1.95,2.46-2.91,3.74,1.25,.7,2.44,1.8,3.79,2.07,10.73,2.1,21.41,1.45,31.97-1.23,13.94-3.53,27.88-7.16,43.07-11.07-9.58,5.65-17.98,10.54-26.29,15.62-1.1,.67-1.61,2.33-2.39,3.53,1.1,.71,2.13,1.87,3.32,2.08,4.02,.7,8.09,1.3,12.18,1.51,12.46,.63,24.44-2.07,36.2-5.97,6.31-2.1,12.66-4.11,18.99-6.17-5.39,5.72-11.09,10.62-16.68,15.65-2.79,2.51-2.38,4.87,1.05,6.33,3.92,1.68,7.84,3.59,11.95,4.56,9.59,2.24,19.31,3.98,29.71,6.07-3.77,1.56-7.14,2.69-10.26,4.29-10.03,5.15-20.06,10.32-29.89,15.83-2.78,1.56-5.72,4.22-.24,7.37-6.73,5.7-13.27,10.93-19.47,16.55-23.42,21.25-39.81,47.02-49.08,77.56-5.12,16.89-5.18,34.06-4.38,51.34,.08,1.63,3.1,4.64,4.07,4.39,2.2-.58,4.11-2.68,5.87-4.44,.53-.54,.14-2,.21-3.03,.64-9.08,1.27-18.18,1.9-27.26,.98,1.04,.94,2.03,.99,3.01,.31,6.55,.56,13.09,1.05,19.62,.07,.95,1.19,2.42,1.97,2.53,.82,.11,2.31-.92,2.66-1.79,.81-2.04,1.37-4.26,1.62-6.45,1.02-9.09,1.87-18.2,2.8-27.3,.29,7.17,.16,14.22,.4,21.27,.05,1.41,1.5,2.76,2.3,4.13,1.24-1,3.11-1.74,3.6-3.03,1.38-3.5,2.23-7.24,3.23-10.9,2.24-8.15,4.44-16.29,6.67-24.44,.56,.15,1.14,.31,1.71,.45-1.52,8.11-3.13,16.2-4.48,24.33-.27,1.65,.39,3.45,.62,5.18,1.6-.78,3.64-1.18,4.72-2.42,4.86-5.55,9.63-11.19,14.04-17.12,2.07-2.78,3.42-6.18,4.7-9.47,2.57-6.58,4.87-13.27,7.27-19.91,.43,.15,.84,.3,1.25,.45-2.09,8-4.19,16-6.28,24,.53,.32,1.07,.63,1.6,.95,1.57-.76,3.4-1.22,4.66-2.35,7.33-6.48,14.15-13.6,21.86-19.55,6.65-5.13,9.7-11.52,10.94-19.53,.59-3.86,2.31-7.56,3.52-11.32,.7,.1,1.43,.19,2.14,.3,.26,4.36,.57,8.71,.8,13.06,.27,5.15,1.67,6,5.91,3.36,4.22-2.64,8.39-5.34,12.48-8.15,4.07-2.79,8.26-5.49,11.97-8.71,4.41-3.83,8.38-8.17,12.53-12.28,.35,.38,.69,.75,1.04,1.13-2.45,3.06-5.23,5.94-7.22,9.3-.87,1.46-.09,3.9-.05,5.91,1.63-.51,3.69-.54,4.83-1.59,3.65-3.4,6.94-7.17,10.39-10.79-2.84,5.82-8.12,10.07-8.6,17.62,2.23-.24,3.53-.39,5.15-.57-1.87,3.48-3.8,6.39-5,9.59-.66,1.79-.11,4.05-.11,6.11,1.56-.69,3.11-1.37,4.72-2.1-1.52,8.04-1.39,15.93,3.99,23.01,1.76-8.51-1.61-17.5,2.68-26.36,2.94,19.78,4.88,24.81,11.87,27.27-3.55-12.43-8.01-23.96-4.09-36.55,1.05,3.51,2.09,7.04,3.26,10.96,1.48-1.28,2.69-2.33,4.23-3.66,4.42,3.71,8.32,7.18,10.1,13.19,1.54,5.19,1.34,12.14,8.6,14.06,.57,.14,1.34,1.45,1.21,2.03-.79,3.42,2.24,6.9,1.9,8.68-1.1,5.71,.92,9.03,4.38,12.91,1.09,1.21-.59,4.96-1.04,7.76,5.42,4.21,5.34,4.18,2.93,12.19-.27,.92,.79,2.82,1.76,3.45,3.96,2.57,4.59,5.82,2.17,9.58-1.57,2.43-1.63,3.71,1.19,5.2,3.85,2.06,4.55,6.21,1.58,9.37-2.45,2.61-2.06,3.75,1.01,5.24,3.81,1.86,4.33,7.74,1.08,10.56-2.74,2.39-2.44,3.64,.97,4.91,3.71,1.39,4.82,6.4,2.02,9.11-2.63,2.56-2.73,3.83,.85,5.53,4.83,2.31,4.8,7.07,.35,10.1-.88,.59-1.87,1.76-1.85,2.65,.01,.81,1.38,2.34,2.05,2.29,3.94-.33,4.32,2.24,4.89,5.16,.59,2.97,.76,5.43-2.56,6.89-.7,.31-1.02,1.52-1.54,2.36,.65,.55,.98,.99,1.41,1.17,5.72,2.4,6.64,7.8,2,11.9-2.46,2.17-1.74,3.52,.89,5,4.57,2.57,4.91,8,.76,11.16-1.95,1.5-2.72,2.63-.21,4.2,5.34,3.37,5.75,7.83,1.05,11.84-2.03,1.73-2.51,3.33,.2,4.7,6.45,3.28,6.78,7.49,.9,12.19-2.41,1.92-2.37,4.46,.44,5,6.26,1.18,4.16,5.46,4.1,9.15-.05,2.58,.03,5.14-.02,7.72-.08,3.6,3.72,8.37-2.91,10.19-.27,.07-.48,2.89,.12,3.38,4.88,3.97,5.66,7.97,2.81,13.48-.6,1.15-.35,3.51,.47,4.54,3.3,4.12,2.86,9.96-1.09,13.43-.64,.57-.37,3.53-.11,3.59,5.44,1.26,4.65,5.67,4.01,9.15-.43,2.22-2.85,4.04-3.67,5.1,1.45,3.37,3.38,6.15,3.76,9.13,.59,4.7,.18,9.55,.11,14.34-.03,2.32-.26,4.63-.53,8.61-4.91-5.84-8.78-10.45-12.64-15.05-.84,.36-1.66,.71-2.49,1.07,.49,11.57,1,23.14,1.5,34.72-4.96-8-9.99-16.13-15.02-24.25-1.87,1.66-2.58,2.62-2.5,3.5,.62,7.36,.5,14.95,2.34,22.01,1.59,6.11,5.61,11.54,8.26,17.4,2.91,6.43,5.5,12.99,8.23,19.5-.52,.25-1.05,.51-1.58,.76-3.21-4.6-6.16-9.43-9.75-13.71-1.64-1.95-4.54-2.81-6.86-4.16-.88,2.64-1.81,5.25-2.59,7.91-.17,.61,.03,1.39,.23,2.05,2.48,7.7,4.69,15.51,7.59,23.04,2.2,5.71,5.28,11.07,7.97,16.59-5.58-4.74-10.11-10.26-14.89-15.55-1.23-1.35-3.29-1.94-4.96-2.89-.43,1.76-1.53,3.67-1.18,5.24,1.6,7.35,3.2,14.75,5.56,21.87,2.43,7.25,5.76,14.2,8.7,21.3q-4.13,1.39-5.61,12.78c-.71-1.56-1.2-2.6-1.67-3.64-2.1-4.65-3.62-4.98-7.63-2.05-4.34,3.18-3.57,7.31-1.8,11.15,4.84,10.5,10.04,20.82,15.09,31.22-1.38-.95-2.36-2.6-3.6-4-4-4.49-7.98-9.01-12.24-13.24-.98-.98-4.28-1.43-4.45-1.08-1.64,3.36-2.85,6.94-4.32,10.83,5.66,.34,5.59,.35,6.64,6.18,2.96,16.47,9.36,31.38,20.21,44.13,4.42,5.18,9.11,10.11,13.67,15.15-.12,.17-.24,.35-.38,.51-8.2-5.28-16.4-10.58-24.59-15.87-.44,.4-.89,.78-1.31,1.18,2.22,10.46,7.23,19.76,13.68,28.15,6.54,8.47,13.84,16.34,20.79,24.47-.19,.24-.39,.49-.58,.73-5.82-3.92-11.65-7.85-17.48-11.77-.5,.36-1.02,.72-1.52,1.09,1.41,4.29,2.43,8.75,4.28,12.83,11.51,25.53,24.21,50.35,41.41,72.56,4.53,5.85,4.41,8.07-.12,14.97-.87-.8-1.93-1.45-2.5-2.39-7.82-13.36-16.11-26.49-23.21-40.24-6.71-12.99-11.87-26.81-18.36-39.93-2.29-4.65-6.49-8.34-10.62-13.45-1.3,5.9-2.19,9.88-3.05,13.86,.1-19.3-1.13-38.07-13.58-55.53-1.5,3.11-2.35,4.88-3.22,6.65-2.15-12.62-5.28-24.77-8.87-36.8-.43-1.47-3.24-2.21-5.83-3.86,.96-16.54-.64-34.21-5-51.54-.89-3.55-2.75-7.22-5.16-9.9-1.98-2.18-2.04-4-2.4-6.62-1.02-7.12-2.84-14.15-4.82-21.08-.37-1.24-2.98-1.81-4.55-2.7-.64,1.87-2.12,3.94-1.76,5.59,1.19,5.39,.56,10.03-2.97,14.4-1.18,1.47-1.48,3.68-2.16,5.56-.6,1.64-1.18,3.29-1.76,4.94-1.67-1.21-4.06-2.06-4.9-3.71-3.11-6.12-5.67-12.5-8.48-18.77-1.15-2.56-2.41-5.07-3.62-7.61-1.82,2.03-3.66,4.05-5.84,6.48-1.99-4.37-3.59-9.11-6.14-13.27-14.39-23.51-28.74-47.03-43.58-70.24-16.14-25.26-32.97-50.06-52.62-72.74-5.56-6.43-10.87-13.07-15.13-18.21,3.79-.34,6.69,10.19,14.36,6.3,4.44,2.09,5.67,9.33,11.68,7.84,1.33,1.66,2.49,3.1,3.66,4.53,2.15-2.63,4.32-5.25,6.77-8.26-.18,2.65-.64,5.45-.48,8.21,.12,2.02,1.09,3.97,1.67,5.95,1.53-.71,3.05-1.43,4.56-2.14,.35,1.26,.77,2.79,1.19,4.32,.56,.37,1.13,.74,1.69,1.12,1.15-2.21,2.29-4.42,3.44-6.63,.44,.34,.87,.66,1.3,1-.12,1.49-.45,2.99-.31,4.46,.15,1.53,.76,3,1.16,4.51,1.29-.9,3.15-1.5,3.78-2.73,2.09-4.16,3.74-8.56,6.17-14.33-.71,5.85-1.36,10.26-1.71,14.7-.12,1.53,.52,3.11,.81,4.66,1.63-.62,3.68-.81,4.8-1.94,2.07-2.04,3.58-4.63,5.33-7.01,.55,2.74,.16,5.11,.15,7.48,0,1.19,.7,2.38,1.09,3.57,1.12-.61,2.71-.95,3.27-1.9,1.73-2.95,3.06-6.14,4.88-9.91,.29,5.15,.51,9.44,.73,13.73,.79,.17,1.59,.34,2.38,.5,1.69-4.12,3.37-8.26,5.36-13.16,.34,6.47,.51,12.15,1.01,17.81,.13,1.45,1.27,2.8,1.94,4.21,1.01-1.21,2.6-2.29,2.89-3.66,.88-3.97,1.22-8.06,1.76-12.11,.16,.03,.33,.06,.49,.09,.62,6.96,1.24,13.93,1.87,20.9,.63,.02,1.28,.05,1.91,.07,4.6-3.85,1.66-10.34,4.52-15.34,.7,5.06,1.11,9.72,2.08,14.27,.32,1.5,2.04,2.69,3.12,4.02,.72-1.35,1.63-2.65,2.11-4.08,.37-1.11,.21-2.4,.29-3.58,2.29,3.32,4.37,6.36,6.46,9.41,.46-.22,.93-.44,1.41-.65,.14-1.11,.64-2.32,.36-3.3-1.83-6.26-2.71-13.19-6.01-18.57-15.15-24.73-36.42-42.53-63.55-52.29-11.23-4.04-23.25-5.81-34.15-8.44,2,0,4.89,.12,7.76-.05,1.28-.07,3.47-.49,3.64-1.16,1.02-4.08,4.47-4,7.29-4.52,9.75-1.77,19.13-5.9,29.39-4.69,1.97,.22,4.08-.42,6.03-.99,1.12-.34,2.05-1.34,3.78-2.54-2.42-1.41-3.99-2.31-6.24-3.62,2.73,0,4.64,.2,6.48-.05,2.49-.35,6.43-.31,7.11-1.73,2.04-4.23,5.55-3.92,8.91-4.51,3.41-.6,5.76-1.85,3.84-5.55,4.51-.58,8.64-1.12,12.79-1.66,.05-.7,.1-1.41,.15-2.11-1.54-.77-3-1.92-4.64-2.27-38.74-8.31-73.64,3.78-107.83,20.63,9.24-6.5,18.86-12.19,28.49-17.85,4.95-2.9,5.12-4.54,.5-7.99,4.89-1.35,9.66-2.48,14.31-4.01,3.55-1.16,6.58-3.09,5.06-7.75,3.9-1.28,7.5-2.35,11.01-3.67,1-.38,2.24-1.35,2.41-2.25,.12-.67-1.18-1.73-1.99-2.45-.64-.58-1.49-.92-2.96-1.79,10.82-1.83,20.76-3.29,30.14-6.76-.03-.68-.06-1.36-.08-2.04-3.11-1.12-6.22-2.23-10.36-3.72,6.32-.54,11.46-.72,16.47-1.49,4.82-.73,10.1-.2,14.22-3.45,.03-.56,.06-1.11,.09-1.67-3.02-.82-6.06-1.65-9.09-2.47,5.59-.75,11.04-.75,16.5-.75,5.55-.01,11.12,.05,15.97-3.14,.07-.59,.14-1.19,.21-1.79-5.69-1.25-11.39-2.5-17.09-3.76,11.85-.66,23.97,3.04,35.31-2.22,.04-.72,.09-1.45,.13-2.16-3.98-.97-7.95-1.92-12.84-3.1,9.94-1.91,19.69,3.65,28.99-3.01-2.03-1.41-3.32-2.29-4.48-3.1,5.26-2.93,13.51,4,16.56-5.06,3.36-.86,6.54-1.66,9.7-2.47-.14-.87-.29-1.74-.43-2.61-39.67-9.07-78.7-7.88-116.62,9.16-37.48,16.84-66.8,43.13-87.89,79,.46-4.14,2.33-7.63,2.59-11.23,.38-5.3,3.19-9.06,5.88-13.11,1.72-2.59,3.43-5.37,.3-6.94,3.24-3.97,6.24-7.63,9.34-11.42-2.29-1.52-3.46-2.28-4.79-3.15,3.16-3.68,8.36-5.45,7.72-11.5-1.6-.42-3.15-.83-5.49-1.47,2.35-1.33,4.07-2.34,5.83-3.29,1.8-.98,3.77-1.7,5.43-2.87,5.12-3.64,5.03-5.54-.45-8.53,2.29-1.08,4.63-1.79,6.51-3.16,1.65-1.2,2.78-3.12,4.13-4.72-1.55-1.21-3.09-2.43-4.67-3.7,3.38-1.49,7.4-2.92,11.07-5,1.9-1.08,3.19-3.28,4.74-4.98-1.65-1.1-3.32-2.2-5.17-3.43,2.74-.97,5.57-1.65,8.08-2.97,1.65-.87,2.84-2.64,4.23-4.01-1.5-1.08-3-2.16-4.41-3.18,4.11-2.62,12.11,1.63,13.91-5.14,1.52-5.69,10.63-5.53,8.45-11.93,3.6-3.01,6.69-5.62,9.8-8.2,1.97-1.61,3.89-3.28,5.95-4.76,3.25-2.34,7.88-3.41,8.17-9.42-2.31,.15-4.21-.08-5.88,.44-8.64,2.69-17.29,5.37-25.8,8.42-25.2,9.05-47.59,22.22-64.73,43.73-12.72,15.96-21.25,33.56-25.13,53.68-3.14,16.16-2.38,32.26-.37,49.34-5.01-8.07-9.3-15.49-14.07-22.56-10.55-15.61-23.42-28.85-40.59-36.91-4.95-2.33-10.81-3.96-16.22-3.83-23.94,.56-42.65,11.92-57.41,30.51-1.32,1.67-2.28,3.61-3.42,5.43,.32,.46,.62,.93,.95,1.38,2.12-.8,4.26-1.6,6.49-2.44q2.67,2.84,8.11-4.27c-.23,2.15-.45,4.15-.66,6.17,.5,.24,1.02,.5,1.52,.74,1.98-2.34,3.97-4.67,5.74-6.78,.53,1.3,1.12,2.72,1.69,4.14,1.57-.81,3.37-1.36,4.65-2.51,1.79-1.59,3.18-3.61,4.74-5.46,.14,.14,.3,.3,.44,.45-1.36,2.47-2.74,4.95-4.1,7.43,2.3,.69,3.42,.53,4.44,.1,1.2-.5,2.3-1.23,3.44-1.87,.01,.58,.03,1.16,.05,1.74,2,.41,4.16,1.52,5.92,1.05,2.24-.6,4.14-2.47,7.64-4.73-4.22,6.86,1.21,9.13,3.66,9.59,3.23,.61,7.02-1.85,9.84-2.76v5.84c2.06-.34,4.2-.42,6.15-1.06,2.19-.72,4.23-1.93,6.33-2.93-.51,2.17-1.76,3.1-2.64,4.3-.91,1.26-1.47,2.8-2.17,4.22,1.71,.34,3.44,1,5.13,.92,2.06-.1,4.07-.83,7.5-1.6-2.37,2.59-3.67,4.01-6.27,6.87,6.04,.89,10.6,1.56,15.71,2.3-2.02,1.17-3.39,1.98-5.93,3.45,8.99,5.38,17.11,10.22,25.22,15.07-9.86-2.26-19.22-5.28-28.73-7.75-24.37-6.31-48.85-11.49-74.28-10.86-24.14,.59-46.69,5.89-66.85,19.8-4.8,3.31-9.45,6.83-14.18,10.25,.31,.55,.59,1.1,.89,1.66,6.75,1.64,12.44-2.6,19.81-5.18-2.91,2.47-4.63,3.92-6.34,5.38,.26,.53,.53,1.06,.8,1.59,12.29,.43,22.15-7.29,33.31-11.04-6.6,4.5-13.22,8.99-19.81,13.49,.33,.54,.66,1.08,.99,1.62,11.29,1.56,19.23-7.01,29.31-9.81-4.99,3.42-9.98,6.83-16.11,11.03,10.83,3.02,17.44-3.73,25.48-5.67-2.15,2.01-4.3,4-6.45,6.01,.23,.6,.48,1.2,.71,1.8,6.55-1.57,13.1-3.15,19.47-4.67,.03,4.03,3.2,2.34,5.9,1.75,2.06-.45,5.57-1.77,5.98-1.12,2.84,4.47,5.88,1.83,8.96,.91,1.02-.31,2.14-.3,3.22-.31,2.4-.04,4.99,.58,7.16-.12,4.04-1.3,7.84-3.36,11.74-5.11,2.68,1.47,5.57,2.36,8.19,1.83,14.67-2.91,29.1-1.87,41.7,1.22-23.07,2.01-47.85,3.8-72.53,6.37-37.21,3.89-68.09,20.33-92.38,49.22-1.11,1.32-1.92,2.89-2.88,4.35,5.57-.02,10.32-1.11,15.09-2.17,.77-.17,1.96-.57,2.32-.2,3.42,3.33,6.08,.63,8.49-1.26,5.16-4.06,10.07-8.44,15.09-12.7,.13,.13,.26,.26,.39,.4-3.79,4.41-7.59,8.83-12.17,14.14,9.25,0,13.43-6.58,19.48-9.71-1.57,2.23-3.14,4.47-5.35,7.62,9.14-.48,13-7.24,19.19-10.48-2,2.72-3.99,5.45-6.35,8.65,9.87,.48,13.06-8.21,20.05-12.69-2.08,3.73-3.65,6.57-5.62,10.13,8.37-1.04,11.98-6.62,16.32-11.32-.95,2.21-1.88,4.43-2.82,6.64,.48,.53,.97,1.05,1.45,1.57,3.85-2.4,7.69-4.82,11.66-7.31,.2,.95,.47,2.15,.91,4.13,7.88-4.22,15.28-8.19,22.72-12.16-.41,3.8,1.95,3.09,4.09,1.67,2.99-1.98,5.67-4.44,8.63-6.47,1.47-1.01,3.2-1.77,4.91-2.2,2.17-.55,4.51-.44,6.67-1,2.67-.68,5.23-1.77,7.85-2.68-1.98,2.9-4.38,4.77-6.8,6.6-8.87,6.75-18.27,12.89-26.52,20.33-20.7,18.69-29.53,43.11-30.73,70.58-.25,5.77,1.06,11.68,2.14,17.43,.22,1.23,3.58,3.09,3.74,2.93,3.05-3.22,6.92-5.69,6.61-11.36-.37-6.49,.49-13.04,.81-19.56,.15,0,.31,0,.45-.01,.31,5.27,.6,10.54,.91,15.8,.76,.07,1.53,.13,2.3,.2,4.67-5.74,2.98-13.24,3.79-21.06,.91,5.59,1.63,10.03,2.34,14.47,.64-.01,1.29-.02,1.93-.04,5.69-7.15,.46-16.54,3.9-24.87,.88,6.09,1.64,11.49,2.41,16.87,.65,0,1.3-.01,1.96-.01,5.69-6.18,.44-14.73,3.86-22.45,.59,3.55,.78,6.26,1.56,8.8,.46,1.52,1.81,2.76,2.77,4.12,.88-1.52,2.33-2.97,2.48-4.56,.26-2.93-.23-5.94-.48-10.15,1.27,1.49,1.62,2.02,2.07,2.41,1.48,1.27,2.98,2.5,4.48,3.76,.33-2.18,1.01-4.38,.88-6.53-.12-2.17-1.06-4.28-1.63-6.41,1.43,.15,1.85,.72,2.41,1.02,1.72,.9,3.48,1.68,5.22,2.52,.27-1.99,.89-3.99,.72-5.95-.19-2.73-.96-5.42-1.48-8.13,.49-.16,.97-.32,1.45-.47,1.22,1.77,2.27,3.71,3.72,5.27,.94,1.02,2.44,1.49,3.69,2.21,.41-1.54,1.33-3.17,1.09-4.6-.53-3.27-1.65-6.45-2.87-10.93,3.02,2.59,4.92,4.2,6.79,5.79,.39-.22,.77-.46,1.17-.68-.18-3.55-.37-7.11-.6-11.7,1.64,2.34,2.56,3.62,3.65,5.18,5.25-7.76,10.14-14.95,15.01-22.14l1.75,1.16c-2.01,3.73-4.06,7.43-6.02,11.2-8.45,16.26-14.72,33.13-13.45,51.95,.54,8.07,1.98,15.96,6.78,22.67,2.4-1.09,5.1-1.45,5.93-2.9,1-1.77,.43-4.46,.54-6.86,1.23,.55,2.26,1.01,3.54,1.57,.48-1.21,.58-2.65,1.23-2.98,4.9-2.55,3.32-5.8,1.42-9.39-.5-.96-.46-2.74,.1-3.66,1.2-1.97,2.9-3.62,3.59-4.45,2.74-.68,5.85-.87,5.99-1.6,.51-2.89,.42-5.67,3.38-7.56,.55-.36-.12-2.91-.47-4.4-.45-1.88-1.13-3.71-1.79-5.76,2.08,1.18,3.56,2.03,5.06,2.87,.38-3.16,.75-6.31,1.12-9.38,3.93,.91,5.24-.45,4.08-5.4-.59-2.54-1.3-5.05-2.05-7.93,2.54,.71,4.23,1.18,7.28,2.03-.93-5.29-1.64-9.39-2.43-13.94,5.58,2.8,5.37-.95,4.67-4.24-.79-3.87-.01-6.24,4.41-6.88,1.99,12.17,3.93,24.34,5.95,36.49,.95,5.71,1.91,11.42,3.14,17.09,.42,1.91,1.8,3.6,2.47,5.49,.81,2.26,1.33,4.63,1.97,6.95-.17,2.92,.19,5.36,3.83,6.6,.61,.21,1.48,1.52,1.31,2-1.46,4.16-.63,6.91,4.03,7.9,.5,.11,.56,1.67,1.14,2.19,4.32,3.82,1.66,12.06,8.76,14.06-1.57,5.63,3.41,8.33,5.42,12.36,.99,1.99,1.69,4.26,3.11,5.89,1.94,2.23,5.33,3.45,3.46,7.6-.21,.49,1.79,2.7,3.04,3.03,3.53,.93,4.9,2.79,4.01,6.39-.69,2.82-.15,4.67,3.29,4.91,3.17,.2,4.53,2.29,3.84,5.4-.85,3.83,.21,5.8,4.34,6.39,3.38,.48,5.81,2.12,3.68,6.43-1.74,3.47,.35,5.36,3.51,5.72,4.46,.53,5.92,2.96,5.19,7.11-.47,2.78,.19,4.53,3.35,4.17,4.03-.46,3.75,2.23,3.89,4.97,.12,2.22,.77,4.42,1.17,6.63,1.87-.47,3.76-.93,7.04-1.74,.12,2.91,.11,5.72,.4,8.49,.2,1.96,.54,4.02,1.43,5.69,.21,.41,2.89-.56,4.45-.85,.46-.08,.96,.05,2.18,.13-.29,1.58-.34,3.01-.8,4.3-1.97,5.38-.9,7.04,4.8,6.37,4.29-.51,6.46,2.65,6.03,5.32-1,6.27,2.5,11.21,3.37,16.85h6.29c.19-.46,.4-.91,.59-1.36,.92,1.52,1.83,3.04,2.72,4.53-2.01,1.31-3.74,2.45-5.93,3.89-1.2-2.28-2.45-4.65-3.71-7.03-3.52-2.77-4.99-8.21-12.34-8.92,4.88,13.99,9.36,26.87,14.02,40.27-1.68-2.52-3.21-4.57-4.5-6.77-5.4-9.19-12.5-16.83-20.82-23.31-1.37-1.06-3.53-1.07-5.33-1.57,.29,1.91,.16,4.03,.96,5.71,1.27,2.73,3.14,5.16,5.44,8.82-7.52-4.8-13.72-8.74-19.91-12.69-.59,.65-1.16,1.3-1.74,1.96,2.9,17.13,15.66,27.06,28.39,37.43-6.91-2.01-13.54-3.92-20.18-5.83-.2,.59-.41,1.18-.62,1.77,9.48,16.24,25.34,24.53,41.71,32.19l-.82,1.34c-7.16-2.22-14.31-4.45-22.47-6.99,.75,2.2,.88,3.06,1.29,3.74,1.44,2.35,2.82,4.76,4.49,6.92,10.05,12.98,22.07,23.52,37.09,30.31,4.05,1.83,7.89,4.16,11.82,6.27-.15,.35-.31,.69-.46,1.04-7.17-1.57-14.34-3.13-21.49-4.69-.27,.6-.56,1.21-.83,1.82,12.15,17.61,28.3,30.67,46.91,40.92-3.11-.35-6.21-.69-9.32-1.05-.16,.62-.33,1.24-.49,1.86,25.48,25.51,57.27,41.16,88.9,57.08-1.03,.17-1.84-.05-2.58-.41-14.43-7.11-28.85-14.22-43.26-21.36-3.16-1.56-6.47-3.95-7.2,2.39-2.16-3.05-3.58-6.21-5.96-8.24-12.38-10.56-25.03-20.8-37.51-31.22-3.49-2.92-6.74-6.15-10.18-9.13-6.61-5.71-13.29-11.36-20.47-17.48-.45,8.26-.83,15.21-1.22,22.17-.55,.18-1.11,.37-1.67,.55-5.38-16.12-7.23-34.67-27.05-42.22v15.4c-.48,.19-.97,.4-1.45,.59-1.52-18.45-14.13-28.02-27.87-38.05-.91,4.08-1.57,7.13-2.45,11.09-4.45-9.42-8.18-18.25-18.65-23.39,1.24,6.69,2.18,11.78,3.14,16.87-1.57-.59-2.25-1.53-2.96-2.42-3.98-4.93-7.82-9.99-12.05-14.69-1.11-1.24-3.4-1.39-5.14-2.04-.12,1.92-.62,3.93-.27,5.76,.44,2.25,1.59,4.36,2.44,6.53-.25,.16-.5,.33-.74,.49-8.47-8.43-16.93-16.86-25.4-25.3-.46,.34-.92,.66-1.37,1v7.25c-6.91-6.2-12.66-12.71-20.77-15.31-.42,.49-.86,.98-1.27,1.47,1.02,1.82,2.03,3.64,3.05,5.46-1.61,.46-3.22,.93-6.28,1.8,4.33,2.77,7.36,4.71,10.39,6.66-.07,.34-.15,.66-.23,.99h-7.3c-.17,.46-.36,.92-.54,1.38,9.27,6.35,18.52,12.72,27.85,19.12-3.24,.59-6.21,1.14-9.19,1.68-.04,.61-.07,1.22-.11,1.83,9.74,10.13,22.78,14.01,35.74,18.26-7.05,.64-14.32-2.47-21.52,1.73,13.21,14,30.53,19.3,46.58,26.83-9.28,.89-18.27-2.26-28.42-.07,13.48,17.06,32.02,23.62,49.95,31.14-.18,.45-.38,.89-.57,1.33-9.3-.78-18.59-1.57-27.89-2.36-.18,.73-.36,1.46-.53,2.19,14.08,18.22,34.44,26.16,55.49,32.96-.1,.54-.2,1.07-.31,1.6h-25.28c-.21,.68-.44-.67-.66,0,16.69,20.27,31.15,34.65,16.99,27.11-5.56-2.96-5.63-3.08-7.4,3.4-4.62-6.56-9.52-12.4-17.99-13.26-.89-.09-1.66-1.63-2.45-2.53-7.31-8.2-15.93-14.62-25.87-19.14-2.37-1.08-4.94-1.68-7.42-2.5-.48,.45-.97,.9-1.45,1.34,2.42,5.79,4.84,11.59,7.27,17.38-.5,.25-1.02,.51-1.52,.76-2.39-4.59-5.41-8.98-7.02-13.84-2.77-8.38-7.33-14.58-15.56-18.03-3.45-1.44-6.45-3.91-9.74-5.7-1.97-1.07-4.16-1.71-6.24-2.54-3.56-3.47-7.63-6.29-11.83-8.88-2.6-1.59-5.78-2.38-8.06-4.32-5.55-4.7-11.54-6.12-18.48-7.67-.47,.43-.94,.86-1.39,1.28,4.14,7.41,8.29,12.79,12.43,20.2-.51,.33-1.02,.64-1.54,.97-2.37-3.47-5.33-6.69-7.03-10.47-4.8-10.58-12.41-18.06-22.74-22.84-2.65-1.22-5.49-2-8.24-2.97-.24,.4-.48,.79-.7,1.19,4.25,6.84,8.5,13.67,12.76,20.52-.4,.26-.79,.53-1.18,.8-4.93-5.68-9.73-11.49-14.84-16.98-5.23-5.63-11.31-9.91-20.53-11.32,3.35,4.93,5.81,8.54,8.95,13.15-6.58-3.89-11.94-7.52-17.7-10.36-5.62-2.76-11.62-4.71-17.45-7.02-.3,.57-.58,1.15-.88,1.72,2.44,2.6,4.89,5.2,8.12,8.63-10.21-2.95-18.93-6.65-28.57-5.77,13.26,12.15,28.42,20.65,46.02,25.96-4.38,.98-7.87,1.75-12.65,2.82,13.58,12.39,30.84,9.98,44.29,17.39-.06,.54-.13,1.08-.19,1.62h-29.1c15.02,19.14,36.38,18.33,55.52,23.76-8.39,1.03-16.78,2.07-26.52,3.27,17.07,20.27,40.46,20.23,63.01,26.23-8.28,1.86-159.41,11.55-240.52,14.6s-55.66,3.97-87.15,3.05c-46.67-1.36-89.99-9.99-101.19-11.21-12.19-1.31-72.68,12.45-138.72,17.32-35.68,2.63-96.16-5.09-128.74-6.11Zm824.13-271.18c-6.37-8.22-12.76-16.41-19.12-24.65-15.3-19.87-31.47-39.13-45.64-59.8-14.06-20.52-26.61-42.16-38.87-63.88-9.42-16.7-13.61-35.28-14.63-54.53-.16-3.17-.51-6.33-.92-11.3,5.42,3.46,9.75,5.75,13.52,8.77,5.08,4.06,9.76,8.63,14.51,13.12,1.31,1.24,2.18,2.97,3.29,4.45,2,2.67,4.8,5.04,5.89,8.04,1.82,5.04,4.12,9.23,9.1,11.55,.33,.15,.44,1.36,.25,1.95-1.36,4.37,.21,6.13,4.61,7.12,1.48,.34,2.23,4.15,3.24,6.41,.73,1.68,1.31,4.89,2.04,4.91,3.87,.1,3.62,3.03,5.21,5.22,3.2,4.41,1.96,11.31,7.93,13.98,.68,.31,1.33,2.25,1.02,3.02-1.57,3.85,.51,4.76,3.58,5.69,3.41,1.04,5.55,3.53,4.74,7.43-.61,3.01,.75,4.33,3.24,5.51,3.23,1.52,5.13,3.73,3.44,7.88-.43,1.05,1.04,3.89,2.28,4.46,6.17,2.84,7.85,5.81,6.14,11.99-.7,2.58,.06,4.2,3.04,4.72,5.09,.92,6.63,3.51,4.93,8.26-1.17,3.22-.48,4.66,2.93,5.51,4.42,1.11,6.78,6.51,5.29,11.03-2.02,6.13-.79,8.37,5.41,9.66,3,.63,3.8,2.15,2.98,5.2-.68,2.59-.59,5.39-.83,8.09,1.43-.32,2.86-.64,4.54-1.01,.72,2.76,1.51,5.73,2.28,8.71-.39,.23-.77,.47-1.16,.7-1.9-2.78-3.81-5.56-5.72-8.34-2.14-1.34-4.28-2.69-6.43-4.03-.52,.2-1.05,.42-1.57,.63,2.25,11.28,8.34,21.55,9.43,33.5Zm7.28,61.77c-1.33-2.35-5.18-4.23-.06-8.91,.68,3.55,1.16,6.07,1.64,8.57-.53,.11-1.05,.22-1.58,.34Zm20.44,14.6c-5.25-13.31-18.89-20.52-21.65-36.77,2.48,1.55,4.45,2.29,5.74,3.68,3.87,4.11,7.3,8.68,11.36,12.58,.71,.67,3.64-1.02,6.21-1.83,4.89,4.78,3.3,13.55-1.67,22.35Zm13.22-74.62c-.38-4.49-.76-8.98-1.15-13.48,.59-.04,1.16-.09,1.74-.13,2.09,4.37-.82,9.11-.59,13.61Zm19.55,68.93c-.26,0-.53,.01-.8,.01v-11.76c.27,0,.54-.01,.8-.01v11.76ZM189.36,17.33c10.14,7.71,20.28,15.42,30.54,23.2-4.72,3.01-12.64,.09-15.74,8.47-5.38-11.09-16.37-18.5-16.57-31.31,.59-.12,1.19-.23,1.77-.36Zm-123.13,58.69l29.78,50.59c-11.84-13.1-31.61-46.17-29.78-50.59Zm-29.41,29.96c4.09,3.25,8.17,6.5,12.26,9.73-.32,.43-.63,.85-.95,1.27-4.14-3.18-8.3-6.34-12.44-9.51,.38-.5,.75-1,1.13-1.5Zm-4.31,32.08c17.89,6.08,35.74,12.26,53.59,18.43,.1,.03,.12,.3,.46,1.16-4.08-.94-7.8-1.66-11.46-2.64-12.49-3.35-24.98-6.75-37.44-10.21-2.28-.64-4.61-1.38-6.64-2.58-.77-.45-.75-2.27-1.11-3.47,.88-.25,1.89-.93,2.6-.69Zm27.03,55.6c-9.25,3.68-18.48,7.35-27.73,11.03-.36-.86-.69-1.71-1.03-2.57,8.58-5.71,18.6-7.3,28.75-8.46Zm-24.92-4.47l19.6-4.4c.08,.35,.16,.69,.24,1.04-6.56,1.51-13.1,3.01-19.65,4.52l-.19-1.16Zm-.57,28.25c.44-.16,1.05-.63,1.09-1.02,.96-8.13,8.14-9.15,13.58-11.09,7.59-2.69,15.73-3.82,23.85-4.98-8.07,5.62-17.44,8.78-25.17,14.81,9.44,4.49,15.71-3.62,25.09-5.36-4.12,2.39-6.96,4.05-9.82,5.71,.13,.61,.26,1.21,.4,1.82,7.89,.83,15.81,.97,23.61-1.63,7.88-2.64,15.68-5.52,23.94-7.94-29.49,27.28-53.2,59.66-77.93,91.15-.51-.23-1.03-.46-1.54-.69-.42-5.62-1.15-11.23-1.2-16.85-.17-18.32-.07-36.63-.13-54.93-.02-3.74-.12-7.39,4.23-9Zm30.46,576.12c-.09,9.29-.03,18.57-.03,27.86-.25,.02-.52,.05-.77,.07-.76-1.84-1.54-3.69-3.05-7.3-2.21,4.21-4.48,6.92-5.1,9.99-1.83,8.93-3.31,17.97-4.33,27.03-.86,7.52-.88,15.15-1.24,22.39-.93-7.59-1.87-15.5-2.83-23.42-.93-.43-1.83-.85-2.76-1.27-2,3.32-4,6.63-6.01,9.95-.62-.51-1.26-1.02-1.88-1.53,4.35-15.23,11.12-29.9,12-45.92-.55-.36-1.08-.71-1.62-1.07-6.18,4.93-12.36,9.85-18.54,14.77-.3-.2-.59-.42-.89-.62,.67-1.16,1.29-2.35,2.05-3.46,9.38-13.85,18.65-27.77,22.22-44.6,.14-.67,.47-1.35,.44-2.02-.12-2.42-.36-4.85-.55-7.26-2.53,1.02-5.28,1.67-7.48,3.17-2.52,1.7-4.52,4.15-6.77,6.27-.08,.07-.32-.02-.81-.07,5.92-17.34,15.19-33.67,15.73-52.45-.56-.39-1.11-.76-1.68-1.14-3.68,3.39-7.36,6.77-11.03,10.16-.4-.29-.79-.57-1.18-.87,.53-1.3,1.01-2.64,1.62-3.9,1.56-3.24,3.03-6.52,4.81-9.63,4.21-7.4,4.81-15.33,3.25-23.44-.48-2.41-2.29-4.56-3.49-6.83-1.9,1.23-3.81,2.45-6.51,4.2,5.83-23.11,14.87-45.42,17.37-69.21-.59-.36-1.16-.71-1.74-1.07-6.92,7.9-13.86,15.8-20.8,23.71-.26-.14-.54-.29-.81-.43,2.63-5.89,5.55-11.66,7.78-17.69,3.76-10.16,7.15-20.47,10.46-30.79,.49-1.54-.3-3.49-.49-5.25-1.68,.54-3.7,.65-4.97,1.69-3.56,2.9-6.83,6.17-10.97,9.06,4.71-14.35,8.47-28.85,11.54-44.51-9.97,1.75-10.72,12.23-18.54,15.4,.33-4.6,.73-8.79,.9-12.99,1.08-27.78,2.49-55.53,3-83.32,.35-18.94-.59-37.91-.97-56.87-.31-15.19-.02-30.42-1.15-45.56-.91-12.27,3.35-22.28,8.93-32.65,17.36-32.23,40-60.56,63.15-88.44,10.95-13.17,23.25-25.24,35.53-37.18,2.96-2.87,8.24-3.56,12.6-4.6,3.77-.9,7.76-.87,11.65-1.24,.85-.08,1.72-.3,2.53-.15,6.43,1.13,17.87,13.55,19.67,19.92,1.81,6.37,4.31,12.67,7.4,18.5,3.86,7.29,8.81,13.99,12.93,21.16,.91,1.57,1.08,4.39,.32,6.02-15.52,33.29-31.88,66.27-43.01,101.37-8.07,25.46-14.76,51.4-21.07,77.39-4.95,20.45-8.23,41.3-12.46,61.94-6.26,30.59-12.81,61.11-19.04,91.71-1.84,9.08-3.02,18.31-4.55,27.47-.19,1.15-.59,2.27-1.03,3.87-.8-.73-1.27-1.16-1.75-1.57-1.94-1.66-3.91-3.32-5.87-4.98-.48,2.42-1.5,4.89-1.36,7.28,.34,5.77,1.2,11.52,1.93,17.98-2.26-1.97-3.98-3.45-6.3-5.46-3.65,8.08-.85,15.96-2.17,23.88-.76-.66-1.19-1.11-1.68-1.46-1.19-.83-2.41-1.64-3.62-2.45-.81,1.43-2.11,2.76-2.37,4.29-1.23,6.96-2.52,13.96-3.17,21-1.02,11.13-.16,22.65-2.64,33.39-3.43,14.86-3.35,29.8-4.43,44.73-.26,3.56,.43,7.2,.7,11.06-4.54-.36-4.94,2.82-4.96,6Zm53.44,192.99c-.09-.51-.17-1.02-.25-1.53,3.8-1.66,7.62-3.32,11.41-4.98,.26,.63,.51,1.26,.76,1.89-3.98,1.54-7.95,3.08-11.92,4.61Zm178.7-.23c.7-.9,1.35-1.84,2.12-2.68,7.52-8.2,14.87-16.6,22.76-24.43,2.42-2.42,6.38-3.27,9.64-4.84,.36,.61,.71,1.22,1.06,1.83-11.6,10.29-23.2,20.58-34.79,30.87-.26-.25-.52-.51-.78-.76ZM1476.94,43.66c.14,.13,.29,.26,.43,.4-5.35,5.72-10.69,11.44-16.02,17.17-.32-.31-.63-.61-.94-.92,5.51-5.55,11.03-11.1,16.53-16.65Zm35.58,807.14c-1.28-5.14-2.59-10.28-3.88-15.43,.53-.14,1.08-.29,1.61-.43,1.47,5.09,2.92,10.19,4.39,15.28-.71,.19-1.41,.38-2.12,.57Zm14.06-33.77c-5.04-3.82-8.43-9.35-8.85-15.17-2-27.82-3.24-55.69-4.74-83.55,.35,.04,.69,.08,1.03,.12,5.67,18.32,11.33,36.64,16.8,54.3-3.11-3.52-6.84-7.75-10.57-11.97-.51,.19-1.01,.39-1.5,.58-2.78,19.2,3.79,37.19,7.83,55.69Zm26.68-368.1c.15,4.99,.53,9.98,.73,14.98,.13,3.38-.63,6.88,3.11,9.2,.88,.55,.93,2.83,.98,4.33,.13,3.78,.04,7.57,.04,11.33-4.17-2.31-4.99,.73-4.88,4.07,.17,5.52,.84,11.02,1.23,16.53,.51,7.29,.98,14.59,1.46,21.89-.59,.19-1.18,.39-1.76,.58-4.72-5.04-9.42-10.1-14.16-15.11-4.48-4.74-9.02-9.43-13.56-14.12-.6-.6-1.28-1.34-2.04-1.53-2.15-.51-4.36-.76-6.55-1.11,.62,2.08,.79,4.48,1.94,6.2,8.58,12.79,14.42,26.71,15.47,42.15,1.19,17.52,3.52,34.67,10.61,50.88,.34,.76,.5,1.62,.75,2.45-.47,.08-.82,.27-1,.16-1.89-1.19-3.77-2.42-5.64-3.65-.29,2.43-1.34,5.1-.71,7.26,3.31,11.41,7.02,22.7,10.63,34.01,.93,2.95,1.99,5.87,2.08,9.4-2.07-3.12-4.21-6.18-6.18-9.35-3.91-6.29-7.62-12.72-11.66-18.92-.88-1.33-2.8-1.95-4.25-2.9-.34,1.73-1.23,3.56-.94,5.17,3.47,19.54,7.11,39.05,10.72,58.56,.3,1.59,.62,3.17,1.23,6.21-4.59-4.64-8.06-8.14-11.53-11.63-.68,.32-1.34,.64-2.03,.96,.18,3.81-.19,7.74,.63,11.38,3.76,16.67,7.86,33.26,11.84,49.87,.2,.82,.41,1.64-.32,3.04-2.1-3.32-4.19-6.64-6.29-9.96-5.45-8.67-10.97-17.29-16.32-26.03-.79-1.31-1.27-3.19-1.09-4.7,1.66-13.35,3.82-26.65,5.16-40.03,.7-7.06,.19-14.27-1.93-21.1-.53-.18-1.07-.37-1.6-.55-2.09,3.03-4.15,6.07-7.13,10.42,0-3.33-.05-5.11,0-6.9,.59-19.68,2.32-39.4,1.55-59.03-1.26-32.41-3.71-64.79-6.46-97.12-2.27-26.64-5.15-53.25-8.8-79.73-2.85-20.66-6.78-41.2-11.17-61.59-6.84-31.78-16.7-62.68-28.52-92.93-.75-1.91-.55-4.4-.17-6.52,1.43-8.06,2.56-16.01-1.39-23.82-.54-1.05,.37-3.9,1.43-4.54,3.62-2.21,7.49-4.8,11.54-5.35,3.22-.45,7.6,.95,10.08,3.13,6.29,5.51,12.41,11.43,17.49,18.06,25.15,32.79,45.81,68.3,61.41,106.74,.95,2.35,1.8,5,1.73,7.48-.8,27.43-1.69,54.86-2.82,82.28-.16,3.77-2,7.42-2.66,11.21-.46,2.68-.38,5.49-.3,8.24Zm-10.53-257.94c6.74,1.72,13.49,3.44,20.24,5.17-.14,.55-.29,1.1-.42,1.65-6.71-1.86-13.42-3.73-20.13-5.6,.1-.41,.2-.81,.31-1.22Zm20.26,20.6c-9.22-4.02-17.82-7.8-26.72-11.69,8.95-.81,24.35,5.72,26.72,11.69Zm-23.46,10.92c2.58,.91,5.57,.62,8.35,.99,1.12,.15,2.18,.83,3.29,.89,1.7,.07,3.41-.19,5.12-.32-.78-1.58-1.16-3.81-2.42-4.62-5.03-3.23-10.36-6.01-15.54-8.99-.84-.48-1.56-1.12-2.34-1.69,.34-.51,.65-1.01,.97-1.52,7.68,4.54,15.35,9.07,21.85,12.91,4.68,19.3-.66,36.94-.75,55.84-17.62-23.11-34.62-45.44-51.74-67.92,5.29,2.42,10.71,4.97,16.19,7.37,5.63,2.46,11.24,5.01,17.02,7.06Zm2.35-145.65c-12.22,18.29-24.7,36.37-37.14,54.51-.18,.27-.48,.47-.72,.69-.34-.13-.67-.26-1-.4,5.78-10.48,11.44-21.04,17.39-31.42,5.2-9.1,10.65-18.08,16.21-26.97,.69-1.12,2.75-1.37,4.16-2.03,.42,1.9,1.84,4.51,1.1,5.62Z"/>
    <rect class="cls-1" y="1028.41" width="1564" height="1042.67"/>
  </g>
</svg>