<?xml version="1.0" encoding="UTF-8"?>
<svg id="Layer_1" data-name="Layer 1" xmlns="http://www.w3.org/2000/svg" viewBox="0 0 1536 1024">
  <defs>
    <style>
      .cls-1 {
        fill: #b7846b;
      }

      .cls-2 {
        fill: #f6d09d;
      }

      .cls-3 {
        fill: #3d343b;
      }

      .cls-4 {
        fill: #3c333a;
      }

      .cls-5 {
        fill: #dfab7c;
      }

      .cls-6 {
        fill: #f4edcc;
      }

      .cls-7 {
        fill: #fdd898;
      }

      .cls-8 {
        fill: #80605c;
      }

      .cls-9 {
        fill: #f4d3a1;
      }

      .cls-10 {
        fill: #fdfdfd;
      }

      .cls-11 {
        fill: #b88866;
      }

      .cls-12 {
        fill: #7f6b5f;
      }
    </style>
  </defs>
  <g id="z-40">
    <g>
      <path class="cls-6" d="M1153.99,701.09c6.8-4.66,11.37-11.67,18.12-16.59,4.27-3.1,7.77-7.37,12.86-9.51h5.99c.64,1.33,3.05,.79,3,2.84-2.03,.62-4.06-2.47-6.1-.01-.85,.11-1.71,.21-2.56,.32-3.02-.15-5.11,1.67-6.64,3.8-4.08,5.65-7.99,11.42-12.67,16.6-3.99,1.45-7.97,2.9-11.96,4.35-.01-.6-.02-1.2-.03-1.8Z"/>
      <path class="cls-3" d="M1187.86,677.83c2.04-2.46,4.06,.64,6.1,.01,3.91-.17,6.64,1.72,8.55,4.96,2.71,4.6,5,9.38,5.51,14.8,.56,5.99,2.88,11.18,6.95,15.62,2.69,2.94,5.34,5.93,6.11,10.07,.48,2.59,2.2,2.25,4.15,1.7,4.24-1.2,6.94,.59,8.73,4.5,1.22,2.67,.48,3.7-2.26,3.73-5.99,.06-11.97,.2-17.96,.12-9.64-.13-19.28-.41-28.91-.62-5.56-1.97-11.51,.07-17.5-1.31,2.93-3.24,6.28-3.26,9.78-3.71,3.44-.43,7.75,3.21,9.3,.66,1.51-2.48-.28-6.96-.62-10.56,.55-6.3-.41-12.55-.68-18.82,4.53,.3,6.18-1.23,5.11-6.15-1.07-4.92-3.03-9.79-2.38-15.01Z"/>
      <path class="cls-8" d="M1185.8,717.81c.34,3.6,2.13,8.08,.62,10.56-1.55,2.56-5.86-1.09-9.3-.66-3.5,.44-6.85,.46-9.78,3.71,5.99,1.38,11.94-.66,17.5,1.31-7.26,0-14.52,.02-21.78,.03,.48-2.79-1.36-4.17-3.35-5.41-5.83-3.65-8.63-9.15-9.73-15.71-.61-2.63,.02-4.86,2.09-6.65,7.21,5.69,8.06,14.96,12.71,22.38,1.59-2.04,3.37-3.47,6.04-1.25,1.69,1.4,2.41-.48,2.83-1.55,2.2-5.68,6.39-7.59,12.16-6.76Z"/>
      <path class="cls-9" d="M1152.08,704.99c-2.07,1.78-2.7,4.02-2.09,6.65-.64,.12-1.28,.25-1.92,.37,.07-2.21-1.76-3.42-2.75-5.06-.49-.82-1.76-1.32-2.18,.2-2.58,9.19-8.44,16.58-13.28,24.54-1.24,.35-2.8-.34-3.72,1.11-4.26-1.82-8.45,1.07-12.71,.18-1.67-.35-3.66,.5-4.45-2.08-.85-2.78,1.38-3.05,2.81-3.84,2.61-1.43,5.28-2.81,8.32-3.16,.3,.71,.63,.75,.97,.03,.66-.03,1.31-.05,1.97-.08,1.93,1.96,4.47,1.5,5.74-.05,5.05-6.16,10.18-12.32,13.31-19.79,4.72,2.09,8.37-.21,11.91-2.92,.01,.6,.02,1.2,.03,1.8-.65,.7-1.3,1.4-1.95,2.1Z"/>
      <path class="cls-3" d="M1148.07,712.01c.64-.12,1.28-.25,1.92-.37,1.09,6.57,3.9,12.06,9.73,15.71,1.98,1.24,3.83,2.62,3.35,5.41-3.39,0-6.79,0-10.18-.01-5.51-1.84-11.21-.38-16.79-.94,3.08-1.83,3.73-5.45,5.88-7.96,1.07,.41,2.17,.74,3.19,1.24,1.7,.85,3.45,1.49,5.03,.01,1.57-1.47,1.01-3.35,.42-5.06-.7-2.01-1.56-3.96-2.36-5.94-.06-.7-.12-1.39-.18-2.09Z"/>
      <path class="cls-6" d="M1142.09,704.02c-3.12,7.47-8.26,13.64-13.31,19.79-1.27,1.54-3.8,2.01-5.74,.05,4.79-6.25,9.55-12.52,14.39-18.73,1.17-1.5,2.99-1.17,4.65-1.11Z"/>
      <path class="cls-8" d="M1136.09,731.8c5.58,.57,11.28-.9,16.79,.94-8.92,.02-17.83,.03-26.75,.05,.92-1.44,2.48-.75,3.72-1.1,2.08,.04,4.16,.07,6.23,.11Z"/>
      <path class="cls-6" d="M1121.07,723.93c-.34,.72-.67,.68-.97-.03,.32-.01,.65,0,.97,.03Z"/>
      <path class="cls-1" d="M1152.08,704.99c.65-.7,1.3-1.4,1.95-2.1,3.99-1.45,7.97-2.9,11.96-4.35,.38,7.16,6.24,14.09,.84,21.55-.62,.86-1.55,2.11-.56,4.12,1.4-2,2.55-3.73,3.8-5.39,5.57-7.42,8.7-16.27,13.95-23.88,1.93,.92-1.06,3.19,1.12,4.05,.27,6.27,1.23,12.52,.68,18.82-5.77-.83-9.96,1.08-12.16,6.76-.42,1.07-1.13,2.95-2.83,1.55-2.67-2.22-4.45-.79-6.04,1.25-4.65-7.42-5.49-16.69-12.71-22.38Z"/>
      <path class="cls-9" d="M1184.01,694.94c-5.25,7.61-8.38,16.46-13.95,23.88-1.25,1.66-2.4,3.39-3.8,5.39-1-2.02-.07-3.26,.56-4.12,5.4-7.45-.46-14.38-.84-21.55,4.68-5.19,8.59-10.96,12.67-16.6,1.54-2.13,3.62-3.95,6.64-3.8,.13,3.52,.26,7.05,.39,10.57-.68,.66-.73,1.46-.54,2.32-.38,1.3-.76,2.61-1.14,3.91Zm-7.2-2.63c-.39,2.36-1.65,3.93-3.21,5.48-.87,.86-.97,2.51,.03,3.63,.64,.72,1.81,.48,2.04-.33,.78-2.82,2.84-5.45,1.15-8.78Z"/>
      <path class="cls-8" d="M1184.01,694.94c.38-1.3,.76-2.61,1.14-3.91,.75-.64,.85-1.43,.54-2.32-.13-3.52-.26-7.05-.39-10.57,.86-.11,1.71-.21,2.56-.32-.65,5.22,1.31,10.09,2.38,15.01,1.06,4.92-.58,6.45-5.11,6.15-2.17-.85,.82-3.13-1.12-4.05Z"/>
      <path class="cls-1" d="M1136.09,731.8c-2.08-.04-4.16-.07-6.23-.11,4.84-7.95,10.7-15.35,13.28-24.54,.43-1.53,1.69-1.02,2.18-.2,.99,1.63,2.82,2.85,2.75,5.06,.06,.7,.12,1.39,.18,2.08-2.9-1.31-5.91-1.46-6.54,2.19-.4,2.33-1.39,5.11,.26,7.55-2.15,2.51-2.8,6.13-5.88,7.96Z"/>
      <path class="cls-8" d="M1141.97,723.84c-1.65-2.44-.65-5.22-.26-7.55,.62-3.66,3.64-3.51,6.54-2.19,.79,1.98,1.66,3.93,2.36,5.94,.6,1.71,1.15,3.59-.42,5.06-1.58,1.48-3.33,.83-5.03-.01-1.02-.51-2.12-.84-3.19-1.24Z"/>
      <path class="cls-1" d="M1176.81,692.31c1.69,3.33-.37,5.96-1.15,8.78-.22,.81-1.4,1.05-2.04,.33-.99-1.11-.89-2.77-.03-3.63,1.57-1.55,2.82-3.12,3.21-5.48Z"/>
      <path class="cls-1" d="M1185.69,688.72c.31,.89,.21,1.68-.54,2.32-.19-.86-.14-1.66,.54-2.32Z"/>
    </g>
    <g>
      <path class="cls-10" d="M519.97,732.54c3.89,.02,7.77,.04,11.66,.06,4.97,.07,9.94,.16,14.91,.19,.93,0,2.18,.27,2.57-.92,.36-1.1-.66-1.77-1.34-2.44-2.66-2.64-6.24-3.07-9.63-3.44-6.31-.69-11.51-3.19-16.47-7.2-3.14-2.53-5.51-7.38-10.98-5.86-2.97-.03-5.93-.05-8.9-.08-.29-1.87-1.72-1.89-3.13-1.94-3.14-2.05-5.22-.3-7.14,2-3.64,1.06-5.29,5.09-9,6.05-2.15-1.25-2.82-3.59-4.15-5.45-4.2-5.89-8.45-11.8-15.53-14.68-1.05,.06-2.11,.13-3.16,.19-2.36-.4-4.52,.41-6.79,.93-8.99,2.06-14.66,9.3-21.97,13.95-4.43,2.81-10.34,4.33-12.29,10.26l-.36,.19s.29,.25,.29,.25c-.01,.81-.02,1.61-.03,2.42-.93-.24-2.19-.17-2.75-.76-4.78-5.14-10.74-9.1-14.93-14.85-1.99-2.74-4.16-5.34-7.96-2.47-3.92-.84-6.77,1.81-10.04,3.06-3.01-6.89-7.57-12.59-12.7-18.06-2.7-2.89-4.57-2.92-7.28-.87-1.95,.38-3.89,.91-5.85,1.12-5.76,.62-9.33,3.63-11.14,9.16-1.21,3.7-2.98,7.22-4.61,11.05-.73-.62-1.25-1-1.71-1.45-6.06-6.01-9.02-6.03-14.88,.15-4.34,4.57-8.56,9.25-12.83,13.88-.7,.33-1.17,.83-1.21,1.64-.68,.68-1.36,1.36-2.04,2.04-.71,.05-1.28,.42-1.11,1.13,.18,.77,.78,.85,1.37,.28,3.96-.04,7.91-.09,11.87-.13,.4,.59,.82,.63,1.27,.06,5.96,.2,11.91,.39,17.87,.59,8.62,.7,17.25,.56,25.88,.34,1.37-.06,2.74-.11,4.11-.17,.64-.01,1.28-.03,1.92-.04,4.36-.07,8.72-.15,13.08-.22,11.99,.62,23.98,.63,35.97,0l.38,.19,.42-.03c2.4,.03,4.79,.07,7.18,.1,4.95,.03,9.91,.11,14.86,.07,15.35-.13,30.71-.31,46.06-.47,4.32,.06,8.64,.12,12.96,.17,5.76,.59,11.52,.37,17.28,.03Z"/>
      <path class="cls-4" d="M311.86,726.96c4.27-4.63,8.49-9.31,12.83-13.88,5.86-6.17,8.82-6.16,14.88-.15,.45,.45,.98,.84,1.71,1.45,1.62-3.83,3.39-7.35,4.61-11.05,1.81-5.53,5.37-8.54,11.14-9.16,1.97-.21,3.9-.74,5.85-1.12-1.74,4.89,1.07,9.15,1.87,13.69,1,5.68,3.92,9.13,10.01,9.2,.91,2.7-1.43,4.88-1.69,8.5,3-2.98,4.09-5.5,3.57-8.67,1.5-2.14,3.44-3.37,6.17-2.93,1.87,1.49,.78,2.42-.58,3.41-1.78,1.3-1.51,2.69-.08,4.13,4.01,4.03,8.36,4.77,13.83,2.3,2.92,.61,4.2-1.75,5.99-3.24,.77-.64,1.44-2.74,2.75-.46,.04,1.68-.23,3.41,.73,4.96,.07,1.11,.13,2.21,.2,3.32,.16,4.12-1.87,4.83-5.73,4.65-4.98-.23-10.09-.94-15.05,.55-4.36,.07-8.72,.15-13.08,.22-.66-.72-1.29-.69-1.92,.04-1.37,.06-2.74,.11-4.11,.17-8.6-1.73-17.24-1.1-25.88-.34-5.96-.2-11.91-.39-17.87-.59-.42-.02-.85-.04-1.27-.06-3.96,.04-7.91,.09-11.87,.13-.09-.47-.18-.94-.26-1.41,.68-.68,1.36-1.36,2.04-2.04,.84-.22,1.21-.8,1.21-1.64Z"/>
      <path class="cls-4" d="M418.63,724.16c1.96-5.93,7.87-7.45,12.29-10.26,7.31-4.65,12.98-11.89,21.97-13.95,2.27-.52,4.42-1.33,6.78-.93-.65,.62-1.29,1.25-1.94,1.87-.32,.34-.64,.68-.96,1.02-8.79,5.04-8.85,15.46-15.07,22.43,5.11,1.4,8.01,.29,9.46-4,.56-1.65,1.33-3.48,3.62-3.55,1.99,3.52,3.69,7.67,8.95,4.15-.25,2.36,.25,4.55,1.35,6.67,1.56,3,.42,4.18-2.83,4.16-7.26-.06-14.53-.11-21.78,.1-3.89,.11-7.89-.92-11.66,.86-2.4-.03-4.79-.07-7.18-.1-.08-.46,0-1.07-.8-.85h.1c-.8-1.59-1.6-3.18-2.4-4.78,.01-.81,.02-1.61,.03-2.41,0,0,.18-.2,.18-.2l-.11-.25Z"/>
      <path class="cls-11" d="M382.79,712.85c-2.73-.44-4.67,.78-6.16,2.93-.63,.06-1.25,.11-1.88,.17-6.1-.07-9.01-3.52-10.01-9.2-.8-4.54-3.6-8.8-1.87-13.69,2.72-2.04,4.58-2.01,7.28,.87,5.13,5.48,9.69,11.17,12.7,18.06-.01,.29-.03,.57-.06,.86Z"/>
      <path class="cls-5" d="M501.8,712.85c2.97,.03,5.93,.05,8.9,.08,3.83,2.02,6.39,5.2,7.51,9.27,1.11,4.02,3.59,5.22,7.4,4.6,.07,2.75-1.76,3.05-3.87,2.99-4.77,1.19-9.08-3.58-13.95-1.06-.33-.32-.66-.63-1-.95-.44-2.54-2.34-1.95-4.01-1.87-1.96-.17-2.76-1.27-3.09-3.19-.61-3.57-1.26-7.12-1.03-10.77,1.04,.3,2.08,.59,3.13,.89Z"/>
      <path class="cls-2" d="M525.61,726.8c-3.81,.62-6.29-.58-7.4-4.6-1.13-4.08-3.68-7.26-7.51-9.27,5.47-1.52,7.84,3.33,10.98,5.86,4.95,4,10.15,6.51,16.47,7.2,3.39,.37,6.97,.8,9.63,3.44,.68,.67,1.7,1.35,1.34,2.44-.39,1.2-1.64,.93-2.57,.92-4.97-.03-9.94-.12-14.91-.19-.24-2.63-2.13-4.42-3.46-6.44-1.05-1.59-2.15-1.32-2.56,.65Z"/>
      <path class="cls-5" d="M457.74,700.89c.65-.62,1.29-1.25,1.94-1.87,1.05-.06,2.11-.13,3.16-.19,1.13,4.32,3.03,8.62,5.99,11.59,4.52,4.54,4.28,9.96,4.95,15.37-.67-.02-1.35-.04-2.02-.06-2.62-2.3-3.02-7.22-7.98-6.76-2.21-2.55-3.23-5.6-3.36-9.3-1.2,1.44,.11,3.12-1.7,4.25,.3-2.6-.36-4.92,.59-7.16,.63-1.51,.27-2.57-1.44-2.95-.03-.64-.07-1.27-.1-1.91,0-.34-.02-.68-.03-1.01Z"/>
      <path class="cls-2" d="M473.78,725.79c-.67-5.42-.43-10.83-4.95-15.37-2.96-2.98-4.86-7.27-5.99-11.59,7.08,2.88,11.33,8.8,15.53,14.68,1.33,1.87,2,4.21,4.15,5.45,.1,1.42,.44,2.76,1.37,3.89-3.53-.44-5.79,2.93-9.13,3.04-.32-.06-.64-.08-.96-.07l-.02-.03Z"/>
      <path class="cls-2" d="M418.53,727.01c.8,1.6,1.6,3.19,2.4,4.79-5.11,.18-6.61-4.84-10.11-6.99-1.05-1.9-3.01-2.35-4.84-3-.21-1.03-.04-2.23-1.26-2.81-1.31-2.28-1.98-.17-2.75,.46-1.79,1.49-3.08,3.85-5.99,3.24,.29-1.96,.59-3.92,.88-5.88,.51-.61,1.54-1.32,1.44-1.81-.33-1.65-1.45-.5-2.27-.35-1.19,.23-2.25,.61-2.28,2.1l-.06,.05c-1.66-1.14-3.44,4.29-5.04-.09-.25-3.5,2.16-5.56,4.25-7.79,3.8-2.87,5.97-.27,7.96,2.47,4.18,5.75,10.14,9.71,14.93,14.85,.55,.59,1.81,.52,2.75,.76Z"/>
      <path class="cls-4" d="M483.89,722.85c-.93-1.13-1.27-2.47-1.37-3.89,3.7-.97,5.35-4.99,9-6.05,0,1.99,.15,3.99-.05,5.95-.82,8.16,2.96,11.23,11.25,9.01,1.36-.03,2.72-.05,4.08-.08,.33,.32,.66,.63,1,.95-.49,.63,2.49,1.63-.26,2.08-1.68,.28-4.07-1.25-4.83,1.69-4.32-.06-8.64-.12-12.96-.17-1.09-3.04-4.63-.23-6.04-2.52,.33,0,.65,0,.98-.02,.36-.31,.72-.62,1.08-.93,3.08-3.15,2.5-5.17-1.87-6.01Z"/>
      <path class="cls-12" d="M483.7,729.81c1.41,2.29,4.95-.51,6.04,2.52-15.36,.16-30.71,.34-46.07,.47-4.95,.04-9.9-.04-14.86-.07,3.77-1.79,7.78-.75,11.66-.86,7.26-.21,14.52-.17,21.78-.1,3.25,.03,4.38-1.15,2.83-4.16-1.1-2.12-1.6-4.3-1.35-6.67,0-.66,.02-1.31,.03-1.97,4.97-.46,5.36,4.47,7.98,6.76,1.18,5.74,4.3,7.23,10.03,4.77,.47-.71,1.17-.77,1.92-.69Z"/>
      <path class="cls-11" d="M502.71,727.87c-8.29,2.22-12.07-.85-11.25-9.01,.2-1.96,.05-3.96,.05-5.95,1.92-2.3,4-4.05,7.14-2,0,.35,0,.7,0,1.05-.23,3.65,.42,7.2,1.03,10.77,.33,1.93,1.12,3.03,3.09,3.19-.02,.65-.05,1.3-.07,1.95Z"/>
      <path class="cls-12" d="M392.89,708.93c-2.08,2.23-4.49,4.29-4.25,7.79-.71,1.52-2.85,3.2-.92,4.7,2.03,1.57,3.59-.5,4.96-1.93,.71-.74,1.19-1.59,1-2.68,0,0,.06-.05,.06-.05,1.04,.02,2.08,.04,3.11,.06-.29,1.96-.59,3.92-.88,5.88-5.47,2.47-9.82,1.73-13.83-2.3-1.43-1.44-1.7-2.83,.08-4.13,1.36-.99,2.45-1.92,.58-3.41,.02-.29,.04-.57,.06-.86,3.27-1.26,6.12-3.91,10.04-3.06Z"/>
      <path class="cls-12" d="M410.82,724.8c3.49,2.15,5,7.17,10.11,6.99,0,0-.1,0-.1,0-.16,.23-.16,.46,0,.68-11.99,.63-23.98,.62-35.97,0,4.96-1.5,10.07-.78,15.06-.55,3.86,.18,5.89-.53,5.73-4.66,2.09-.05,3.63-1.26,5.17-2.46Z"/>
      <path class="cls-12" d="M502.7,732.51c.76-2.94,3.15-1.41,4.83-1.69,2.75-.45-.23-1.45,.26-2.08,4.87-2.52,9.18,2.25,13.95,1.06,3.27,3.39-1.96,1.32-1.77,2.74-5.76,.34-11.52,.56-17.28-.03Z"/>
      <path class="cls-11" d="M519.97,732.54c-.2-1.42,5.03,.65,1.77-2.74,2.11,.06,3.94-.25,3.87-2.99,.41-1.97,1.51-2.24,2.56-.65,1.34,2.03,3.22,3.81,3.46,6.44-3.89-.02-7.77-.04-11.66-.06Z"/>
      <path class="cls-12" d="M339.89,732.57c8.64-.76,17.27-1.39,25.88,.34-8.63,.22-17.26,.37-25.88-.34Z"/>
      <path class="cls-2" d="M498.67,711.96c0-.35,0-.7,0-1.05,1.42,.04,2.85,.07,3.13,1.94-1.04-.3-2.08-.59-3.13-.89Z"/>
      <path class="cls-12" d="M308.61,730.65c.09,.47,.18,.94,.26,1.41-.6,.57-1.19,.5-1.38-.28-.17-.71,.4-1.08,1.11-1.13Z"/>
      <path class="cls-12" d="M311.86,726.96c0,.84-.36,1.42-1.21,1.64,.04-.81,.5-1.32,1.21-1.64Z"/>
      <path class="cls-12" d="M369.87,732.74c.62-.74,1.26-.76,1.92-.04-.64,.01-1.28,.03-1.92,.04Z"/>
      <polygon class="cls-2" points="418.63 724.16 418.74 724.4 418.56 724.6 418.27 724.34 418.63 724.16"/>
      <path class="cls-12" d="M320.75,731.92c.42,.02,.85,.04,1.27,.06-.45,.58-.87,.53-1.27-.06Z"/>
      <path class="cls-2" d="M420.84,732.47c-.17-.23-.17-.45,0-.68,.8-.22,.73,.39,.8,.85,0,0-.42,.02-.42,.02l-.38-.19Z"/>
      <path class="cls-5" d="M410.82,724.8c-1.54,1.2-3.08,2.41-5.17,2.46-.07-1.1-.13-2.21-.2-3.31,.18-.72,.35-1.43,.53-2.15,1.83,.65,3.79,1.1,4.84,3Z"/>
      <path class="cls-12" d="M374.75,715.95c.63-.06,1.25-.11,1.88-.17,.52,3.17-.57,5.69-3.57,8.67,.26-3.62,2.6-5.8,1.69-8.5Z"/>
      <path class="cls-12" d="M405.98,721.8c-.18,.72-.35,1.43-.53,2.15-.96-1.55-.69-3.28-.73-4.96,1.22,.58,1.05,1.78,1.26,2.81Z"/>
      <path class="cls-12" d="M457.76,701.9c.03,.64,.07,1.27,.1,1.91-1.02,4.33-2.05,8.66-3.07,12.98-2.29,.07-3.06,1.89-3.62,3.55-1.46,4.3-4.35,5.4-9.46,4,6.21-6.97,6.28-17.4,15.07-22.43,.33,0,.66,0,.99,0Z"/>
      <path class="cls-11" d="M454.79,716.79c1.02-4.33,2.05-8.66,3.07-12.98,1.72,.38,2.08,1.44,1.44,2.95-.94,2.24-.29,4.56-.59,7.16,1.81-1.12,.49-2.8,1.7-4.25,.13,3.7,1.14,6.75,3.36,9.3,0,.66-.02,1.31-.03,1.97-5.26,3.52-6.96-.63-8.95-4.15Z"/>
      <path class="cls-11" d="M457.76,701.9c-.33,0-.66,0-.99,0,.32-.34,.64-.68,.96-1.02,0,.34,.02,.68,.03,1.01Z"/>
      <path class="cls-12" d="M502.71,727.87c.02-.65,.05-1.3,.07-1.95,1.67-.08,3.57-.67,4.01,1.87-1.36,.03-2.72,.05-4.08,.08Z"/>
      <path class="cls-4" d="M481.78,730.5c-5.72,2.46-8.85,.98-10.03-4.77,.67,.02,1.35,.04,2.02,.06,0,0,.02,.03,.02,.03,.3,.42,.6,.85,.9,1.27,1.17,3.61,3.88,4.01,7.09,3.41Z"/>
      <path class="cls-11" d="M481.78,730.5c-3.2,.61-5.92,.2-7.09-3.41,.02-.4,.04-.8,.06-1.2,3.34-.12,5.6-3.49,9.13-3.04,4.37,.84,4.94,2.86,1.87,6.01-.36,.31-.72,.62-1.08,.93-.32,.02-.65,.03-.98,.02-.75-.08-1.45-.02-1.92,.69Z"/>
      <path class="cls-5" d="M474.76,725.89c-.02,.4-.04,.8-.06,1.2-.3-.42-.6-.84-.9-1.27,.32-.02,.65,0,.96,.07Z"/>
      <path class="cls-5" d="M393.69,716.81c.19,1.09-.29,1.93-1,2.68-1.37,1.44-2.93,3.5-4.96,1.93-1.94-1.5,.2-3.18,.92-4.7,1.6,4.37,3.38-1.05,5.04,.09Z"/>
      <path class="cls-5" d="M396.86,716.82c-1.04-.02-2.07-.04-3.11-.06,.04-1.49,1.1-1.87,2.28-2.1,.82-.16,1.94-1.31,2.27,.35,.1,.49-.93,1.2-1.44,1.81Z"/>
      <path class="cls-12" d="M484.68,729.79c.36-.31,.72-.62,1.08-.93-.36,.31-.72,.62-1.08,.93Z"/>
    </g>
    <g>
      <path class="cls-7" d="M841.71,550.36c2.67-3.55,7.9-2.87,11.71-2.04,4.08,.97,7.89,3.04,11.01,5.85,0,0-2.47,.8-2.47,.8,.98-4.44,5.06-7.36,9.26-8.17,3.99-.76,7.92,.04,11.7,1.15-6.5,.04-15.93,.07-18.03,7.64,0,0-.53,2.58-.53,2.58-3.3-3.28-7.2-6.04-11.62-7.59-3.53-1.12-7.67-2.58-11.04-.22h0Z"/>
      <path class="cls-7" d="M597.42,563.77c2.74-4.02,10.74-1.1,13.55,1.73,0,0-2.47,.8-2.47,.8,1.42-5.67,8.32-6.1,12.72-3.92-2.13,.32-4.36,.36-6.31,1.11-1.76,.66-3.21,2.02-3.48,3.43l-.49,2.58c-2.14-2.01-4.48-4.03-7.29-5.12-1.99-.72-4.15-1.72-6.23-.61h0Z"/>
      <path class="cls-7" d="M973.97,639.83c-1.9-.93-3.77,0-5.54,.67-2.56,1.02-4.71,2.95-6.68,4.78,0,0-.47-2.59-.47-2.59-.22-1.18-1.46-2.39-2.99-2.99-1.73-.7-3.73-.77-5.63-1.12,3.93-2.13,10.29-1.65,11.55,3.48,0,0-2.47-.8-2.47-.8,2.54-2.57,9.83-5.16,12.24-1.44h0Z"/>
      <path class="cls-7" d="M588,629.45c-3.08-2.08-6.79-.72-9.98,.31-4.06,1.45-7.59,4.05-10.66,7.02,0,0-.52-2.56-.52-2.56-1.14-4.69-6.57-6.53-11-6.73-1.7-.14-3.45-.13-5.21-.23,3.43-1.07,7-1.82,10.64-1.15,3.86,.71,7.6,3.4,8.5,7.49,0,0-2.47-.8-2.47-.8,2.83-2.58,6.32-4.45,10.05-5.31,3.47-.73,8.27-1.31,10.65,1.96h0Z"/>
      <path class="cls-7" d="M566.59,542.11c-3.69-.47-6.39,2.42-8.77,4.78-2.96,3.13-4.95,7.04-6.34,11.08,0,0-1.62-2.05-1.62-2.05-3.14-3.67-8.81-2.86-12.86-1.04-1.58,.64-3.13,1.44-4.75,2.15,2.58-2.5,5.42-4.79,8.97-5.83,3.77-1.11,8.32-.4,10.97,2.84,0,0-2.57,.41-2.57,.41,1.37-3.58,3.63-6.83,6.57-9.27,2.77-2.22,6.79-4.9,10.39-3.06h0Z"/>
    </g>
  </g>
</svg>