<?xml version="1.0" encoding="UTF-8"?>
<svg id="Layer_1" data-name="Layer 1" xmlns="http://www.w3.org/2000/svg" viewBox="0 0 1536 1024">
  <defs>
    <style>
      .cls-1 {
        fill: #394149;
      }

      .cls-2 {
        fill: #38434a;
      }

      .cls-3 {
        fill: #26515c;
      }

      .cls-4 {
        fill: #4a7c86;
      }
    </style>
  </defs>
  <g id="z-60">
    <g>
      <path class="cls-3" d="M598.88,375.38c7.92,3.32,15.81,6.73,23.19,11.16,5.7,3.42,11.06,10.78,13.05,16.95,1.39,4.31-.44,2.31,2.6-1.26,1.5-1.76,3.09-3.49,4.26-5.46,5.51-9.3,13.83-14.53,24.14-16.99,4.44,.56,8.84,.83,13.03-1.25,.56-.28,1.25-.19,1.79,.27,.09,.61,1.88,.72,.07,1.9-8.48,5.56-17.07,11.05-25,17.33-3.39,2.69-7.89,5.51-7.75,11.06,.02,.77,3.28,.52,4.67,1.38,2.36,1.45,5.6,3.88,4.65,3.87-.59,0-2.05-.8-3.1-.77-6.12,.15-17.25,4.6-20.15,3.87-1.18-.29-13.9-1.38-22.47,0-6.42,1.04-25.51-3.91-26.34-3.87s10.74-1.55,13.95-1.55c1.67,0,7.84,.32,9.3,0,4.71-1.03,12.08-1.55,10.7-1.79,1.9-4.98,1.51-5.97-4.18-10.55,.46-1.11,1.36,.16,1.96-.39-5.9-3.68-10.48-8.83-15.38-13.62-1.81-1.31-3.66-2.57-4.86-4.53-2.06-1.03-4.12-2.06-6.19-3.08-1.13-.55-1.14-1.4-.71-2.39,2.91-.37,5.92,1.98,8.77-.29Z"/>
      <path class="cls-1" d="M680.94,378.79c-4.83,1.98-9.66,4.03-14.82,.99,7.45-2.87,14.59-6.51,22.26-8.81,1.12-.34,2.74-1.36,3.47,.11,.67,1.35-1,2.11-1.93,2.82-2.74,2.07-5.7,3.78-8.97,4.89Z"/>
      <path class="cls-2" d="M598.88,375.38c-2.78,4.5-5.81,1.13-8.77,.29-3.95-1.47-6.77-4.44-9.72-7.24-.73-.69-1.78-1.69-1.21-2.58,.76-1.18,2.18-.5,3.13,.05,3.65,2.1,7.2,4.37,10.84,6.49,1.86,1.09,3.82,2,5.73,2.99Z"/>
      <path class="cls-4" d="M597.01,381.13c2.07,1.03,3.86,2.36,4.86,4.53-1.86-1.25-5.62-.47-4.86-4.53Z"/>
    </g>
    <g>
      <path class="cls-3" d="M882.55,455.73c-5.22-12.53-18.93-21.63-32.44-18.93,5.41,6.76,17.57,8.11,21.77,17.92,.62,1.13,1.14,2.33,1.49,3.63-.81,.07-7.72,2.94-6.76,3.81,4.54-1.92,14.2,3,16.85,2.25,.27-.02,.61-.04,1.02-.06,.22-.01,1.54,1.2,3.44,3.05,1.5,1.46,4.83,3.93,6.8,5.9,5.91,5.91,11.31,12.18,12.17,12.17,.98-.02-2.38-9.92-6.76-16.22-2.05-2.94-4.62-5.39-4.06-5.41,9.52-.21,19.67-.35,22.78-2.24-3.33-1.03-21.92-1.08-24.61-2.42-6.28-2.1-9.48-.87-11.69-3.46Z"/>
      <path class="cls-1" d="M849.9,436.26c4.27,.54,8.32,3.25,12.38,.54-6.76-2.7-13.52-5.41-20.28-5.41,1.35,1.35,2.7,2.7,4.35,3.06,.99,.54,2.17,1.14,3.55,1.8Z"/>
      <path class="cls-2" d="M899.6,476.64c3.41,.28,5.28-.14,5.95,3.51,.42,.85,.77,1.78,1.08,2.72,.62,1.87,1.08,3.77,1.51,5.1-.21,2.49-1.03,2.24-2.1,.73-.53-.75-1.13-1.82-1.74-3.02-.05-3.17-1.6-5.77-3.49-7.14-.49-.94-.91-1.64-1.21-1.91Z"/>
    </g>
    <path class="cls-3" d="M903,333.58c-5.96-5.2-15.85,.45-21.25,4.21-1.67,1.18-3.16,2.6-4.7,3.93-2.27,1.78-5.8,1.53-7.76-.64-.47-.48-.82-1.07-1.1-1.67-4.49-9.84-14.03-9.95-23.56-10.26,8.37-3.68,18.66-4.55,25.5,2.77,1.43,1.47,2.63,3.26,3.52,5.1-.01-.05-.13-.15-.16-.07,3.79-3.44,8.35-6.15,13.31-7.51,5.42-1.54,13.5-1.93,16.2,4.14h0Z"/>
    <path class="cls-3" d="M860.35,339.64c.27-2.18,3.25-2.47,4.95-2.03,1.74,.2,2.6,2.06,4.08,2.58,.92,.44,2.61-.6,3.27-.09,.5,.32,.87,.5,1.31,.74,.11,.06,.06,.08,.18,.09,.96,.17,2.03,.34,2.76,.45,.44,.03,.3,.23,.85-.01,1.74-.87,3.82-.09,5.4,.65-1.19,.64-2.39,.93-3.29,1.71-.23,.42-.39,.68-.98,1.08-1.53,.97-3.34,1.21-4.87,1.46-1.32,.08-2.72-.29-3.86-.71-1.18-.34-1.27-2.37-2.12-2.91-.41-.31-.87-.52-1.37-.64-1.43-.15-2.68-.7-3.78-1.57-.7-.4-1.22-1-2.52-.79h0Z"/>
  </g>
</svg>