<?xml version="1.0" encoding="UTF-8"?>
<svg id="Layer_1" data-name="Layer 1" xmlns="http://www.w3.org/2000/svg" viewBox="0 0 1537 1405">
  <defs>
    <style>
      .cls-1 {
        fill: #fee19f;
      }

      .cls-2 {
        fill: #fdd898;
      }

      .cls-3 {
        fill: #fcf9e8;
      }
    </style>
  </defs>
  <g id="z-20">
    <g>
      <path class="cls-3" d="M286,643.7v1.3H74.04c-.03-.44-.04-.88-.04-1.32,0-3.74,.78-7.33,2.2-10.65,4.46-10.42,15.26-18.27,28.45-20.2,3.94-5.7,10.69-9.46,18.35-9.46,8.42,0,15.73,4.54,19.43,11.21,.08,.15,.16,.3,.24,.45,.21-.5,.42-.99,.66-1.48,5.94-12.7,19.23-21.55,34.67-21.55,19.23,0,35.12,13.72,37.64,31.52,4.02-4.96,10.3-8.15,17.36-8.15,11.37,0,20.72,8.28,21.88,18.9,3.26-1.84,7.06-2.9,11.12-2.9,8.88,0,16.53,5.05,20,12.33Z"/>
      <path class="cls-1" d="M279.74,645H80.04c-.03-.44-.04-.88-.04-1.32,0-3.74,.78-7.33,2.2-10.65,5.52-5.79,13.43-9.88,22.45-11.2,3.94-5.7,10.69-9.46,18.35-9.46,8.61,0,16.06,4.75,19.67,11.66,1.42-3.44,3.37-6.62,5.76-9.45,.29-.35,.59-.69,.9-1.03,6.96-7.69,17.23-12.55,28.67-12.55,19.23,0,35.12,13.72,37.64,31.52,4.02-4.96,10.3-8.15,17.36-8.15,11.37,0,20.72,8.28,21.88,18.9,3.26-1.84,7.06-2.9,11.12-2.9,5.2,0,9.98,1.73,13.74,4.63Z"/>
      <path class="cls-2" d="M273.74,645H74.04c-.03-.44-.04-.88-.04-1.32,0-3.74,.78-7.33,2.2-10.65,5.52-5.79,13.43-9.88,22.45-11.2,3.94-5.7,10.69-9.46,18.35-9.46,8.61,0,16.06,4.75,19.67,11.66,1.42-3.44,3.37-6.62,5.76-9.45,.29-.35,.59-.69,.9-1.03,6.96-7.69,17.23-12.55,28.67-12.55,19.23,0,35.12,13.72,37.64,31.52,4.02-4.96,10.3-8.15,17.36-8.15,11.37,0,20.72,8.28,21.88,18.9,3.26-1.84,7.06-2.9,11.12-2.9,5.2,0,9.98,1.73,13.74,4.63Z"/>
    </g>
    <g>
      <path class="cls-3" d="M1129,144.44v.56h-91.98c-.01-.19-.02-.38-.02-.57,0-1.62,.34-3.18,.95-4.62,1.94-4.52,6.62-7.93,12.35-8.77,1.71-2.47,4.64-4.11,7.96-4.11,3.65,0,6.83,1.97,8.43,4.86,.03,.07,.07,.13,.1,.2,.09-.22,.18-.43,.29-.64,2.58-5.51,8.35-9.35,15.05-9.35,8.35,0,15.24,5.95,16.33,13.68,1.74-2.15,4.47-3.54,7.53-3.54,4.93,0,8.99,3.59,9.5,8.2,1.41-.8,3.06-1.26,4.83-1.26,3.85,0,7.17,2.19,8.68,5.35Z"/>
      <path class="cls-1" d="M1126.28,145h-86.66c-.01-.19-.02-.38-.02-.57,0-1.62,.34-3.18,.95-4.62,2.4-2.51,5.83-4.29,9.74-4.86,1.71-2.47,4.64-4.11,7.96-4.11,3.74,0,6.97,2.06,8.54,5.06,.62-1.49,1.46-2.87,2.5-4.1,.13-.15,.26-.3,.39-.45,3.02-3.34,7.48-5.45,12.44-5.45,8.35,0,15.24,5.95,16.33,13.68,1.74-2.15,4.47-3.54,7.53-3.54,4.93,0,8.99,3.59,9.5,8.2,1.41-.8,3.06-1.26,4.83-1.26,2.26,0,4.33,.75,5.96,2.01Z"/>
      <path class="cls-2" d="M1123.68,145h-86.66c-.01-.19-.02-.38-.02-.57,0-1.62,.34-3.18,.95-4.62,2.4-2.51,5.83-4.29,9.74-4.86,1.71-2.47,4.64-4.11,7.96-4.11,3.74,0,6.97,2.06,8.54,5.06,.62-1.49,1.46-2.87,2.5-4.1,.13-.15,.26-.3,.39-.45,3.02-3.34,7.48-5.45,12.44-5.45,8.35,0,15.24,5.95,16.33,13.68,1.74-2.15,4.47-3.54,7.53-3.54,4.93,0,8.99,3.59,9.5,8.2,1.41-.8,3.06-1.26,4.83-1.26,2.26,0,4.33,.75,5.96,2.01Z"/>
    </g>
    <g>
      <path class="cls-3" d="M413,556.73c0,5.32-6.5,7.48-15.17,8.08-11.15,.78-25.92-1.02-35.2-2-16.39-1.73-120.66,.93-120.7,.92-.12-.32-.22-.67-.28-1.03-2.06-10.26,13.16-35.44,33.44-25.17,.35,.17,.69,.36,1.05,.56-.11-.49-.22-.97-.3-1.45-3.93-22.69,29.69-34.7,42.26-14.62,11.17-32.07,60.84-13.16,45.8,17.56,34.34-11.5,49.1,5,49.1,17.16Z"/>
      <path class="cls-1" d="M404.32,562.86c0,.7-.14,1.34-.42,1.92-11.58,.9-26.93-1.18-36.56-2.3-17.02-1.99-125.35,1.07-125.39,1.06-.13-.37-.23-.77-.29-1.19,2.93-10.12,16.03-23.93,32.4-15.58-1.36-5.15-.26-9.71,2.34-13.37,.24-.36,.51-.7,.78-1.03,8.23-9.97,27.98-12.28,36.81,.52,10.63-27.68,57.91-11.36,43.59,15.15,32.68-9.92,46.74,4.32,46.74,14.81Z"/>
      <path class="cls-2" d="M398.24,563.14c0,.61-.14,1.16-.41,1.67-11.15,.78-25.92-1.02-35.2-2-16.39-1.73-120.66,.93-120.7,.92-.12-.32-.22-.67-.28-1.03,2.82-8.8,15.43-20.8,31.19-13.55-1.31-4.48-.25-8.44,2.25-11.62,.23-.31,.49-.61,.76-.89,7.92-8.67,26.94-10.67,35.44,.45,10.23-24.06,55.74-9.87,41.96,13.17,31.46-8.62,44.99,3.75,44.99,12.88Z"/>
    </g>
    <g>
      <path class="cls-3" d="M1256.16,350.72c0,2.35-2.87,3.31-6.71,3.57-4.93,.35-11.46-.45-15.57-.88-7.25-.76-53.36,.41-53.38,.41-.05-.14-.1-.3-.12-.46-.91-4.54,5.82-15.67,14.79-11.13,.15,.08,.31,.16,.46,.25-.05-.22-.1-.43-.13-.64-1.74-10.04,13.13-15.35,18.69-6.47,4.94-14.18,26.91-5.82,20.26,7.77,15.19-5.08,21.71,2.21,21.71,7.59Z"/>
      <path class="cls-1" d="M1252.32,353.43c0,.31-.06,.59-.19,.85-5.12,.4-11.91-.52-16.17-1.02-7.53-.88-55.44,.47-55.46,.47-.06-.16-.1-.34-.13-.53,1.3-4.48,7.09-10.58,14.33-6.89-.6-2.28-.12-4.29,1.03-5.91,.11-.16,.22-.31,.35-.46,3.64-4.41,12.38-5.43,16.28,.23,4.7-12.24,25.61-5.02,19.28,6.7,14.45-4.39,20.67,1.91,20.67,6.55Z"/>
      <path class="cls-2" d="M1249.64,353.55c0,.27-.06,.51-.18,.74-4.93,.35-11.46-.45-15.57-.88-7.25-.76-53.36,.41-53.38,.41-.05-.14-.1-.3-.12-.46,1.25-3.89,6.82-9.2,13.8-5.99-.58-1.98-.11-3.73,.99-5.14,.1-.14,.22-.27,.33-.4,3.5-3.83,11.91-4.72,15.67,.2,4.52-10.64,24.65-4.37,18.56,5.83,13.91-3.81,19.9,1.66,19.9,5.7Z"/>
    </g>
    <g>
      <path class="cls-3" d="M1478,481c0,6.01-.93,11.8-2.66,17.24-1.08,3.41-4.21,5.76-7.79,5.76h-261.87c-3.26,0-5.82-1.8-7.15-4.25-.14-.26-.26-.52-.37-.79-1.1-2.64-.85-5.85,1.32-8.39,3.35-3.93,8.62-6.26,13.82-5.48,3.14,.47,6.22-1.12,7.89-3.82,4.12-6.65,10.95-11.45,18.95-12.84,2.35-.41,4.35-1.91,5.58-3.96,9.76-16.26,33.08-23.64,50.47-14.49,.06,.03,.12,.06,.18,.09,.07-.18,.15-.37,.23-.55,9.26-22.38,34.03-37.28,59.05-34.16,1.91,.23,3.83-.21,5.45-1.25,8.9-5.76,19.51-9.11,30.9-9.11,17.06,0,32.37,7.5,42.8,19.37,.95,1.08,2.16,1.88,3.52,2.31,17.74,5.65,31.71,19.74,37.18,37.56,1.63,5.3,2.5,10.93,2.5,16.76Z"/>
      <path class="cls-1" d="M1472,481c0,6.01-.93,11.8-2.66,17.24-1.08,3.41-4.21,5.76-7.79,5.76h-255.87c-3.26,0-5.82-1.8-7.15-4.25-.14-.26-.26-.52-.37-.79,.5,.01,1,.06,1.5,.13,3.31,.47,6.56-1.12,8.32-3.82,4.35-6.65,11.56-11.45,20-12.84,2.48-.41,4.59-1.91,5.89-3.96,10.33-16.32,40.76-26.76,59.13-17.47,2.17-5.12,1.31-4.77,5-9,.13-.15,1.86-1.85,2-2,12.66-14.23,29.49-23.05,49.88-20.64,2.02,.23,4.04-.21,5.75-1.25,9.39-5.76,20.59-9.11,32.61-9.11,18,0,34.16,7.5,45.17,19.37,1,1.08,2.28,1.88,3.72,2.31,13.47,4.07,24.88,12.51,32.37,23.56,1.63,5.3,2.5,10.93,2.5,16.76Z"/>
      <path class="cls-2" d="M1478,483.98c0,5.23-.93,10.27-2.66,15.01-1.08,2.97-4.21,5.01-7.79,5.01h-261.87c-3.26,0-5.82-1.57-7.15-3.7,2.27-.64,4.7-.87,7.13-.57,3.31,.41,6.56-.98,8.32-3.33,4.35-5.79,11.56-9.97,20-11.18,2.48-.36,4.59-1.66,5.89-3.45,10.33-14.21,35.08-20.62,53.45-12.54,9.6-19.75,35.94-32.96,62.56-30.22,2.02,.2,4.04-.18,5.75-1.09,9.39-5.01,20.59-7.93,32.61-7.93,18,0,34.16,6.53,45.17,16.86,1,.94,2.28,1.64,3.72,2.01,13.47,3.54,29.87,13.9,32.37,20.51s2.5,9.52,2.5,14.59Z"/>
    </g>
    <g>
      <path class="cls-3" d="M988.64,228.86c-.08,.62-.22,1.22-.41,1.79-.27,.84-.65,1.63-1.12,2.35-.78,1.2-1.8,2.22-2.99,3h-127.92c-.98-1.87-1.63-3.7-1.99-5.46-3.75-18.52,24.46-30,33.44-9.77,2.43-9.65,13.98-15.53,23.36-11.51,1.4-29.05,45.16-22.69,38.25,5.55,6.9-5.82,18.91-1.95,21.14,6.73,4.86-7.23,16.17-4.08,18.1,3.4h.01c.3,1.2,.37,2.52,.13,3.92Z"/>
      <path class="cls-1" d="M988.64,228.86c-.08,.62-.22,1.22-.41,1.79-.27,.84-.65,1.63-1.12,2.35h-127.91c-.98-1.87-1.63-3.7-1.99-5.46,.27-.89,.7-1.74,1.24-2.53,5.58-7.99,24.2-10.84,31.7-.41,.18,.23,.34,.48,.5,.73,.26-.72,.62-1.41,1.07-2.06,3.46-5.01,12.17-7.97,20.04-6.53,.76,.13,1.51,.31,2.25,.53,.12-1.69,.48-3.08,1.04-4.19h0c6.25-12.29,37.21,8.08,37.21,8.08,0,0,18.91-1.37,21.14,4.71,3.64-3.78,10.87-3.51,15.1-.93h.01c.3,1.2,.37,2.52,.13,3.92Z"/>
      <path class="cls-2" d="M988.23,230.65c-.27,.84-.65,1.63-1.12,2.35-.78,1.2-1.8,2.22-2.99,3h-127.92c-.98-1.87-1.63-3.7-1.99-5.46,.65-2.12,2.17-4,4.24-5.53,7.71-5.67,23.02-6.45,29.2,3.32,.49-1.37,1.36-2.63,2.5-3.73,.48-.48,1-.92,1.57-1.33,4.8-3.49,12.6-5.01,19.29-3,.09-1.37,.35-2.54,.75-3.53,.69-1.76,1.84-2.94,3.29-3.66h0c9.87-4.93,34.21,11.08,34.21,11.08,0,0,18.91-1.37,21.14,4.71,4.67-4.86,15.28-3.02,17.83,1.78Z"/>
    </g>
    <g>
      <path class="cls-3" d="M109.27,512.14c-.04,.28-.1,.54-.18,.8-.12,.37-.29,.73-.5,1.05-.35,.53-.8,.99-1.33,1.33H50.35c-.44-.83-.73-1.65-.89-2.43-1.67-8.24,10.88-13.35,14.88-4.35,1.08-4.29,6.22-6.91,10.39-5.12,.62-12.92,20.09-10.09,17.02,2.47,3.07-2.59,8.41-.87,9.4,2.99,2.16-3.22,7.19-1.82,8.05,1.51h0c.13,.53,.16,1.12,.06,1.74Z"/>
      <path class="cls-1" d="M109.27,512.14c-.04,.28-.1,.54-.18,.8-.12,.37-.29,.73-.5,1.05H51.69c-.44-.83-.73-1.65-.89-2.43,.12-.4,.31-.77,.55-1.13,2.48-3.55,10.77-4.82,14.1-.18,.08,.1,.15,.21,.22,.32,.12-.32,.28-.63,.48-.92,1.54-2.23,5.41-3.55,8.92-2.9,.34,.06,.67,.14,1,.24,.05-.75,.21-1.37,.46-1.86h0c2.78-5.47,16.55,3.59,16.55,3.59,0,0,8.41-.61,9.4,2.1,1.62-1.68,4.84-1.56,6.72-.41h0c.13,.53,.16,1.12,.06,1.74Z"/>
      <path class="cls-2" d="M109.09,512.94c-.12,.37-.29,.73-.5,1.05-.35,.53-.8,.99-1.33,1.33H50.35c-.44-.83-.73-1.65-.89-2.43,.29-.94,.97-1.78,1.89-2.46,3.43-2.52,10.24-2.87,12.99,1.48,.22-.61,.61-1.17,1.11-1.66,.21-.21,.44-.41,.7-.59,2.14-1.55,5.61-2.23,8.58-1.33,.04-.61,.16-1.13,.33-1.57,.31-.78,.82-1.31,1.46-1.63h0c4.39-2.19,15.22,4.93,15.22,4.93,0,0,8.41-.61,9.4,2.1,2.08-2.16,6.8-1.34,7.93,.79Z"/>
    </g>
    <g>
      <path class="cls-3" d="M107.38,416.14c.04,.28,.1,.54,.18,.8,.12,.37,.29,.73,.5,1.05,.35,.53,.8,.99,1.33,1.33h56.91c.44-.83,.73-1.65,.89-2.43,1.67-8.24-10.88-13.35-14.88-4.35-1.08-4.29-6.22-6.91-10.39-5.12-.62-12.92-20.09-10.09-17.02,2.47-3.07-2.59-8.41-.87-9.4,2.99-2.16-3.22-7.19-1.82-8.05,1.51h0c-.13,.53-.16,1.12-.06,1.74Z"/>
      <path class="cls-1" d="M107.38,416.14c.04,.28,.1,.54,.18,.8,.12,.37,.29,.73,.5,1.05h56.9c.44-.83,.73-1.65,.89-2.43-.12-.4-.31-.77-.55-1.13-2.48-3.55-10.77-4.82-14.1-.18-.08,.1-.15,.21-.22,.32-.12-.32-.28-.63-.48-.92-1.54-2.23-5.41-3.55-8.92-2.9-.34,.06-.67,.14-1,.24-.05-.75-.21-1.37-.46-1.86h0c-2.78-5.47-16.55,3.59-16.55,3.59,0,0-8.41-.61-9.4,2.1-1.62-1.68-4.84-1.56-6.72-.41h0c-.13,.53-.16,1.12-.06,1.74Z"/>
      <path class="cls-2" d="M107.56,416.94c.12,.37,.29,.73,.5,1.05,.35,.53,.8,.99,1.33,1.33h56.91c.44-.83,.73-1.65,.89-2.43-.29-.94-.97-1.78-1.89-2.46-3.43-2.52-10.24-2.87-12.99,1.48-.22-.61-.61-1.17-1.11-1.66-.21-.21-.44-.41-.7-.59-2.14-1.55-5.61-2.23-8.58-1.33-.04-.61-.16-1.13-.33-1.57-.31-.78-.82-1.31-1.46-1.63h0c-4.39-2.19-15.22,4.93-15.22,4.93,0,0-8.41-.61-9.4,2.1-2.08-2.16-6.8-1.34-7.93,.79Z"/>
    </g>
  </g>
</svg>