<?xml version="1.0" encoding="UTF-8"?>
<svg id="Layer_1" data-name="Layer 1" xmlns="http://www.w3.org/2000/svg" xmlns:xlink="http://www.w3.org/1999/xlink" viewBox="0 0 1536 1024">
  <defs>
    <style>
      .cls-1 {
        fill: url(#linear-gradient-2);
      }

      .cls-2 {
        fill: #fefbe4;
      }

      .cls-3 {
        fill: url(#linear-gradient-3);
      }

      .cls-4 {
        fill: url(#linear-gradient);
      }

      .cls-5 {
        fill: url(#linear-gradient-4);
      }
    </style>
    <linearGradient id="linear-gradient" x1="24.21" y1="634.04" x2="182.81" y2="837.35" gradientUnits="userSpaceOnUse">
      <stop offset="0" stop-color="#ddba87"/>
      <stop offset=".28" stop-color="#e4c99c"/>
      <stop offset=".85" stop-color="#f8f0d4"/>
      <stop offset="1" stop-color="#fefbe4"/>
    </linearGradient>
    <linearGradient id="linear-gradient-2" x1="50.65" y1="700.41" x2="175.17" y2="860.03" xlink:href="#linear-gradient"/>
    <linearGradient id="linear-gradient-3" x1="1391.37" y1="703.48" x2="1476.02" y2="812" xlink:href="#linear-gradient"/>
    <linearGradient id="linear-gradient-4" x1="1414.72" y1="740.11" x2="1477.71" y2="820.86" xlink:href="#linear-gradient"/>
  </defs>
  <g id="z-60">
    <g>
      <g>
        <path class="cls-2" d="M309.12,808H3v-228.5c3.82-2.03,7.73-3.64,11.67-4.86,35.73-11.07,74.61,9.67,81.63,48.58l8.24,45.65,3.3-1.73c.35-.18,.7-.37,1.05-.55l1.07-.57c43.84-26.49,77.14,5.42,85.43,57.76,.02,.09,.04,.19,.05,.29,1.49,9.51,2.16,19.69,1.91,30.31l-.48,5.98c.24-.02,.48-.04,.72-.06,18.56-1.5,29.18,5.59,35.15,13h.01c4.3,5.33,6.19,10.81,6.9,13.38,.26,.95,.36,1.5,.36,1.5,0,0,.87-.17,2.41-.41,1.13-.19,2.63-.41,4.42-.64,11.66-1.48,35.54-3.14,50.05,5.44,3.98,2.34,7.25,5.45,9.37,9.55,1.11,2.13,2.07,4.11,2.86,5.88Z"/>
        <path class="cls-4" d="M316,808H3v-230.48c3.99-1.31,7.88-2.27,11.67-2.88,51.3-8.25,83.54,45.42,84.19,97.14,0-.01,5.79-2.86,5.79-2.86,1.07-.62,2.13-1.22,3.19-1.78,.35-.18,.7-.37,1.05-.55,43.82-22.46,77.34,9.46,86.5,57.19,.02,.09,.04,.19,.05,.29,2.16,11.36,2.94,23.6,2.15,36.23-.06,1.02-.14,2.06-.22,3.09,17.51-1.49,28.52,3.65,35.37,9.91h.01c5.06,4.64,7.84,9.87,9.29,13.5,.14,.34,.27,.66,.38,.97,.79,2.16,1.06,3.54,1.06,3.54,0,0,7.99-1.46,18.71-2.01,10.59-.56,23.85-.23,34.7,3.27,7.6,2.44,14.02,6.44,17.52,12.77,.89,.92,.59,1.66,1.59,2.66Z"/>
      </g>
      <g>
        <path class="cls-2" d="M294.79,808H3v-147.99c1.62,2.2,3.05,4.54,4.26,7.02l15.94,32.69,4.97-2.43c48.17-27,98.83,9.12,111.3,64.25l.7,4.83c43.69-3.67,57.69,22.26,57.69,22.26,0,0,19.96-2.89,41.79-1.95,.8,.03,1.59,.07,2.39,.12,1.6,.08,3.2,.19,4.8,.33,5.2,.43,10.4,1.13,15.35,2.17,9.92,2.06,18.86,5.51,24.91,11.05,1.26,1.16,2.44,2.27,3.52,3.32,1.64,1.59,3.04,3.05,4.17,4.33Z"/>
        <path class="cls-1" d="M316,808c6.19,3.71-87.44,4.44-119,8-26.03,2.94-57.99-1.6-92,16-18.05,9.34-44,0-65,16-28.72,21.88-37,24-37,24v-191.78l12.87,25.82,5.3-2.43c51.57-27.06,104.86,9.13,117.13,64.45l.66,4.85c46.83-3.56,61.34,22.54,61.34,22.54,0,0,61.9-8.14,90.32,8.22,2.07,1.2,3.97,2.52,5.65,3.99,.13,.12,19.6,.23,19.73,.34Z"/>
      </g>
    </g>
    <g>
      <g>
        <path class="cls-2" d="M1536,568.68v236.32h-305.16c.87-1.77,1.93-3.75,3.16-5.88,2.34-4.1,5.95-7.21,10.34-9.55,16.03-8.58,42.4-6.92,55.28-5.44,1.98,.23,3.64,.45,4.88,.64,1.7,.24,2.66,.41,2.66,.41,0,0,.12-.55,.4-1.5,.79-2.57,2.87-8.05,7.62-13.37h.01c6.6-7.42,18.33-14.51,38.82-13.01,.27,.02,.54,.04,.8,.06l-.53-5.98c-.28-10.62,.46-20.8,2.11-30.31,.01-.1,.03-.2,.05-.29,9.16-52.34,45.94-84.25,94.36-57.76l1.18,.57c.38,.18,.77,.37,1.16,.55l3.64,1.73,9.1-45.65c6.45-32.36,37.24-52.15,70.12-51.54Z"/>
        <path class="cls-3" d="M1536,571.31v233.69h-313.17c.46-.85,1.18-1.74,2.16-2.66,3.87-6.33,10.96-10.33,19.35-12.77,11.99-3.5,26.63-3.83,38.33-3.27,11.84,.55,20.66,2.01,20.66,2.01,0,0,.3-1.38,1.17-3.54,.12-.31,.27-.63,.42-.97,1.6-3.63,4.67-8.86,10.26-13.49h.01c7.57-6.27,19.73-11.41,39.07-9.92-.09-1.03-.18-2.07-.25-3.09-.87-12.63-.01-24.87,2.38-36.23,.01-.1,.03-.2,.05-.29,10.12-47.73,47.14-79.65,95.54-57.19,.38,.18,.77,.37,1.16,.55,1.17,.56,2.34,1.16,3.52,1.78,0,0,6.4,2.85,6.4,2.86,.62-45.32,28.05-92.14,72.94-97.47Z"/>
      </g>
      <g>
        <path class="cls-2" d="M1536,657.01v147.99h-239.47c.93-1.28,2.08-2.74,3.43-4.33,.88-1.05,1.85-2.16,2.89-3.32,4.96-5.54,12.3-8.99,20.44-11.05,4.06-1.04,8.33-1.74,12.6-2.17,1.31-.14,2.62-.25,3.94-.33,.65-.05,1.3-.09,1.96-.12,17.91-.94,34.29,1.95,34.29,1.95,0,0,11.49-25.93,47.35-22.26l.57-4.83c10.24-55.13,51.81-91.25,91.34-64.25l4.08,2.43,13.08-32.69c1-2.48,2.17-4.82,3.5-7.02Z"/>
        <path class="cls-5" d="M1536,677.22v127.78h-241c.11-.11,.21-.22,.32-.34,1.38-1.47,2.94-2.79,4.64-3.99,23.32-16.36,74.12-8.22,74.12-8.22,0,0,11.91-26.1,50.34-22.54l.54-4.85c10.07-55.32,53.81-91.51,96.13-64.45l4.35,2.43,10.56-25.82Z"/>
      </g>
    </g>
  </g>
</svg>