<?xml version="1.0" encoding="UTF-8"?>
<svg id="Layer_1" data-name="Layer 1" xmlns="http://www.w3.org/2000/svg" viewBox="0 0 1538 1303">
  <defs>
    <style>
      .cls-1 {
        fill: #3b3431;
      }
    </style>
  </defs>
  <g id="z-80">
    <g>
      <path class="cls-1" d="M1208.85,1023.87c-4.25-2.31-8.55-4.55-12.75-6.96-9.01-5.16-17.49-11-24.8-21.23,7.65-1.73,14.21-3.2,22.28-5.02-21.99-5.9-44.81-5.86-61.45-25.77,9.5-1.18,17.69-2.19,25.87-3.21-18.68-5.33-39.51-4.52-54.17-23.33h28.39c.06-.53,.13-1.06,.19-1.59-13.12-7.28-29.96-4.91-43.2-17.08,4.65-1.04,8.07-1.81,12.33-2.77-17.16-5.22-31.96-13.57-44.89-25.5,9.41-.86,17.91,2.78,27.87,5.67-3.15-3.37-5.53-5.92-7.92-8.48,.29-.56,.57-1.13,.86-1.69,5.69,2.27,11.54,4.18,17.02,6.9,5.61,2.78,10.85,6.34,17.26,10.17-3.06-4.52-5.46-8.08-8.73-12.91,8.99,1.39,14.92,5.59,20.02,11.12,4.98,5.41,9.66,11.11,14.47,16.68,.39-.26,.77-.52,1.16-.79-4.15-6.72-8.3-13.43-12.45-20.15,.23-.39,.46-.78,.69-1.16,2.68,.96,5.46,1.72,8.04,2.92,10.07,4.69,17.5,12.03,22.17,22.43,1.67,3.71,4.54,6.87,6.86,10.28,.5-.31,1-.63,1.5-.94-4.04-7.28-8.08-14.56-12.12-21.85,.45-.42,.9-.84,1.35-1.26,6.77,1.52,12.61,4.92,18.04,9.54,2.22,1.89,5.32,2.67,7.86,4.24,4.1,2.54,8.07,5.31,11.54,8.71,2.04,.82,4.17,1.45,6.09,2.49,3.23,1.76,6.15,4.19,9.5,5.6,8.04,3.38,12.49,9.48,15.19,17.7,1.57,4.77,4.51,9.08,6.84,13.59,.49-.25,.99-.5,1.48-.75-2.36-5.69-4.73-11.38-7.09-17.07,.47-.44,.94-.88,1.41-1.31,2.42,.81,4.93,1.4,7.24,2.46,9.71,4.44,18.1,10.75,25.23,18.8,.78,.88,1.53,2.39,2.4,2.48,8.26,.84,13.04,6.58,17.55,13.02,1.72-6.36,1.79-6.25,7.22-3.34,13.8,7.4,27.69,14.64,41.87,21.43-23.09-11.67-42.18-28.14-58.46-48.05,.22-.67,.44-1.34,.66-2.01h24.65c.1-.52,.2-1.04,.3-1.56-20.53-6.69-40.39-14.49-54.12-32.38,.17-.71,.34-1.43,.52-2.14,9.07,.77,18.14,1.55,27.21,2.32,.18-.44,.37-.88,.55-1.31-17.49-7.38-35.57-13.83-48.72-30.58,9.91-2.14,18.68,.94,27.72,.08-15.65-7.4-32.56-12.61-45.44-26.35,7.02-4.12,14.12-1.07,20.99-1.7-12.64-4.17-25.36-7.98-34.87-17.93,.04-.6,.08-1.2,.11-1.8,2.91-.53,5.81-1.07,8.97-1.65-9.1-6.3-18.13-12.54-27.16-18.79,.17-.45,.34-.9,.52-1.35h7.12c.08-.32,.15-.65,.23-.97-2.96-1.91-5.91-3.82-10.13-6.54,2.99-.86,4.56-1.32,6.13-1.77-1-1.79-1.99-3.57-2.98-5.36,.41-.48,.83-.96,1.24-1.44,7.92,2.55,13.52,8.95,20.26,15.03v-7.12l1.34-.97c8.26,8.28,16.52,16.56,24.78,24.84,.24-.16,.48-.32,.72-.48-.82-2.13-1.95-4.2-2.38-6.41-.35-1.8,.15-3.77,.27-5.66,1.7,.64,3.93,.79,5.01,2,4.12,4.63,7.87,9.59,11.74,14.44,.7,.88,1.36,1.79,2.89,2.37-.92-5-1.85-10-3.06-16.56,10.22,5.04,13.86,13.72,18.2,22.97,.86-3.9,1.51-6.89,2.4-10.9,13.4,9.85,25.7,19.25,27.17,37.38,.47-.19,.94-.39,1.41-.58v-15.12c19.34,7.41,21.14,25.63,26.39,41.46,.54-.18,1.09-.36,1.63-.54,.37-6.83,.75-13.66,1.19-21.78,7,6.02,13.51,11.56,19.96,17.18,3.36,2.93,6.52,6.1,9.93,8.96,12.18,10.24,24.51,20.29,36.59,30.66,2.31,1.99,3.7,5.08,5.82,8.09,.71-6.23,3.94-3.89,7.02-2.35,14.06,7.01,28.12,14,42.19,20.97,.72,.36,1.51,.57,2.52,.4-30.86-15.64-61.86-31-86.71-56.06,.16-.61,.32-1.22,.49-1.82,3.02,.34,6.05,.69,9.07,1.03-18.15-10.07-33.89-22.91-45.75-40.19,.27-.6,.54-1.19,.82-1.79,6.99,1.54,13.97,3.07,20.96,4.61,.15-.34,.31-.68,.46-1.02-3.84-2.07-7.58-4.36-11.54-6.16-14.66-6.68-26.37-17.02-36.17-29.77-1.64-2.13-2.98-4.49-4.38-6.8-.41-.67-.53-1.51-1.26-3.67,7.96,2.49,14.93,4.68,21.91,6.86,.27-.44,.54-.88,.81-1.32-15.96-7.52-31.43-15.66-40.68-31.61,.2-.58,.41-1.16,.61-1.74,6.47,1.88,12.94,3.76,19.68,5.73-12.42-10.18-24.86-19.94-27.69-36.76,.57-.64,1.13-1.28,1.7-1.92,6.04,3.88,12.08,7.76,19.42,12.47-2.25-3.59-4.07-5.99-5.31-8.67-.77-1.65-.65-3.72-.93-5.61,1.75,.49,3.86,.5,5.19,1.54,8.12,6.35,15.05,13.86,20.32,22.89,1.26,2.16,2.75,4.18,4.39,6.65-4.55-13.16-8.92-25.81-13.67-39.55,7.17,.7,8.6,6.04,12.03,8.76,1.22,2.33,2.45,4.66,3.62,6.9,2.13-1.41,3.82-2.53,5.78-3.82-.87-1.46-1.76-2.95-2.65-4.45-.19,.45-.39,.89-.58,1.34h-6.14c-.84-5.54-4.26-10.39-3.29-16.55,.41-2.61-1.7-5.71-5.87-5.22-5.56,.66-6.6-.98-4.68-6.25,.46-1.26,.51-2.68,.78-4.22-1.19-.08-1.68-.21-2.13-.13-1.51,.27-4.12,1.22-4.33,.83-.87-1.65-1.19-3.67-1.39-5.59-.28-2.72-.27-5.48-.39-8.34-3.2,.8-5.03,1.25-6.85,1.71-.4-2.17-1.03-4.32-1.14-6.5-.14-2.69,.13-5.33-3.81-4.88-3.07,.35-3.72-1.37-3.25-4.1,.7-4.07-.72-6.46-5.07-6.98-3.09-.37-5.12-2.21-3.43-5.62,2.1-4.23-.28-5.84-3.58-6.32-4.02-.58-5.06-2.52-4.23-6.27,.67-3.05-.67-5.1-3.74-5.31-3.36-.22-3.89-2.04-3.21-4.81,.87-3.54-.47-5.37-3.92-6.29-1.22-.32-3.17-2.49-2.95-2.98,1.8-4.07-1.49-5.27-3.39-7.46-1.38-1.6-2.06-3.82-3.03-5.78-1.96-3.96-6.81-6.61-5.28-12.14-6.93-1.96-4.33-10.06-8.53-13.81-.57-.51-.63-2.04-1.13-2.14-4.55-.97-5.35-3.67-3.93-7.77,.16-.46-.68-1.75-1.29-1.96-3.55-1.22-3.89-3.61-3.72-6.48-.63-2.28-1.14-4.6-1.93-6.83-.66-1.86-2.01-3.51-2.41-5.4-1.19-5.55-2.13-11.17-3.06-16.77-1.97-11.94-3.87-23.89-5.8-35.84-4.31,.63-5.08,2.96-4.3,6.76,.66,3.23,.88,6.9-4.56,4.16,.77,4.47,1.47,8.49,2.37,13.69-2.98-.83-4.63-1.29-7.1-1.98,.73,2.82,1.42,5.29,2,7.79,1.13,4.85-.15,6.18-3.98,5.3-.36,3.02-.73,6.11-1.1,9.21-1.45-.83-2.91-1.66-4.93-2.82,.63,2.02,1.3,3.81,1.74,5.66,.34,1.46,1,3.97,.46,4.32-2.9,1.86-2.8,4.59-3.3,7.43-.13,.72-3.16,.9-5.84,1.57-.68,.81-2.34,2.44-3.51,4.37-.55,.9-.59,2.64-.09,3.59,1.86,3.53,3.39,6.72-1.39,9.22-.64,.33-.74,1.74-1.2,2.94-1.25-.56-2.26-1.01-3.46-1.54-.11,2.36,.46,5-.52,6.74-.8,1.43-3.44,1.78-5.78,2.85-4.69-6.59-6.09-14.33-6.62-22.26-1.23-18.47,4.89-35.05,13.13-51.02,1.91-3.69,3.91-7.33,5.86-11l-1.7-1.14c-4.76,7.06-9.51,14.12-14.64,21.74-1.07-1.53-1.95-2.79-3.55-5.09,.23,4.51,.41,7.99,.58,11.48-.38,.23-.76,.45-1.14,.68-1.84-1.58-3.67-3.16-6.63-5.69,1.2,4.4,2.28,7.52,2.81,10.74,.23,1.41-.67,3-1.06,4.52-1.22-.7-2.69-1.17-3.6-2.17-1.41-1.54-2.43-3.44-3.62-5.18-.47,.15-.94,.3-1.41,.46,.51,2.66,1.25,5.3,1.45,7.99,.14,1.92-.45,3.89-.71,5.84-1.7-.82-3.42-1.59-5.09-2.47-.55-.29-.97-.85-2.36-1,.56,2.1,1.47,4.18,1.59,6.3,.12,2.11-.54,4.27-.85,6.41-1.46-1.23-2.93-2.43-4.37-3.69-.45-.39-.79-.91-2.03-2.37,.25,4.14,.73,7.09,.47,9.98-.14,1.55-1.57,2.99-2.42,4.47-.93-1.34-2.26-2.56-2.71-4.05-.75-2.49-.94-5.15-1.51-8.63-3.34,7.57,1.79,15.98-3.76,22.04-.64,0-1.28,.01-1.91,.02-.75-5.3-1.5-10.59-2.35-16.57-3.36,8.18,1.75,17.4-3.81,24.42-.63,.01-1.26,.03-1.89,.04-.7-4.36-1.4-8.73-2.27-14.21-.79,7.68,.85,15.04-3.71,20.68l-2.24-.19c-.3-5.17-.59-10.35-.89-15.52-.14,0-.29,0-.43,0-.32,6.41-1.16,12.85-.8,19.21,.32,5.57-3.46,8-6.44,11.16-.15,.15-3.42-1.67-3.65-2.88-1.05-5.65-2.33-11.44-2.08-17.12,1.18-26.98,9.78-50.96,29.97-69.32,8.05-7.31,17.22-13.35,25.87-19.97,2.36-1.81,4.71-3.64,6.63-6.49-2.55,.9-5.05,1.96-7.65,2.63-2.11,.55-4.39,.44-6.51,.98-1.68,.43-3.36,1.17-4.79,2.16-2.89,2-5.5,4.41-8.42,6.35-2.09,1.39-4.39,2.09-3.99-1.64-7.25,3.91-14.48,7.8-22.16,11.95-.42-1.95-.68-3.13-.88-4.06-3.87,2.45-7.62,4.81-11.37,7.18-.47-.51-.94-1.03-1.42-1.54,.92-2.18,1.83-4.35,2.75-6.53-4.23,4.62-7.76,10.11-15.91,11.12,1.92-3.5,3.46-6.28,5.48-9.95-6.81,4.41-9.93,12.93-19.55,12.46,2.3-3.15,4.25-5.83,6.2-8.5-6.04,3.19-9.81,9.82-18.73,10.29,2.16-3.09,3.69-5.29,5.22-7.48-5.91,3.08-9.98,9.54-19,9.54,4.46-5.22,8.17-9.56,11.87-13.89-.13-.13-.25-.26-.38-.38-4.89,4.17-9.68,8.48-14.72,12.46-2.35,1.86-4.95,4.51-8.29,1.24-.36-.35-1.5,.04-2.25,.2-4.65,1.04-9.29,2.11-14.72,2.12,.93-1.43,1.73-2.97,2.81-4.26,23.69-28.38,53.82-44.52,90.1-48.34,24.08-2.54,48.24-4.3,70.73-6.26-12.27-3.04-26.35-4.06-40.66-1.19-2.55,.51-5.37-.37-7.98-1.8-3.8,1.71-7.51,3.74-11.44,5.02-2.12,.69-4.64,.08-6.99,.12-1.05,.02-2.15,0-3.13,.3-3.01,.91-5.97,3.5-8.74-.89-.41-.64-3.82,.66-5.83,1.1-2.63,.58-5.72,2.24-5.75-1.72-6.21,1.5-12.6,3.05-18.99,4.59-.23-.59-.46-1.18-.7-1.77,2.09-1.97,4.19-3.93,6.28-5.9-7.83,1.91-14.29,8.54-24.84,5.57,5.98-4.12,10.84-7.47,15.71-10.83-9.82,2.75-17.58,11.16-28.58,9.63-.33-.53-.65-1.06-.98-1.59,6.45-4.42,12.89-8.84,19.34-13.26-10.89,3.69-20.5,11.26-32.5,10.84-.26-.52-.52-1.04-.78-1.56,1.68-1.43,3.35-2.86,6.2-5.28-7.2,2.54-12.75,6.7-19.34,5.09-.29-.54-.57-1.08-.86-1.62,4.61-3.36,9.15-6.82,13.83-10.07,19.66-13.67,41.65-18.87,65.19-19.45,24.81-.61,48.68,4.47,72.44,10.66,9.28,2.42,18.42,5.39,28.03,7.61-7.91-4.76-15.83-9.52-24.6-14.8,2.47-1.45,3.81-2.23,5.78-3.38-4.98-.74-9.43-1.39-15.32-2.27,2.54-2.81,3.8-4.2,6.11-6.75-3.34,.76-5.31,1.47-7.31,1.57-1.65,.08-3.33-.57-5-.89,.69-1.39,1.23-2.9,2.12-4.14,.85-1.18,2.06-2.09,2.56-4.22-2.05,.98-4.03,2.18-6.17,2.88-1.91,.63-4,.72-6.01,1.04v-5.73c-2.75,.89-6.44,3.3-9.59,2.71-2.37-.45-7.68-2.68-3.57-9.42-3.4,2.22-5.26,4.07-7.44,4.65-1.71,.46-3.83-.63-5.77-1.03-.02-.57-.04-1.14-.06-1.7-1.11,.62-2.19,1.35-3.36,1.84-.99,.42-2.09,.57-4.33-.11,1.33-2.43,2.66-4.87,4-7.3-.14-.15-.29-.29-.43-.44-1.52,1.81-2.88,3.81-4.62,5.37-1.25,1.12-3,1.67-4.53,2.47-.57-1.4-1.13-2.79-1.65-4.07-1.74,2.07-3.67,4.36-5.6,6.66-.5-.24-.99-.49-1.49-.73,.21-1.98,.42-3.95,.65-6.06q-5.3,6.99-7.9,4.19c-2.18,.83-4.26,1.61-6.34,2.4-.3-.45-.61-.91-.91-1.36,1.1-1.78,2.05-3.69,3.34-5.32,14.39-18.26,32.64-29.41,55.99-29.97,5.27-.13,10.98,1.48,15.82,3.77,16.74,7.92,29.29,20.92,39.57,36.25,4.66,6.95,8.84,14.23,13.73,22.16-1.98-16.78-2.7-32.59,.34-48.46,3.79-19.77,12.12-37.06,24.51-52.72,16.72-21.13,38.56-34.06,63.13-42.95,8.3-3,16.74-5.63,25.16-8.27,1.63-.51,3.48-.28,5.73-.43-.28,5.9-4.79,6.95-7.97,9.25-2.01,1.45-3.88,3.09-5.79,4.68-3.03,2.53-6.04,5.08-9.56,8.04,2.13,6.3-6.77,6.13-8.24,11.72-1.76,6.65-9.55,2.49-13.56,5.05,1.38,1,2.84,2.06,4.3,3.13-1.36,1.34-2.52,3.09-4.13,3.94-2.45,1.29-5.21,1.96-7.89,2.92,1.82,1.22,3.43,2.29,5.04,3.37-1.52,1.66-2.77,3.83-4.62,4.89-3.57,2.04-7.49,3.45-10.8,4.91,1.55,1.23,3.05,2.43,4.56,3.63-1.32,1.57-2.42,3.46-4.03,4.63-1.83,1.34-4.11,2.05-6.35,3.1,5.34,2.94,5.43,4.82,.44,8.38-1.62,1.15-3.54,1.86-5.3,2.82-1.71,.93-3.39,1.92-5.69,3.23,2.3,.62,3.8,1.02,5.36,1.44,.62,5.93-4.45,7.68-7.52,11.28,1.29,.85,2.43,1.6,4.67,3.09-3.03,3.73-5.95,7.33-9.11,11.22,3.06,1.55,1.38,4.28-.29,6.82-2.62,3.98-5.36,7.67-5.73,12.88-.25,3.54-2.08,6.96-2.52,11.03,20.58-35.23,49.17-61.05,85.72-77.59,36.99-16.74,75.05-17.91,113.74-9,.14,.85,.28,1.71,.42,2.56-3.09,.79-6.18,1.59-9.46,2.43-2.97,8.9-11.02,2.09-16.15,4.97,1.13,.79,2.39,1.66,4.37,3.04-9.07,6.54-18.58,1.07-28.27,2.96,4.76,1.15,8.64,2.1,12.52,3.04-.04,.71-.09,1.42-.13,2.13-11.06,5.16-22.88,1.53-34.44,2.18,5.55,1.23,11.1,2.46,16.66,3.69-.07,.59-.14,1.18-.21,1.76-4.72,3.13-10.16,3.06-15.58,3.07-5.31,0-10.62,0-16.09,.75,2.96,.81,5.92,1.62,8.88,2.43-.03,.55-.06,1.09-.09,1.64-4.02,3.19-9.17,2.67-13.87,3.39-4.91,.75-9.9,.93-16.08,1.46,4.04,1.46,7.07,2.55,10.1,3.65l.08,2c-9.15,3.41-18.84,4.85-29.39,6.64,1.44,.86,2.27,1.19,2.89,1.76,.79,.72,2.07,1.76,1.94,2.42-.17,.87-1.38,1.84-2.34,2.2-3.42,1.29-6.93,2.34-10.74,3.6,1.48,4.58-1.46,6.48-4.93,7.62-4.53,1.5-9.19,2.61-13.96,3.93,4.51,3.4,4.34,5-.48,7.85-9.4,5.56-18.78,11.15-27.79,17.53,33.36-16.55,67.39-28.43,105.18-20.26,1.59,.34,3.02,1.47,4.53,2.23-.05,.69-.1,1.38-.15,2.06-4.04,.53-8.08,1.06-12.47,1.64,1.88,3.63-.41,4.86-3.75,5.45-3.28,.58-6.7,.28-8.69,4.43-.67,1.4-4.51,1.36-6.93,1.7-1.79,.25-3.65,.05-6.32,.05,2.21,1.29,3.74,2.18,6.09,3.56-1.69,1.18-2.59,2.16-3.68,2.49-1.9,.57-3.97,1.2-5.88,.97-10-1.18-19.15,2.87-28.66,4.62-2.75,.5-6.11,.43-7.11,4.44-.16,.66-2.3,1.06-3.55,1.14-2.8,.17-5.62,.05-7.57,.05,10.64,2.58,22.36,4.32,33.31,8.28,26.46,9.58,47.2,27.06,61.99,51.36,3.22,5.29,4.07,12.09,5.86,18.23,.28,.96-.22,2.15-.35,3.24-.46,.21-.92,.43-1.38,.64-2.03-2.99-4.06-5.97-6.28-9.24-.07,1.16,.08,2.43-.28,3.52-.47,1.41-1.35,2.68-2.06,4.01-1.05-1.31-2.73-2.48-3.04-3.95-.94-4.46-1.35-9.03-2.02-14-2.79,4.92,.07,11.29-4.41,15.07-.62-.02-1.25-.05-1.87-.07-.61-6.84-1.22-13.69-1.83-20.53-.16-.03-.31-.06-.47-.08-.54,3.97-.88,7.98-1.72,11.89-.29,1.34-1.84,2.4-2.82,3.59-.66-1.37-1.77-2.71-1.89-4.13-.48-5.55-.66-11.13-.98-17.48-1.94,4.81-3.58,8.87-5.22,12.92-.78-.16-1.55-.32-2.33-.49-.22-4.21-.45-8.43-.71-13.48-1.77,3.7-3.07,6.83-4.76,9.73-.55,.94-2.1,1.27-3.19,1.88-.37-1.17-1.06-2.35-1.05-3.52,0-2.33,.39-4.66-.15-7.35-1.7,2.32-3.18,4.88-5.19,6.88-1.11,1.11-3.1,1.3-4.69,1.91-.29-1.53-.92-3.08-.8-4.58,.34-4.36,.98-8.69,1.67-14.44-2.37,5.66-3.98,9.97-6.02,14.07-.6,1.21-2.42,1.8-3.68,2.68-.4-1.48-.99-2.93-1.13-4.43-.14-1.43,.18-2.91,.3-4.37-.43-.33-.86-.65-1.28-.98-1.12,2.17-2.23,4.34-3.35,6.5-.55-.37-1.1-.73-1.65-1.1-.41-1.5-.83-3-1.16-4.23-1.47,.69-2.96,1.4-4.45,2.1-.57-1.94-1.51-3.87-1.63-5.84-.16-2.71,.29-5.46,.47-8.07-2.4,2.95-4.51,5.53-6.61,8.12-1.13-1.41-2.26-2.83-3.56-4.46-5.86,1.46-7.05-5.64-11.39-7.7-7.49,3.83-10.31-6.52-14.01-6.18,4.15,5.04,9.34,11.56,14.77,17.88,19.17,22.28,35.57,46.64,51.32,71.44,14.47,22.79,28.48,45.89,42.5,68.98,2.48,4.08,4.05,8.75,5.99,13.03,2.14-2.38,3.92-4.37,5.7-6.36,1.18,2.49,2.4,4.96,3.53,7.48,2.74,6.15,5.25,12.42,8.28,18.42,.82,1.62,3.14,2.45,4.77,3.64,.57-1.62,1.14-3.24,1.72-4.85,.67-1.84,.95-4.02,2.1-5.46,3.44-4.29,4.06-8.85,2.9-14.14-.35-1.62,1.09-3.64,1.71-5.48,1.54,.86,4.09,1.43,4.44,2.64,1.93,6.81,3.72,13.71,4.7,20.71,.36,2.57,.42,4.35,2.34,6.5,2.36,2.63,4.17,6.23,5.04,9.72,4.24,17.03,5.81,34.38,4.88,50.63,2.53,1.61,5.26,2.34,5.69,3.78,3.49,11.81,6.55,23.75,8.65,36.15,.84-1.74,1.67-3.49,3.13-6.53,12.15,17.15,13.35,35.59,13.24,54.54,.86-3.91,1.71-7.82,2.99-13.61,4.03,5.03,8.12,8.65,10.36,13.21,6.33,12.89,11.35,26.46,17.9,39.22,6.93,13.5,15,26.4,22.64,39.52,.54,.93,1.6,1.56,2.44,2.35,4.42-6.77,4.54-8.96,.12-14.7-16.77-21.82-29.18-46.2-40.4-71.26-1.8-4.01-2.8-8.39-4.17-12.6,.49-.36,.99-.72,1.48-1.08,5.68,3.86,11.37,7.71,17.05,11.57,.19-.24,.38-.48,.57-.72-6.79-7.99-13.92-15.71-20.28-24.04-6.3-8.24-11.18-17.38-13.35-27.65,.43-.39,.85-.77,1.28-1.16,8,5.2,15.99,10.4,23.99,15.59,.12-.17,.25-.34,.37-.5-4.45-4.95-9.03-9.79-13.33-14.88-10.6-12.52-16.84-27.16-19.72-43.35-1.02-5.72-.95-5.74-6.47-6.07,1.43-3.82,2.61-7.34,4.21-10.64,.16-.34,3.38,.1,4.34,1.06,4.15,4.15,8.03,8.59,11.92,13,1.22,1.38,2.18,3,3.53,3.93-4.93-10.21-10-20.35-14.72-30.66-1.73-3.77-2.47-7.82,1.76-10.94,3.9-2.88,5.39-2.56,7.44,2.01,.46,1.02,.94,2.04,1.64,3.57q1.44-11.18,5.47-12.55c-2.87-6.97-6.12-13.8-8.48-20.92-2.32-6.99-3.87-14.26-5.43-21.48-.34-1.55,.73-3.42,1.15-5.15,1.63,.93,3.63,1.51,4.82,2.84,4.67,5.18,9.08,10.6,14.52,15.27-2.62-5.42-5.62-10.68-7.76-16.29-2.83-7.4-4.98-15.07-7.4-22.64-.2-.63-.41-1.41-.23-2,.76-2.62,1.67-5.19,2.52-7.78,2.27,1.33,5.1,2.18,6.7,4.09,3.5,4.2,6.38,8.94,9.52,13.46,.51-.25,1.02-.49,1.53-.74-2.66-6.39-5.18-12.85-8.02-19.15-2.59-5.76-6.51-11.1-8.06-17.1-1.79-6.93-1.68-14.38-2.28-21.62-.07-.87,.61-1.8,2.43-3.43,4.91,7.98,9.82,15.96,14.65,23.82-.49-11.37-.97-22.74-1.46-34.11,.81-.35,1.62-.7,2.44-1.04,3.77,4.52,7.54,9.04,12.33,14.78,.24-3.9,.47-6.18,.51-8.46,.07-4.7,.47-9.46-.11-14.08-.37-2.93-2.25-5.65-3.66-8.96,.79-1.04,3.16-2.83,3.57-5.01,.64-3.42,1.39-7.75-3.91-9-.25-.06-.51-2.97,.11-3.52,3.85-3.41,4.28-9.14,1.07-13.2-.8-1-1.04-3.32-.46-4.46,2.78-5.41,2.01-9.33-2.73-13.23-.59-.48-.39-3.25-.12-3.32,6.47-1.78,2.76-6.46,2.84-10.01,.06-2.53-.03-5.05,.02-7.58,.07-3.63,2.11-7.83-4.01-8.99-2.74-.52-2.78-3.01-.42-4.91,5.73-4.61,5.41-8.75-.88-11.96-2.65-1.35-2.17-2.92-.19-4.62,4.59-3.95,4.18-8.32-1.03-11.63-2.43-1.54-1.7-2.65,.22-4.12,4.04-3.1,3.7-8.44-.75-10.96-2.57-1.45-3.27-2.78-.87-4.91,4.53-4.03,3.65-9.33-1.93-11.69-.42-.18-.74-.61-1.38-1.15,.51-.82,.81-2.01,1.5-2.32,3.24-1.43,3.07-3.85,2.5-6.77-.56-2.86-.93-5.38-4.77-5.07-.66,.05-1.99-1.44-2.01-2.24-.02-.87,.97-2.02,1.81-2.6,4.34-2.97,4.37-7.65-.34-9.92-3.48-1.67-3.38-2.92-.82-5.43,2.73-2.67,1.65-7.59-1.97-8.95-3.33-1.25-3.62-2.47-.94-4.82,3.17-2.77,2.66-8.54-1.06-10.37-2.98-1.47-3.38-2.59-.99-5.15,2.9-3.1,2.22-7.18-1.54-9.19-2.75-1.47-2.69-2.72-1.16-5.12,2.37-3.69,1.75-6.89-2.11-9.41-.94-.62-1.99-2.49-1.72-3.39,2.34-7.86,2.43-7.84-2.85-11.97,.43-2.75,2.07-6.43,1-7.63-3.36-3.8-5.34-7.06-4.26-12.68,.33-1.74-2.63-5.16-1.86-8.52,.13-.56-.63-1.84-1.18-1.99-7.08-1.89-6.9-8.71-8.4-13.8-1.74-5.9-5.54-9.31-9.85-12.96-1.5,1.3-2.68,2.33-4.12,3.59-1.14-3.85-2.16-7.31-3.18-10.76-3.82,12.37,.53,23.69,3.99,35.9-6.82-2.4-8.71-7.35-11.58-26.77-4.18,8.69-.89,17.53-2.61,25.89-5.25-6.96-5.38-14.7-3.89-22.6-1.58,.7-3.1,1.38-4.61,2.05,0-2.01-.55-4.24,.11-6,1.17-3.14,3.05-5.99,4.88-9.42-1.58,.18-2.85,.32-5.03,.56,.48-7.42,5.62-11.59,8.39-17.3-3.35,3.56-6.57,7.26-10.13,10.59-1.11,1.04-3.12,1.07-4.71,1.56-.03-1.96-.78-4.37,.06-5.8,1.94-3.29,4.65-6.12,7.05-9.13-.34-.37-.68-.74-1.02-1.11-4.06,4.04-7.93,8.3-12.23,12.05-3.63,3.17-7.7,5.82-11.67,8.56-4,2.76-8.08,5.41-12.18,7.99-4.13,2.6-5.49,1.76-5.76-3.3-.23-4.28-.51-8.56-.78-12.83-.7-.1-1.4-.19-2.1-.29-1.18,3.7-2.85,7.33-3.43,11.12-1.19,7.87-4.17,14.14-10.67,19.18-7.52,5.84-14.17,12.84-21.31,19.2-1.24,1.1-3.03,1.56-4.56,2.31-.52-.31-1.04-.62-1.56-.93,2.04-7.86,4.09-15.71,6.13-23.57-.41-.15-.81-.29-1.22-.44-2.35,6.52-4.58,13.09-7.09,19.55-1.25,3.22-2.58,6.56-4.59,9.3-4.29,5.82-8.96,11.36-13.7,16.81-1.06,1.22-3.04,1.61-4.6,2.38-.23-1.7-.88-3.47-.61-5.09,1.32-7.99,2.89-15.93,4.37-23.89-.56-.15-1.11-.29-1.67-.44-2.16,8-4.32,16-6.5,23.99-.98,3.59-1.8,7.26-3.15,10.71-.5,1.27-2.31,2-3.53,2.98-.78-1.35-2.19-2.68-2.24-4.06-.23-6.92-.11-13.86-.39-20.89-.9,8.94-1.74,17.88-2.73,26.81-.24,2.15-.77,4.33-1.58,6.32-.35,.86-1.79,1.88-2.59,1.77-.76-.11-1.85-1.55-1.92-2.48-.47-6.41-.72-12.84-1.02-19.27-.05-.97,0-1.95-.95-2.97-.62,8.92-1.25,17.85-1.86,26.77-.07,1.02,.31,2.45-.21,2.97-1.71,1.73-3.57,3.79-5.72,4.36-.95,.25-3.9-2.71-3.97-4.3-.8-16.98-.73-33.83,4.27-50.42,9.04-30,25.02-55.31,47.87-76.18,6.04-5.52,12.43-10.65,18.99-16.24-5.35-3.11-2.48-5.72,.24-7.25,9.59-5.41,19.37-10.49,29.15-15.54,3.06-1.58,6.34-2.69,10.01-4.21-10.15-2.05-19.62-3.76-28.97-5.97-4.01-.95-7.84-2.83-11.66-4.48-3.34-1.44-3.74-3.75-1.01-6.22,5.45-4.93,11-9.74,16.27-15.36-6.18,2.02-12.37,4-18.53,6.06-11.47,3.83-23.14,6.48-35.3,5.86-3.98-.2-7.95-.79-11.88-1.48-1.16-.2-2.16-1.34-3.23-2.04,.76-1.18,1.26-2.81,2.33-3.47,8.09-4.99,16.3-9.79,25.64-15.34-14.83,3.84-28.41,7.4-42.01,10.87-10.3,2.63-20.71,3.27-31.18,1.21-1.31-.26-2.47-1.34-3.7-2.04,.94-1.24,1.62-2.89,2.84-3.67,9.32-5.9,18.75-11.63,27.98-17.96-9.33,3.45-18.58,7.12-28,10.29-21.49,7.25-43.03,14.32-64.62,21.24-2.21,.71-4.89-.1-7.35-.21,1.43-2.12,2.46-4.77,4.37-6.28,9.83-7.77,19.88-15.24,29.24-23.86-9.35,5.96-18.86,11.66-28,17.94-13.36,9.18-26.43,18.81-39.7,28.15-1.81,1.27-4.02,1.95-6.05,2.9-.51-.44-1.01-.87-1.52-1.31,1.25-2.24,2.12-4.86,3.82-6.67,7.26-7.72,14.77-15.2,22.17-22.79,1.27-1.3,2.49-2.67,3.4-4.39-22.1,17.84-39.72,41.16-64.41,55.76l-1.64-1.22c.72-1.59,1.08-3.52,2.21-4.71,15.61-16.46,31.31-32.83,47.05-49.16,1.24-1.29,2.96-2.09,4.46-3.12-.48-.52-.96-1.03-1.45-1.55-7.14,6.17-14.75,11.88-21.34,18.62-16.91,17.3-33.27,35.15-50.07,52.57-5.57,5.78-11.77,10.94-17.76,16.31-.76,.68-1.94,.89-4.09,.57,2.04-5.23,3.48-10.8,6.22-15.61,8.26-14.5,16.31-29.21,25.72-42.93,29.11-42.46,67.55-70.79,118.47-80.47,27.55-5.23,55.22-7.01,83.03-5.53,26.16,1.39,51.19,8.57,75.29,19.03,26.55,11.52,52.28,24.67,76.82,40.16,6.73,4.25,13.26,8.8,20.67,12.36-3.78-3.71-7.61-7.37-11.34-11.14-7.11-7.16-14.1-14.45-21.27-21.55-2.75-2.72-2.83-4.9-.06-7.68,2.9-2.91,5.42-6.2,8.11-9.33-.35-.43-.69-.86-1.04-1.29-1.1,.67-2.33,1.18-3.27,2.03-1.86,1.69-3.61,3.51-5.32,5.36-2.76,2.98-5.28,2.8-7.16-.76-4.35-8.25-10.72-11.88-19.96-9.98-2.08,.43-4.32,.14-6.49,.02-4.53-.25-5.39-1.76-3.03-5.76,5.2-8.82,11.53-16.63,20.16-22.25,2.08-1.35,4.08-2.83,5.82-5.12-3.56,.81-7.14,1.56-10.68,2.44-13.4,3.35-27.02,3.72-40.71,3.14-1.32-.06-2.68-.26-3.92-.7-1.33-.47-2.53-1.29-3.79-1.96,.83-1.34,1.35-3.16,2.53-3.96,7.51-5.02,15.17-9.82,22.79-14.68,.96-.61,1.97-1.15,2.73-1.59-11.72,.53-23.55,1.53-35.38,1.42-7.42-.07-14.85-1.73-22.24-2.86-1.14-.17-2.14-1.33-3.21-2.03,.79-1.17,1.33-2.83,2.42-3.43,6.31-3.44,12.76-6.63,19.16-9.9,2.03-1.04,4.07-2.07,5.88-3.87-5.39,.46-10.78,.84-16.16,1.38-11.4,1.16-22.61,.16-33.59-3.11-1.42-.42-2.56-1.84-3.83-2.79,.96-1.27,1.75-2.73,2.91-3.76,2.12-1.88,4.46-3.51,6.71-5.24,33,0,65.99,0,98.99,0,18.01,13.2,35.42,27.12,50.84,43.52-.22-1.77-.88-3.15-1.26-4.6-1.33-5.06,1.77-12.88,5.49-13.34,9.75-1.2,15.54-9.09,23.04-14.05,1.02-.68,.66-3.54,.93-5.39-1.49,0-3-.13-4.48,.02-7.85,.82-15.69,1.93-23.56,2.44-2.17,.14-4.44-1.44-6.66-2.23,1.22-2.13,2.43-4.25,3.65-6.38,45.66,0,91.32,0,136.98,0V1023.87h-326.96Zm107.99-313.77c1.86,2.73,3.72,5.46,5.57,8.19l1.13-.68c-.76-2.92-1.52-5.85-2.22-8.55-1.63,.36-3.03,.67-4.44,.98,.25-2.66,.16-5.4,.82-7.94,.79-3.01,.02-4.5-2.91-5.11-6.05-1.27-7.24-3.47-5.28-9.49,1.45-4.44-.86-9.75-5.17-10.83-3.31-.83-3.99-2.25-2.86-5.41,1.67-4.65,.17-7.2-4.8-8.1-2.9-.53-3.65-2.11-2.96-4.64,1.66-6.07,.02-8.99-5.99-11.77-1.22-.56-2.65-3.35-2.23-4.38,1.64-4.08-.21-6.26-3.35-7.75-2.43-1.16-3.76-2.44-3.16-5.41,.78-3.83-1.3-6.28-4.64-7.3-3-.92-5.02-1.8-3.5-5.58,.31-.76-.32-2.67-.99-2.97-5.83-2.63-4.62-9.4-7.73-13.73-1.55-2.15-1.32-5.04-5.09-5.14-.7-.02-1.27-3.16-1.99-4.82-.98-2.22-1.7-5.97-3.14-6.3-4.29-.97-5.83-2.7-4.51-7,.18-.58,.07-1.76-.25-1.91-4.86-2.28-7.1-6.4-8.88-11.35-1.06-2.95-3.79-5.28-5.74-7.9-1.08-1.45-1.92-3.15-3.21-4.37-4.62-4.41-9.19-8.89-14.15-12.89-3.67-2.96-7.9-5.21-13.19-8.61,.4,4.88,.74,7.99,.9,11.1,.99,18.9,5.08,37.14,14.27,53.55,11.95,21.32,24.19,42.59,37.9,62.74,13.82,20.3,29.59,39.22,44.52,58.72,6.19,8.09,12.43,16.14,18.65,24.21-1.07-11.74-7.01-21.82-9.2-32.9,.51-.21,1.02-.41,1.53-.62,2.09,1.32,4.18,2.64,6.27,3.96Zm202.84-230.08c0-3.7,.08-7.42-.04-11.13-.05-1.47-.1-3.71-.96-4.25-3.65-2.28-2.91-5.72-3.03-9.04-.19-4.91-.56-9.81-.71-14.71-.08-2.7-.16-5.46,.29-8.09,.64-3.71,2.43-7.31,2.58-11,1.11-26.93,1.98-53.87,2.75-80.81,.07-2.44-.76-5.04-1.69-7.35-15.21-37.76-35.35-72.63-59.88-104.83-4.96-6.51-10.94-12.33-17.06-17.74-2.43-2.14-6.7-3.51-9.84-3.07-3.93,.54-7.7,3.08-11.25,5.25-1.03,.63-1.91,3.43-1.39,4.46,3.87,7.67,2.75,15.46,1.36,23.39-.36,2.07-.56,4.52,.17,6.39,11.53,29.72,21.15,60.06,27.82,91.28,4.28,20.02,8.11,40.2,10.88,60.49,3.56,26,6.37,52.14,8.58,78.3,2.69,31.75,5.07,63.55,6.3,95.38,.75,19.27-.94,38.64-1.51,57.97-.05,1.76,0,3.51,0,6.78,2.9-4.27,4.93-7.25,6.95-10.23,.52,.18,1.04,.36,1.57,.54,2.08,6.72,2.57,13.8,1.88,20.72-1.31,13.14-3.42,26.2-5.04,39.31-.18,1.48,.29,3.33,1.07,4.62,5.21,8.58,10.59,17.06,15.92,25.56,2.04,3.26,4.08,6.52,6.12,9.77,.71-1.38,.51-2.18,.32-2.99-3.88-16.32-7.88-32.61-11.55-48.98-.8-3.59-.44-7.45-.61-11.18,.66-.32,1.31-.63,1.97-.95,3.38,3.43,6.76,6.87,11.24,11.42-.59-2.99-.92-4.54-1.2-6.1-3.52-19.16-7.07-38.32-10.46-57.51-.28-1.59,.58-3.38,.92-5.08,1.41,.93,3.29,1.54,4.14,2.85,3.94,6.09,7.56,12.39,11.37,18.57,1.92,3.12,4.01,6.13,6.02,9.19-.09-3.47-1.11-6.33-2.03-9.23-3.52-11.11-7.14-22.2-10.36-33.4-.61-2.13,.42-4.75,.69-7.14,1.83,1.2,3.65,2.41,5.5,3.58,.17,.11,.52-.08,.97-.16-.24-.82-.4-1.65-.72-2.41-6.92-15.92-9.2-32.76-10.36-49.97-1.02-15.17-6.71-28.84-15.08-41.4-1.13-1.69-1.29-4.04-1.9-6.09,2.13,.35,4.29,.6,6.39,1.1,.74,.18,1.41,.9,1.98,1.5,4.43,4.6,8.86,9.21,13.23,13.86,4.63,4.92,9.21,9.89,13.81,14.84,.57-.19,1.15-.38,1.72-.57-.47-7.17-.92-14.34-1.42-21.5-.38-5.41-1.02-10.81-1.2-16.22-.11-3.28,.69-6.28,4.77-4Zm-20.65-276.49c-.31,.49-.62,.99-.93,1.48,.76,.56,1.47,1.2,2.27,1.66,5.06,2.93,10.25,5.66,15.16,8.84,1.23,.8,1.6,2.98,2.36,4.53-1.67,.12-3.34,.38-5,.31-1.07-.05-2.11-.72-3.19-.86-2.72-.37-5.63-.08-8.15-.98-5.64-2.01-11.11-4.51-16.6-6.93-5.35-2.36-10.63-4.86-15.79-7.24,16.7,22.07,33.29,44,50.47,66.7,.09-18.57,5.3-35.89,.73-54.85-6.33-3.76-13.82-8.22-21.31-12.67Zm-22.36,502.03c-.34-.04-.67-.08-1.01-.12,1.47,27.35,2.68,54.73,4.63,82.05,.41,5.72,3.7,11.15,8.63,14.9-3.94-18.17-10.35-35.83-7.65-54.69l1.47-.57c3.64,4.15,7.28,8.3,10.3,11.76-5.33-17.35-10.85-35.34-16.37-53.33Zm-131.4,109.11c4.84-8.65,6.39-17.26,1.63-21.96-2.51,.8-5.37,2.46-6.06,1.8-3.96-3.83-7.31-8.3-11.08-12.34-1.27-1.36-3.18-2.09-5.61-3.62,2.7,15.97,15.99,23.04,21.12,36.12Zm120.66-685.37l.98,.39c.24-.23,.53-.42,.71-.68,12.13-17.8,24.31-35.57,36.22-53.52,.73-1.1-.67-3.65-1.07-5.53-1.39,.64-3.38,.89-4.06,1.99-5.42,8.73-10.73,17.55-15.81,26.49-5.8,10.21-11.32,20.57-16.97,30.87Zm61.2,15.77c-.22-.83-.43-1.66-.65-2.49-10.59,3.04-21.17,6.08-31.76,9.12,.11,.44,.23,.88,.34,1.31,10.86-1.98,21.75-3.87,32.07-7.95Zm-2.7,62.73c-2.32-5.87-17.34-12.29-26.06-11.48,8.68,3.82,17.08,7.52,26.06,11.48Zm-100.05-148.57c.3,.3,.61,.59,.91,.89,5.21-5.62,10.42-11.24,15.62-16.85-.14-.13-.27-.26-.41-.39-5.37,5.45-10.75,10.9-16.12,16.35Zm80.28,128.33c-.1,.4-.2,.8-.29,1.2,6.54,1.83,13.09,3.67,19.63,5.5,.13-.54,.26-1.09,.4-1.63-6.58-1.69-13.16-3.38-19.74-5.08Zm-29.46,648c.69-.19,1.37-.37,2.06-.56-1.42-5.01-2.85-10.01-4.27-15.02-.52,.14-1.05,.28-1.57,.43,1.26,5.05,2.53,10.1,3.79,15.15Zm50.23-720.61l-.97-1.28c-3.68,2.52-7.35,5.04-11.03,7.56,3.96-2.18,9.61-1.58,12-6.28Zm-200.1,685.37c.51-.11,1.03-.22,1.54-.33-.47-2.47-.93-4.93-1.6-8.42-5,4.59-1.24,6.44,.06,8.75Zm51.11,8.77h.79v-11.56h-.79v11.56Zm-18.28-67.71c-.23-4.42,2.61-9.09,.57-13.37-.56,.04-1.13,.09-1.69,.13,.37,4.41,.74,8.83,1.12,13.24Z"/>
      <path class="cls-1" d="M391.95,0c1.99,1.23,4.12,2.27,5.94,3.73,1.48,1.19,2.58,2.86,3.85,4.32-1.52,1.11-2.92,2.88-4.59,3.21-8.14,1.6-16.32,3.26-24.56,4.02-7.09,.66-14.29,.14-22.52,.14,7.3,4.17,13.74,7.77,20.07,11.54,1.33,.79,2.28,2.23,3.41,3.37-1.41,1-2.77,2.77-4.25,2.89-11.57,.89-23.16,1.8-34.75,1.98-5.9,.09-11.82-1.31-18.08-1.46,2.36,1.38,4.77,2.69,7.08,4.17,5.63,3.61,11.29,7.17,16.75,11.03,1.45,1.03,2.23,3.05,3.32,4.61-1.89,.85-3.8,2.46-5.67,2.42-9.29-.21-18.61-.57-27.86-1.45-6.55-.63-13.01-2.18-19.1-3.24,5.43,6.98,11.12,13.74,16.12,21,1.94,2.81,2.31,6.74,3.39,10.16-3.63,.67-7.26,1.91-10.88,1.87-5.97-.07-11.92-1.13-17.89-1.42-1.62-.08-3.91,.59-4.86,1.77-10.58,13.24-24.74,22.13-37.78,32.31-13.75,10.72-28.11,20.62-42.2,30.89-.64,.46-1.19,1.04-1.31,2.32,6.41-3.75,12.75-7.64,19.25-11.22,17.42-9.6,34.42-20.18,52.48-28.34,26.39-11.94,54.07-20.04,83-23.31,20.79-2.35,41.48-2.97,62.24-.02,19.42,2.76,37.51,9.62,54.32,19.51,10.17,5.98,19.95,12.99,28.89,20.75,16.24,14.1,28.38,31.77,39.27,50.37,9.86,16.85,17.42,34.69,22.83,53.48,1.32,4.58,2.15,9.31,2.57,14.19-27.56-23.59-43.81-56.52-68.5-82.25,9.84,17.01,24.26,30.99,32.22,49.63-4.54,1.81-6.83-.95-8.86-3.08-6.24-6.56-12.3-13.31-18.21-20.18-11.51-13.39-22.62-27.15-34.4-40.28-6.19-6.9-13.47-12.79-20.7-18.68,17.94,19.52,36.55,38.38,51.43,60.54,.22,.32-.02,.96-.09,2.39-2.02-.68-4.06-.85-5.41-1.92-8.54-6.72-17.15-13.39-25.3-20.58-5.74-5.06-10.79-10.93-16.96-15.79,.24,.54,.56,1.06,.71,1.62,.62,2.45,1.18,4.91,1.76,7.37-2.55-.38-5.44-.11-7.59-1.27-9.41-5.08-18.61-10.56-27.88-15.91-3.67-2.11-7.33-4.24-10.99-6.36-.28,.42-.56,.84-.84,1.25,3.75,2.88,7.51,5.76,11.26,8.65,4.65,3.57,9.36,7.06,13.89,10.79,1.13,.93,1.64,2.63,2.43,3.97-1.67,.32-3.43,1.14-5.01,.87-19.04-3.22-36.97-9.93-54.39-18.24-5.65-2.69-11.58-4.76-17.67-6.41,6.88,4.69,13.79,9.33,20.6,14.11,1.1,.78,1.76,2.21,2.62,3.34-1.23,.65-2.41,1.67-3.71,1.89-13.06,2.13-25.45-.74-37.59-5.44-3.98-1.54-8.02-2.9-11.84-4.27,2.91,3.44,5.75,6.84,8.65,10.18,1.21,1.4,2.64,2.6,3.84,4,3.08,3.59,2.47,5.79-1.83,7.65-15.21,6.57-31.03,10.13-47.56,10.38-.59,0-1.18,.23-2.08,.41,8.06,6.06,15.87,11.74,23.45,17.71,3.01,2.37,5.88,5.1,8.14,8.19,1.48,2.02,1.12,5.47,2.65,7.4,5.84,7.38,12.4,14.16,18.18,21.59,17.49,22.5,27.81,47.92,30.37,76.71,1.31,14.74-.02,29.12-2.95,43.43-.42,2.05-2.56,5.37-3.78,5.31-3.41-.17-5.66-2.92-5.48-6.62,.31-6.6,.95-13.18,1.47-19.77,.28-3.51,.6-7.01,.15-10.6-1.58,7.76-2.97,15.57-4.86,23.26-.43,1.75-2.57,3.07-3.92,4.59-1.06-2.02-3.17-4.16-2.97-6.05,.7-6.65,2.19-13.21,2.24-20.03-1.2,4.72-2.15,9.52-3.73,14.1-.62,1.79-2.64,3.09-4.02,4.61-.88-2.13-2.71-4.37-2.48-6.36,1.09-9.25,2.79-18.42,4.18-27.63,.44-2.94,.61-5.93,.29-8.97-1.47,7.79-2.93,15.59-4.42,23.37-.41,2.16-.58,4.48-1.51,6.4-.92,1.91-2.65,3.41-4.03,5.09-1.16-2.24-3.46-4.57-3.29-6.71,.7-9.12,2.43-18.15,3.19-27.27,.53-6.36,.1-12.8-.02-19.25-2.04,13.74-2.85,27.76-7.37,42.09-5.97-4.31-9.46-8.87-10.06-15.37-1.02-11.25-1.96-22.51-2.93-33.76-.61,.02-1.21,.05-1.82,.07,0,3.2-.11,6.4,.03,9.6,.15,3.38,.62,6.75,.83,10.14,.14,2.37,.26,4.77,.02,7.12-.14,1.37-.99,2.66-1.52,3.99-1.32-.56-3.05-.76-3.9-1.75-7.87-9.11-14.83-18.57-14.79-31.71,.02-5.34-1.65-10.68-2.55-16.02-.75,.08-1.51,.16-2.26,.25v24.98c-3.2-2-5.19-2.86-6.69-4.25-7.64-7.07-15.28-14.16-22.61-21.56-1.17-1.18-1.33-4.04-1.02-5.97,.66-4.22,1.91-8.34,2.92-12.49-.48-.22-.97-.43-1.45-.65-.76,1.1-1.7,2.12-2.26,3.32-6.11,13.13-12.64,25.88-25.77,33.41-1.06,.61-1.65,2.07-2.44,3.14-2.79,3.78-2.65,9.9-8.62,11.17-.36,.08-.64,.75-.87,1.2-2.19,4.2-4.37,8.4-6.52,12.62-2.35,4.63-.12,11.65-7.01,13.9,1.26,6.36-3.32,10.49-5.7,15.45-.57,1.18-1.45,2.2-2.16,3.31-1.88,2.94-4.45,5.69-1.4,9.55,.46,.58-.66,3.57-1.05,3.57-5.62,0-4.48,5-5.83,8.03-1.02,2.28-1.58,4.77-2.49,7.11-1.29,3.32-4.15,6.33-.98,10.31,.47,.59-.91,3.71-2.16,4.56-4.18,2.85-4.95,5.15-3.04,9.83,.36,.89-.55,3.04-1.47,3.63-4.49,2.9-6.19,7.77-3.58,12.31,1.37,2.37,.55,3.1-1.49,4.17-3.79,2-4.71,7.06-2.67,11,.49,.94-.04,3.53-.73,3.82-5.18,2.18-4.83,7.13-5.04,11.2-.11,2.15,.45,3.64-1.36,5.56-2.78,2.93-1.97,8.22,1.54,12.48-1.14,.67-2.51,1.04-3.17,1.95-1.31,1.8-3.52,4.27-3.08,5.79,1.47,5.1,.58,8.98-2.55,13.2-1.17,1.58,.12,5.06-.25,7.43-.81,3.25-1.62,6.5-2.44,9.76-.31,1.25-.45,2.59-.97,3.74-1.79,3.91-4.21,7.79,1.66,11.16-5.05,2.44-5.56,6.03-5.7,10.66-.18,5.9-2.24,11.72-3.13,17.63-.43,2.87,0,5.87-.08,8.81-.03,1.24,.01,2.78-.65,3.66-2.92,3.83-3.73,7.5,.08,11.1-1.58,2.03-3,3.83-4.39,5.66-.19,.25-.08,.75-.29,.96-3.38,3.51,4.78,5.2,1.23,9.18-2.01,2.25-2.84,5.63-4.05,8.56-.25,.62,.17,1.53,.52,3.94,1.41-2.73,1.96-4.24,2.9-5.42,.64-.81,2.04-1.8,2.73-1.57,1.02,.35,2.43,1.73,2.4,2.63-.09,2.82-.43,5.74-1.3,8.4-3.08,9.43-6.43,18.77-8.91,28.77,3.51-2.86,7.01-5.72,10.52-8.58,.47,.23,.94,.46,1.42,.69,.42,9.59-3.89,18.04-7.64,26.63,.46,.41,.91,.83,1.37,1.24,2.01-3.05,4.02-6.09,6.03-9.14,.93,.62,1.85,1.24,2.78,1.87-.54,23.35-8.14,44.73-18.62,65.76,2.97-2.52,5.86-5.12,8.93-7.5,1.09-.84,2.6-1.1,3.92-1.63,.52,1.49,1.81,3.24,1.42,4.42-1.89,5.71-3.54,11.69-6.57,16.78-4.37,7.36-9.86,14.03-14.25,21.88,3.56-2.71,7.09-5.47,10.7-8.12,1.45-1.06,2.96-2.35,4.62-2.71,3.3-.72,5.61,.92,4.5,4.45-2.02,6.37-3.99,12.9-7.17,18.69-4.73,8.6-10.5,16.6-15.92,24.99,6.41-4.64,12.81-9.27,19.21-13.9,.51,.45,1.02,.91,1.53,1.36-2.73,20.88-14.61,36.6-28.67,51.53,6.95-3.66,13.89-7.32,20.84-10.99,.47,.48,.95,.96,1.42,1.44-4.16,19.11-16.63,32.73-30.24,45.96,3.35-1.61,6.65-3.33,10.07-4.76,1.27-.53,3.27-.96,4.12-.31,.77,.59,.94,2.89,.49,4.09-2.27,5.99-4.36,12.13-7.36,17.75-10.22,19.15-22.3,37.11-36.62,53.27-6.42,7.25-1.08,12.62-.07,18.82,.45,.19,.9,.39,1.35,.58,4.35-5.9,8.82-11.7,13.01-17.71,12.91-18.51,22.1-39.05,31.47-59.53,3.32-7.27,8.43-13.69,12.88-20.4,.85-1.28,2.38-2.08,4.05-3.48,.9,2.55,1.54,4.37,2.4,6.79,2.28-14.63,5.13-28.28,18.45-37.85,1.85,7.5,3.49,14.13,5.48,22.2,2.64-31.81,9.75-60.89,23-88.22,.63,.02,1.25,.04,1.88,.05,1.11,18.32,2.22,36.63,3.35,55.32,1.1-11.14,2.03-21.96,3.29-32.75,.49-4.18,1.6-8.31,2.74-12.38,.35-1.26,1.74-2.22,2.66-3.32,.91,1.08,1.91,2.1,2.72,3.27,.64,.94,1.05,2.05,2.88,3.17,.71-5.33,1.34-10.67,2.15-15.99,.84-5.5,2.45-10.7,6.96-16.28,.73,3.71,1.19,6.05,1.7,8.62,.49-.25,1.1-.35,1.21-.64,6.28-17.1,18.83-29.66,29.88-43.36,12.16-15.07,24.09-30.35,35.7-45.87,8.44-11.28,16.21-23.09,24.26-34.68,.35-.51,.49-1.18,1.18-2.92-2.3,.65-3.73,1.06-5.16,1.45-1.59,.43-3.45,1.6-4.72,1.13-3.38-1.24-6.16-1.05-8.97,1.3-.53,.44-2.27,.09-2.96-.5-6.34-5.37-9.46-4.51-11.44,3.26-.16,.61-.63,1.14-1.08,1.89-1.49-.46-2.87-.89-4.23-1.31-1.12,1.54-2.22,3.05-4.04,5.55-.88-2.61-1.38-4.08-1.69-4.98-.8,2.88-1.77,6.38-2.74,9.88-.64-.09-1.27-.17-1.91-.26-.51-1.69-1.02-3.39-1.62-5.38-.31,2.36-.46,4.57-.95,6.71-.24,1.05-1.45,2.86-1.64,2.79-3.24-1.24-4.56,1.18-5.73,4.04-.38-.24-.76-.49-1.14-.73-.32-1.13-.97-2.28-.92-3.4,.59-12.51,6.74-21.83,16.87-28.25,9.59-6.07,20.13-9.73,31.59-10.04,.99-.03,1.98-.21,2.96-.41,.26-.05,.47-.41,2.03-1.88-5.97-.44-10.73-.82-15.49-1.12-3.85-.24-7.71-.51-11.56-.49-1.27,0-2.59,.76-3.78,1.38-2.6,1.35-5.04,3.04-7.72,4.16-.87,.36-2.84-.3-3.3-1.1-.51-.89-.23-2.69,.37-3.68,.84-1.39,2.15-2.64,3.52-3.54,12.73-8.33,26.06-12.9,41.09-6.62,2.4,1,4.98,1.55,7.9,2.44-1.12-7.44-11.47-10.03-8.67-19.32-1.64-2.44-7.84-3.17-4.74-9.09-2.43-2.26-8.88-1.34-6.11-7.88-2.75-2.4-7.99-.75-9.12-6.87-.45-2.42-5.5-4.42-8.79-5.69-3.2-1.23-5.34-2.16-2.93-5.81-3.76-1.71-10.29,2.01-9.95-6.34-8.9,.41-14.49-5.88-20.79-11.26,20.77-4.8,39.27,1.78,56.96,11.94,18.99,10.91,27.23,28.95,31.21,51.69,12.97-36.85,38.31-50.8,74.06-45.26,17.46,2.71,31.16,12.6,42.23,26.22-.18,.69-.36,1.38-.54,2.07-3.26-.42-6.52-.84-10.17-1.31-2.05,3.54-3.18,3.77-6.93-.05-2.42-2.46-4.49-5.29-6.72-7.96l-1.29,1.31,6.83,8.08c-.32,.56-.63,1.12-.95,1.68-2.57-.9-5.13-1.81-7.74-2.73-2.79,4.83-4.51,4.39-16.15-4.53,.6,1.96,1.09,3.56,2.09,6.85-3.68-1.53-6.1-2.53-8.55-3.54-5.46,8.31-8.89-1.48-13.91-1.79,.47,.88,.89,1.5,1.15,2.19,.5,1.3,.91,2.63,1.35,3.95-1.39-.02-2.78-.04-4.17-.05-3.23,0-6.46,0-9.99,0,.64,2.02,1.06,3.37,1.7,5.38h-6.79c-1.97,2.51-3.08,4.78-4.88,6.03-5.59,3.87-11.45,7.34-17.2,10.97,.17,.42,.34,.85,.51,1.27,4.86-1.08,9.73-2.1,14.56-3.26,18.12-4.36,36.24-4.68,54.47-.59,17.4,3.9,29.68,14.64,39.05,29.48,.44,.7,.76,1.51,.97,2.32,.11,.43-.14,.95-.44,2.71-2.34-1.44-4.22-2.61-6.4-3.95-.73,2.85-2.22,4.32-4.78,.31-.06,4.76-1.81,4.78-4.4,2.41-1.83-1.68-3.58-3.44-5.94-4.75,.92,1.81,1.84,3.63,2.77,5.44-.34,.45-.69,.91-1.03,1.36-2.73-1.87-5.46-3.74-8.21-5.62-2.39,3.48-4.01,3.31-9.74-1.39-3.95,3.99-6.26-.02-9.39-.91-2.39-.65-4.77-1.36-7.18-1.92-1.4-.32-2.85-.45-4.28-.56-.63-.05-1.31,.38-1.91,.27-5.21-.99-10.42-2.03-15.62-3.1-7.61-1.56-15.22-3.15-22.83-4.73-.13,.48-.27,.95-.4,1.43,2.16,.74,4.33,1.49,6.49,2.22,25.35,8.59,35.83,27.19,30.19,53.77-.77,3.64-1.89,7.22-3.18,10.71-1.08,2.91-2.68,3.16-4.55,.34-2.53-3.82-5.28-7.49-7.92-11.24-.28-.4-.63-.9-.64-1.35-.04-5.23-.03-10.46-.03-16.1-1.56,.65-3.24,1.35-4.52,1.89-3.48-4.67-7.71-8.61-9.73-13.51-2.28-5.54-6.56-8.68-10.89-12.33,2.47,5.3,4.91,10.63,7.43,15.91,6.48,13.55,6.45,27.18,.23,40.74-1.09,2.37-3.3,4.19-4.99,6.27-.51-.21-1.01-.43-1.52-.64v-11.06c-.52,.11-1.04,.23-1.56,.34-.73-1.8-1.45-3.6-2.19-5.39-1.15-2.78-1.33-6.24-5.48-6.73-.87-.1-2.36-2.42-2.11-3.29,.92-3.2,1.7-5.92-3.17-6.07,.52-2.56,.92-4.51,1.32-6.46-.32,.16-.64,.33-.97,.49-4.3-7.51-8.6-15.03-12.9-22.54-.69-.07-1.38-.15-2.06-.22-3.65,5.09-7.4,10.12-10.93,15.3-2.07,3.04-3.71,6.37-5.66,9.5-3.27,5.25-6.42,10.61-10.01,15.63-4.76,6.66-10.89,12.52-14.5,19.73-2.13,4.25-5.71,6.27-7.96,9.75-2.25,3.47-3.52,7.6-5.3,11.4-.48,1.03-1.25,1.91-1.87,2.87-1.77,2.73-3.46,5.5-5.31,8.16-.81,1.16-1.9,2.15-2.95,3.11-.85,.77-2.64,1.38-2.64,2.06,0,5.3-4.64,7.74-6.54,11.76-.77,1.63-.03,3.95-.16,5.94-.16,2.42-.02,5.03-.87,7.21-2.1,5.43-4.68,10.66-6.2,16.6,2.85-2.73,5.54-5.69,8.63-8.11,1.69-1.32,4.05-1.75,6.1-2.59,0,2.38,.83,5.19-.13,7.05-4.34,8.38-9.17,16.5-13.88,24.68-.96,1.67-2.17,3.19-2.52,5.49,7.02-5.57,14.04-11.13,21.6-17.13,2.56,7.13,.04,12.83-2.82,18.24-7.87,14.93-18.18,27.92-30.8,38.98-.46,.41-.77,1-.66,2.4,5.01-2.08,10.03-4.14,15.03-6.24,1.38-.58,2.66-1.57,4.09-1.86,1.7-.34,3.5-.13,5.26-.16-.24,1.7-.07,3.62-.79,5.08-5.64,11.38-14.87,19.45-24.62,26.96-3.42,2.64-6.95,5.12-10.43,7.68,.21,.43,.42,.87,.63,1.3,2.64-1.29,5.28-2.55,7.91-3.86,3.44-1.72,6.81-3.61,10.33-5.14,1.22-.53,2.79-.2,4.2-.26-.05,1.43,.4,3.17-.24,4.24-3.79,6.36-7.03,13.34-11.96,18.65-7.12,7.68-15.53,14.11-23.75,21.4h17.06c.27,.72,.54,1.45,.8,2.17-19.61,25.08-42.98,46.13-68.47,65.21,3.13-1.85,6.25-3.73,9.4-5.54,3.11-1.78,6.25-3.48,10.27-5.71v9.99c8.3-16,22.13-25.68,33.08-38.02,6.14-6.92,12.22-13.91,18.61-20.58,4.4-4.59,9.41-8.57,13.92-13.06,2.65-2.65,5.13-5.59,7.17-8.75,2.78-4.32,4.56-9.43,10.6-11.66v12.49c3.34-6.26,5.62-11.64,8.88-16.31,3.37-4.83,8.02-8.45,14.72-10-.92,7.58-1.76,14.52-2.6,21.47,.6,.27,1.2,.54,1.8,.81,1.99-3.08,4.52-5.93,5.84-9.27,2.8-7.07,4.44-14.65,7.56-21.54,3.18-7.03,7.44-13.58,11.56-20.12,.89-1.42,3.21-1.91,4.87-2.83,.59,1.8,1.48,3.57,1.7,5.42,.3,2.49,.07,5.04,.07,8.82,8.3-9.74,11.68-22.55,24.63-28.18,1.19,13.6-5.96,23.26-11.01,33.59l1.29,.89c8.53-11.15,17.07-22.31,25.6-33.46l1.66,.92c1.6,5.13-1.6,9.89-.76,15.56,3.18-5.14,6.3-10.33,9.56-15.42,1.35-2.11,2.86-4.17,4.59-5.97,.8-.83,2.84-1.68,3.36-1.27,.97,.77,1.81,2.52,1.67,3.74-.38,3.5-1.28,6.93-2.05,10.74,6.42-6.22,12.52-12.28,18.82-18.11,2.05-1.9,4.93-4.77,6.95-4.4,4.04,.73,7.7,.76,11.54-.41,.39-.12,1.69,1.09,1.6,1.43-.27,1.04-.78,2.3-1.6,2.88-3.7,2.58-7.54,4.94-11.27,7.35,1.22,.63,2.61,1.35,3.99,2.07-1.05,1.59-1.81,3.55-3.21,4.69-7.35,6-14.86,11.78-22.33,17.66h15.21c.07,.56,.15,1.11,.22,1.67-7.79,3.7-16.57,3.91-24.83,6.43,2.82,.59,5.63,1.19,8.45,1.78,.09,.53,.19,1.07,.28,1.6-10.88,8.3-23.23,13.66-37.09,17.69,7,.66,13.2,1.25,19.4,1.84-16.49,15.73-36.78,21.52-57.09,27.44,12.67,.58,24.81-4.29,38.77-3.54-18.01,23.7-43.98,30.63-67.83,41.35,11.5,.53,21.83-6.57,35.22-4.76-4.62,5.55-8.17,10.31-12.21,14.58-21.61,22.86-45.76,42.49-72.49,58.81-7.34,4.48-14.63,9.05-21.68,14.07,9.3-4.08,19.32-5.9,27.27-13.62,7.76-7.53,17.26-13.21,26.06-19.61,2.68-1.95,4.42-1.26,4.35,4.05,5.53-14.4,18.07-18.76,27.71-26.45,.92-.73,3.09-1.33,3.53-.86,.86,.92,1.19,2.61,1.24,4.01,.06,1.84-.37,3.7-.54,5.55-.02,.23,.28,.49,.88,1.45,3.69-15.98,8.14-31.01,24.14-39.77v19.01c.45,.12,.89,.24,1.34,.35,1.09-3.19,2.7-6.29,3.19-9.58,1.74-11.58,8.08-19.74,17.28-26.22,5.61-3.95,10.8-8.51,16.21-12.75,1.27-.99,2.68-1.79,4.02-2.68,.43,.27,.86,.54,1.28,.8-1.91,5.2-3.81,10.39-5.72,15.59,.23,.21,.47,.41,.7,.62,1.73-2.26,3.72-4.36,5.13-6.81,2.77-4.83,5.17-9.88,7.82-14.79,2.52-4.66,5.66-8.71,12.04-11.49-.82,4.97-1.47,8.92-2.13,12.88,.26,.14,.52,.27,.79,.41,5.36-8.28,10.72-16.56,16.1-24.83,1.56-2.4,3.08-4.85,4.86-7.07,1.73-2.16,3.72-4.53,5.89-.51,7.6-5.17,10.87-15.65,21.89-16.71-.38,2.42-.64,4.13-.96,6.22,5.19-1.32,10.05-2.54,14.9-3.77,.3,.63,.61,1.26,.91,1.89-6.85,4.3-13.7,8.59-21.55,13.51,5.86-.37,10.51-.66,15.17-.95,.22,.69,.43,1.37,.65,2.06-8.96,8.1-19.11,14.61-29.88,21.75h13.82c.19,.39,.37,.78,.56,1.17-1.53,1.32-2.87,3.02-4.61,3.91-11.28,5.81-22.68,11.38-33.97,17.17-3,1.54-5.74,3.58-8.34,5.79,14.13-2.19,26.11-12.95,42.21-9.48-13.89,16.72-32.39,25.46-50.25,35.33,14.66-1.03,28.11-7.94,44.49-7.94-2.46,3.42-3.85,5.83-5.68,7.81-12.74,13.83-28.58,22.57-45.91,28.85-5.26,1.91-10.48,3.94-15.61,7.02,7.43,.37,14.87,.74,22.3,1.11,.1,.66,.19,1.31,.29,1.97-17.33,19.33-39.38,29.99-64.33,35.81,7.05,.41,14.11,.83,21.16,1.24,.2,.59,.41,1.19,.61,1.78-2.03,2.05-3.82,4.47-6.14,6.1-7.81,5.47-15.81,10.66-23.73,15.97-1.37,.92-2.67,1.94-4,2.92H0V0H60.99c6.46,5.1,13.64,9.89,8.23,20.07-.07,.14,.3,.53,.9,1.5,10.59-8.35,17.48,2.47,26.11,6.09,.62-4.13,.86-7.68,1.72-11.07,1.12-4.41,3.58-5.37,7.47-3.04,2.85,1.71,5.5,3.79,8.2,5.75,1.48,1.08,2.86,2.31,4.32,3.42,1.43,1.08,2.91,2.09,4.37,3.13-7.76-8.24-13.66-18.41-24.7-22.54C96.2,2.78,95.19,1.13,93.99,0c36.33,0,72.66,0,108.99,0,6.05,5.36,11.78,10.89,14.76,18.84,2.2,5.85,4.69,11.63,7.57,17.15,2.57,4.92,1.98,9.25-1.28,13.2-4.49,5.43-9.26,10.63-14.02,15.83-5.02,5.49-6.01,5.39-10.38-.48-.14-.19-.61-.12-.93-.16-5.07,10.49-10.08,20.99-15.23,31.43-2.46,5-4.34,5.15-8.03,.91-.99-1.14-1.79-2.45-2.76-3.61-2.12-2.54-4.3-5.03-6.45-7.53-.39,.32-.78,.64-1.18,.96,2.97,5.24,5.66,10.67,8.99,15.66,2.59,3.88,3.4,7.3,1.37,11.76-1.84,4.03-2.79,8.48-4.12,12.75,1.46-.55,2.06-1.49,2.68-2.41,10.01-14.98,19.52-30.34,30.14-44.87,18.43-25.22,41.86-44.91,68.3-60.91C282.84,12.2,293.44,6.17,303.96,0c29.33,0,58.66,0,87.99,0ZM62.14,806.78l.74-.07c0-9.12-.05-18.24,.03-27.36,.03-3.12,.41-6.23,4.84-5.89-.26-3.79-.93-7.36-.68-10.85,1.05-14.67,.98-29.35,4.32-43.93,2.42-10.56,1.58-21.86,2.58-32.79,.63-6.91,1.88-13.78,3.08-20.62,.26-1.49,1.52-2.81,2.32-4.2,1.18,.8,2.37,1.58,3.53,2.41,.48,.34,.9,.77,1.64,1.43,1.28-7.78-1.45-15.51,2.11-23.46,2.26,1.97,3.94,3.44,6.15,5.36-.71-6.35-1.56-11.99-1.89-17.66-.13-2.35,.85-4.76,1.33-7.14,1.91,1.63,3.82,3.25,5.72,4.89,.47,.4,.91,.82,1.71,1.54,.42-1.57,.81-2.67,1-3.8,1.48-8.99,2.64-18.06,4.44-26.98,6.08-30.05,12.46-60.03,18.57-90.07,4.13-20.26,7.33-40.75,12.16-60.83,6.14-25.52,12.67-51,20.54-76,10.86-34.48,26.81-66.87,41.95-99.56,.74-1.61,.57-4.37-.31-5.92-4.02-7.03-8.84-13.61-12.61-20.77-3.02-5.73-5.45-11.92-7.22-18.17-1.76-6.25-12.92-18.45-19.18-19.56-.79-.14-1.64,.08-2.47,.16-3.8,.36-7.69,.33-11.37,1.22-4.25,1.02-9.39,1.7-12.27,4.52-11.99,11.72-23.98,23.57-34.66,36.51-22.59,27.38-44.66,55.21-61.59,86.86-5.45,10.19-9.6,20.01-8.71,32.07,1.1,14.86,.82,29.82,1.12,44.74,.37,18.62,1.28,37.24,.94,55.85-.5,27.29-1.88,54.55-2.93,81.83-.16,4.13-.56,8.25-.87,12.76,7.62-3.11,8.36-13.4,18.08-15.12-2.99,15.37-6.65,29.62-11.25,43.71,4.03-2.83,7.21-6.05,10.69-8.89,1.25-1.02,3.21-1.14,4.84-1.66,.19,1.73,.96,3.65,.48,5.16-3.23,10.14-6.54,20.26-10.2,30.24-2.17,5.93-5.03,11.59-7.59,17.37,.27,.14,.53,.28,.8,.41,6.76-7.76,13.52-15.52,20.28-23.28,.56,.35,1.13,.7,1.69,1.04-2.44,23.36-11.25,45.27-16.93,67.97,2.62-1.7,4.48-2.91,6.34-4.12,1.17,2.23,2.94,4.34,3.4,6.71,1.52,7.96,.94,15.75-3.16,23.02-1.73,3.06-3.17,6.29-4.69,9.46-.6,1.24-1.05,2.55-1.57,3.83,.38,.28,.76,.56,1.14,.85,3.59-3.33,7.18-6.65,10.76-9.98,.55,.37,1.09,.74,1.64,1.11-.53,18.45-9.58,34.49-15.35,51.52,.49,.05,.72,.14,.8,.07,2.19-2.07,4.15-4.49,6.6-6.16,2.15-1.47,4.84-2.11,7.29-3.11,.19,2.38,.42,4.76,.54,7.14,.03,.65-.29,1.32-.43,1.98-3.48,16.52-12.51,30.19-21.67,43.8-.73,1.09-1.34,2.26-2,3.39,.29,.21,.58,.41,.88,.61,6.02-4.84,12.05-9.67,18.07-14.51,.53,.35,1.06,.7,1.58,1.05-.86,15.74-7.47,30.14-11.72,45.09,.62,.5,1.23,1,1.85,1.5,1.95-3.25,3.9-6.51,5.86-9.76,.89,.42,1.79,.83,2.68,1.25,.93,7.78,1.87,15.55,2.76,23,.36-7.12,.39-14.6,1.22-21.99,1-8.9,2.44-17.78,4.22-26.55,.61-3.01,2.82-5.68,4.98-9.81,1.48,3.56,2.23,5.36,2.98,7.17ZM30.4,292.88c.5,.23,1,.46,1.5,.69,24.11-30.93,47.24-62.74,76-89.53-8.05,2.38-15.66,5.22-23.35,7.8-7.61,2.55-15.33,2.42-23.04,1.6-.13-.6-.25-1.19-.38-1.79,2.78-1.63,5.56-3.26,9.57-5.61-9.14,1.7-15.27,9.67-24.47,5.26,7.54-5.92,16.67-9.02,24.55-14.54-7.91,1.14-15.85,2.25-23.26,4.9-5.31,1.9-12.31,2.91-13.24,10.89-.04,.38-.63,.84-1.06,1-4.24,1.58-4.13,5.16-4.12,8.83,.06,17.98-.03,35.97,.13,53.95,.05,5.52,.76,11.04,1.16,16.55ZM184.69,17.02c-.58,.11-1.15,.23-1.73,.34,.19,12.58,10.91,19.86,16.15,30.75,3.03-8.23,10.74-5.35,15.35-8.32-9.99-7.64-19.88-15.21-29.77-22.78ZM84.42,154.83c-.32-.85-.35-1.1-.44-1.14-17.41-6.06-34.82-12.13-52.27-18.1-.69-.24-1.68,.43-2.53,.68,.34,1.18,.33,2.97,1.08,3.41,1.98,1.16,4.24,1.9,6.47,2.52,12.16,3.4,24.33,6.75,36.52,10.03,3.56,.96,7.19,1.67,11.17,2.59Zm9.22-30.48c-9.69-16.56-19.37-33.12-29.06-49.68-1.78,4.34,17.5,36.81,29.06,49.68Zm230.38,814.74c-.34-.6-.69-1.2-1.03-1.8-3.18,1.54-7.04,2.37-9.41,4.75-7.69,7.69-14.84,15.94-22.18,23.99-.75,.82-1.38,1.75-2.07,2.63,.26,.25,.51,.5,.77,.75,11.31-10.11,22.62-20.21,33.93-30.32ZM30.03,198.5c.33,.84,.67,1.68,1,2.51,9.02-3.61,18.04-7.22,27.06-10.83-9.91,1.15-19.68,2.7-28.05,8.32Zm16.91-83.62c.31-.41,.62-.83,.93-1.24-3.99-3.19-7.97-6.37-11.96-9.56-.37,.49-.73,.98-1.1,1.47,4.04,3.11,8.09,6.22,12.13,9.33Zm-13.16,70.91l.18,1.14c6.39-1.48,12.78-2.95,19.17-4.43-.08-.34-.16-.68-.24-1.03-6.37,1.44-12.74,2.88-19.11,4.32ZM114.79,967.38c.08,.5,.16,1,.25,1.5,3.88-1.51,7.76-3.02,11.63-4.53-.25-.62-.49-1.24-.74-1.86-3.71,1.63-7.43,3.26-11.14,4.9Z"/>
      <path class="cls-1" d="M287.96,1023.87c15.12-11.65,36.15-21.93,46.51-22.22-1.68,5.27-3.25,10.19-4.82,15.12,.45,.3,.89,.6,1.34,.89,1.28-1.68,2.79-3.23,3.8-5.06,2.7-4.86,4.85-10.07,7.88-14.69,1.93-2.94,5.05-5.06,8.15-8.05,.92,2.41,1.42,3.72,2.4,6.29,9.17-15.29,20.8-26.34,37.48-30.2,.5,.4,1.01,.79,1.51,1.19l-7.61,18.62c.4,.25,.79,.49,1.19,.74,1.26-1.61,2.61-3.16,3.78-4.84,5.58-8,10.61-16.48,16.87-23.87,2.87-3.39,8.12-4.7,12.3-6.93,1.44-.77,2.96-1.4,4.38-2.21,5.95-3.39,11.79-6.98,17.85-10.15,1.56-.82,3.75-.41,5.65-.56-.51,1.81-.62,3.89-1.61,5.37-6.01,8.97-12.22,17.79-18.34,26.67-.73,1.06-1.33,2.22-1.99,3.33l1.22,1c3.47-4.12,7.27-8,10.34-12.41,3.75-5.39,6.77-11.29,10.33-16.83,5.68-8.83,14.35-11.82,24.67-12.33-3.81,11.19-11.51,20.08-17.07,31.28,11.41-8.09,15.21-21.87,25.64-29.41,.49,.23,.99,.46,1.48,.7-.67,4.17-1.34,8.34-2.01,12.51,11.24-10.77,17.05-27.98,37.05-29.76-3.95,7.12-7.38,13.3-10.81,19.48,12.18-8.17,17.3-25.12,35.57-28.12-3.06,5.61-5.47,10.02-7.88,14.43,.18,.18,.36,.36,.55,.54,4.17-4.19,8.22-8.52,12.55-12.53,4.46-4.12,9.57-7.08,17.07-8.2-1.79,3.68-3.05,6.26-4.68,9.6,12.02-5.68,22.76-13.29,35.8-13.97,.26,.47,.51,.93,.77,1.4-1.51,1.32-3.03,2.64-5.73,5.01h16.27c.07,.55,.13,1.09,.2,1.64-11.12,7.87-24.15,11.06-38.15,14.64,4.7,.96,8.22,1.67,11.74,2.39,.12,.64,.25,1.28,.37,1.92-3.79,2.17-7.38,4.9-11.41,6.39-7.17,2.67-14.61,4.6-21.94,6.82-7.97,2.41-15.98,4.74-22.14,12.19h29.63c.17,.61,.33,1.22,.5,1.83-2.26,2.11-4.41,4.36-6.8,6.3-11.48,9.31-25.24,11.72-39.27,13.27-9.26,1.03-18.52,2.1-27.78,3.2-1.27,.15-2.5,.58-3.72,1.57,10.96,1.08,21.92,2.17,32.88,3.25l.17,1.6c-19.19,19.19-45.08,18.34-69.22,23.64,8.79,1.69,17.58,3.38,27.45,5.28-4.67,6.83-11.26,8.53-16.37,12.23h-163.98Z"/>
      <path class="cls-1" d="M509.94,1023.87c3.69-3.48,7.38-6.95,11.06-10.43,.5,.34,.99,.68,1.49,1.03-.23,2.02-.46,4.03-.8,6.98,8.4-5.68,16.34-11.05,24.28-16.41,.51,.52,1.02,1.04,1.52,1.56-1.89,3.57-3.77,7.14-5.66,10.7,10.21-6.11,16.8-17.49,29.04-20.18,.44,.41,.87,.82,1.31,1.22l-8.4,11.97c10.48-4.12,17.24-14.82,28.64-17.13,.5,.41,.99,.82,1.49,1.23-2.52,4.45-5.03,8.91-7.55,13.36,.26,.34,.51,.68,.77,1.02,2.86-2.29,5.96-4.32,8.53-6.91,6.17-6.2,12.75-11.47,21.8-12.32,.82-.08,1.65-.13,2.47-.11,.3,0,.59,.26,1.98,.93-2.74,3.08-5.26,5.91-7.79,8.75,9.57-1.95,16.99-10.74,28.11-8.56-.25,.96-.35,1.74-.65,2.43-.25,.57-.73,1.03-.93,1.29,14.62-1.31,29.26-2.63,43.9-3.95,.21,.68,.42,1.36,.63,2.04-1.03,.8-1.96,1.76-3.09,2.37-22.04,11.9-45.23,20.8-69.46,26.75-5.74,1.41-11.89,1.05-17.85,1.54-2.63,.22-5.25,.54-7.88,.82h-76.99Z"/>
      <path class="cls-1" d="M1017.87,1023.87c-3.36-1.5-6.72-2.99-10.08-4.49,.17-.56,.34-1.13,.51-1.69,11.02,2.01,22.04,4.02,33.06,6.03-21.8-10.29-46.01-11.93-68.04-20.97-.21-.69-.43-1.39-.64-2.08,1.12-.77,2.25-1.54,3.46-2.37-15.94-6.9-31.16-14.9-44.46-26.57,14.27,.97,27.97,4.19,41.97,8.92-1.49-2.08-2.63-3.68-4.56-6.38,10.04-.7,15.11,6.15,22.5,10.81-1.85-3.6-3.17-6.15-5.01-9.73,11.34,1.96,15.86,11.35,23.47,16.83-1.41-3.23-2.82-6.47-4.75-10.92,9.48,3.14,14.71,10.25,21.86,15.66v-6.66c.34-.28,.68-.55,1.03-.83,7.76,8.44,15.52,16.88,23.27,25.32l1.53-1.14c-.92-2.31-1.84-4.63-3.24-8.18,9.9,3.12,15.47,10.33,22.75,17.16-.97-3.15-1.53-5-2.42-7.87,6.11,1.17,8.84,5.3,11.78,9.15h-63.99Z"/>
      <path class="cls-1" d="M1125.86,1023.87c-4.16-2.33-8.32-4.66-12.48-6.99,.06-.33,.13-.67,.19-1h9.36l.45-1.52c-5.47-2.5-10.88-5.12-16.41-7.48-7.97-3.4-16.16-6.28-23.95-10.03-3.51-1.69-6.3-4.93-9.42-7.47,.27-.54,.54-1.09,.81-1.63h10.96c-8.05-6.43-15.8-12.61-23.54-18.79,.35-.81,.7-1.62,1.05-2.42,4.77,1.05,9.53,2.09,14.67,3.22,.21-.81,.52-1.99,1.11-4.26,4.07,3.73,7.63,6.99,11.54,10.58v-7.21c9.67,3.07,12.17,13.24,19.83,18.26,.15-1.52,.28-2.82,.6-6.08,5.8,5.8,10.65,10.64,15.69,15.67,.15-1.32,.31-2.67,.54-4.63,6.38,2.59,9.51,7.78,12.77,12.79,4.11,6.31,8.17,12.65,12.25,18.98h-26Z"/>
      <path class="cls-1" d="M232.97,0c1.83,2.77,3.67,5.53,5.5,8.3-3.38,.43-6.85,1.58-10.12,1.16C220.42,8.44,212.95,5.84,206.97,0,215.64,0,224.31,0,232.97,0Z"/>
      <path class="cls-1" d="M1152.86,1023.87c-.8-2.48-1.59-4.95-2.4-7.43-.75-2.28-1.53-4.56-1.73-7.19,7.51,2.94,12.4,8.67,17.13,14.61h-13Z"/>
      <path class="cls-1" d="M1169.85,1023.87c-1.36-2.18-2.72-4.37-4.07-6.55,.42-.56,.84-1.11,1.26-1.67,4.6,2.74,9.21,5.48,13.81,8.22h-11Z"/>
    </g>
  </g>
</svg>