<?xml version="1.0" encoding="UTF-8"?>
<svg id="Layer_1" data-name="Layer 1" xmlns="http://www.w3.org/2000/svg" xmlns:xlink="http://www.w3.org/1999/xlink" viewBox="0 0 1537 1405">
  <defs>
    <style>
      .cls-1, .cls-2 {
        fill: #fefbe4;
      }

      .cls-3 {
        opacity: .05;
      }

      .cls-2 {
        opacity: .1;
      }

      .cls-4 {
        fill: url(#radial-gradient);
      }

      .cls-5 {
        fill: none;
        opacity: .5;
        stroke: #fefbe4;
        stroke-miterlimit: 10;
        stroke-width: 4px;
      }
    </style>
    <radialGradient id="radial-gradient" cx="768" cy="611.4" fx="768" fy="611.4" r="804.56" gradientTransform="translate(0)" gradientUnits="userSpaceOnUse">
      <stop offset="0" stop-color="#edf2db"/>
      <stop offset=".23" stop-color="#b3dfd3"/>
      <stop offset=".48" stop-color="#7bcdcc"/>
      <stop offset=".6" stop-color="#66c6ca"/>
      <stop offset=".62" stop-color="#60c3c8"/>
      <stop offset=".78" stop-color="#3cb2bd"/>
      <stop offset=".92" stop-color="#26a8b7"/>
      <stop offset="1" stop-color="#1fa5b5"/>
    </radialGradient>
  </defs>
  <g id="z-10">
    <rect class="cls-4" x="1" y="104" width="1536" height="1024"/>
    <g>
      <g class="cls-3">
        <g>
          <polygon class="cls-1" points="765.84 617.17 768.07 604.78 768.07 628 763.92 628 763.92 608.06 765.84 617.17"/>
          <path class="cls-1" d="M768.07,104v154.32c-1.39,0-2.76,0-4.15,.03V104h4.15Z"/>
          <polygon class="cls-1" points="768.07 628 768.07 647.94 766.15 638.83 763.92 651.22 763.92 628 768.07 628"/>
          <path class="cls-1" d="M768.07,997.68v130.32h-4.15v-130.35c1.38,.02,2.75,.03,4.15,.03Z"/>
          <polygon class="cls-1" points="776.84 627.84 789.24 630.07 766 630.07 766 625.93 785.97 625.93 776.84 627.84"/>
          <path class="cls-1" d="M1320.72,625.93v4.14h-182.5c.01-.68,.01-1.38,.01-2.07s0-1.39-.01-2.07h182.5Z"/>
          <path class="cls-1" d="M397.92,625.93c-.01,.68-.01,1.38-.01,2.07s0,1.39,.01,2.07H211.27v-4.14h186.65Z"/>
          <polygon class="cls-1" points="766 625.93 766 630.07 746.03 630.07 755.15 628.16 742.75 625.93 766 625.93"/>
          <path class="cls-1" d="M375.21,234.79l131.55,131.38c-.98,.97-1.96,1.96-2.92,2.94l-131.56-131.39,2.93-2.93Z"/>
          <polygon class="cls-1" points="767.46 626.54 766 628 764.53 629.46 764.39 629.32 764.24 629.17 763.77 628.69 763.56 628.49 763.35 628.28 763.07 628 762.78 627.71 762.36 627.29 761 625.93 759.86 624.79 750.46 615.41 758.24 620.47 751.05 610.16 759.95 619.04 764.66 623.74 765.25 624.33 765.65 624.74 767.46 626.54"/>
          <polygon class="cls-1" points="781.53 640.59 773.75 635.53 780.94 645.84 772.04 636.96 769.46 634.38 768.07 632.99 766.74 631.67 766.34 631.26 766 630.92 765.76 630.68 765.52 630.44 764.69 629.62 764.53 629.46 766 628 767.46 626.54 767.75 626.83 767.9 626.99 768.07 627.15 768.23 627.31 768.43 627.51 781.53 640.59"/>
          <path class="cls-1" d="M1159.71,1018.27l-2.93,2.93-129.48-129.31c.99-.96,1.97-1.94,2.94-2.92l129.47,129.3Z"/>
          <polygon class="cls-1" points="773.53 620.25 783.86 613.08 774.96 621.96 772.38 624.54 770.99 625.93 770.26 626.66 769.67 627.25 769.26 627.66 768.68 628.24 768.44 628.48 768.26 628.66 768.07 628.85 767.92 628.99 767.76 629.16 767.61 629.3 767.46 629.46 766 628 764.53 626.54 768.07 623.01 769.21 621.87 771.74 619.34 778.6 612.49 773.53 620.25"/>
          <path class="cls-1" d="M1159.71,237.73l-129.47,129.3c-.97-.98-1.96-1.96-2.94-2.92l129.48-129.31,2.93,2.93Z"/>
          <path class="cls-1" d="M503.84,886.89c.96,.98,1.94,1.97,2.92,2.94l-131.55,131.38-2.93-2.93,131.56-131.39Z"/>
          <polygon class="cls-1" points="767.46 629.46 767.31 629.61 767.17 629.75 767.01 629.91 766.85 630.07 766.69 630.23 766.48 630.43 766.28 630.64 766 630.92 765.71 631.21 765.28 631.63 764.75 632.16 763.92 632.99 753.39 643.51 758.46 635.75 748.13 642.92 757.03 634.04 759.61 631.46 762.33 628.75 762.73 628.34 763.07 628 763.31 627.76 763.55 627.52 764.53 626.54 766 628 767.46 629.46"/>
          <path class="cls-1" d="M551.72,116.99l72.21,170.41c-1.28,.53-2.55,1.08-3.82,1.63l-72.22-170.42,3.83-1.62Z"/>
          <polygon class="cls-1" points="767.9 627.19 766 628 764.09 628.81 764.01 628.6 763.92 628.41 763.85 628.24 763.76 628.02 763.66 627.79 763.55 627.52 763.44 627.26 763.28 626.9 763.1 626.49 762.86 625.93 762.6 625.29 762.14 624.21 761.44 622.56 759.95 619.04 756.32 610.48 761.86 618.44 759.57 607.51 763.92 617.8 765.19 620.78 765.95 622.59 766.39 623.62 766.71 624.37 766.91 624.84 767.1 625.29 767.24 625.62 767.36 625.93 767.47 626.16 767.57 626.41 767.67 626.62 767.75 626.83 767.82 627.01 767.9 627.19"/>
          <polygon class="cls-1" points="775.67 645.52 770.13 637.56 772.42 648.49 768.07 638.2 766.8 635.22 766.04 633.41 765.6 632.38 765.28 631.63 765.08 631.16 764.9 630.71 764.75 630.38 764.63 630.07 764.52 629.84 764.42 629.59 764.33 629.38 764.24 629.17 764.17 628.99 764.09 628.81 766 628 767.9 627.19 767.99 627.4 768.07 627.59 768.14 627.76 768.24 627.98 768.33 628.21 768.44 628.48 768.56 628.74 768.71 629.1 768.89 629.51 769.13 630.07 769.4 630.71 769.85 631.79 770.55 633.44 772.04 636.96 775.67 645.52"/>
          <path class="cls-1" d="M980.12,1128h-4.52l-66.92-157.94c1.27-.52,2.56-1.04,3.82-1.59l67.61,159.53Z"/>
          <polygon class="cls-1" points="775.57 623.87 786.52 621.58 776.21 625.93 773.22 627.19 771.41 627.96 770.38 628.39 769.64 628.71 769.16 628.91 768.71 629.1 768.38 629.24 768.07 629.37 767.84 629.47 767.59 629.57 767.38 629.67 767.17 629.75 766.99 629.82 766.8 629.91 766 628 765.19 626.09 765.39 626.01 765.58 625.93 765.76 625.86 765.98 625.76 766.2 625.67 766.47 625.56 766.73 625.44 767.1 625.29 767.51 625.11 768.07 624.87 768.71 624.6 769.79 624.15 771.44 623.45 774.96 621.96 783.54 618.34 775.57 623.87"/>
          <path class="cls-1" d="M1277.67,414l-168.14,71.06c-.52-1.27-1.07-2.55-1.62-3.81l168.14-71.07,1.62,3.82Z"/>
          <path class="cls-1" d="M425.99,769.45c.52,1.27,1.06,2.55,1.61,3.82l-171.65,72.55-1.62-3.82,171.66-72.55Z"/>
          <polygon class="cls-1" points="766.8 629.91 766.6 629.99 766.41 630.07 766.23 630.14 766.02 630.24 765.79 630.33 765.52 630.44 765.26 630.56 764.9 630.71 764.48 630.89 763.92 631.13 763.28 631.4 762.2 631.85 760.55 632.55 757.03 634.04 748.45 637.66 756.43 632.13 745.48 634.42 755.78 630.07 758.77 628.81 760.58 628.04 761.61 627.61 762.36 627.29 762.83 627.09 763.28 626.9 763.61 626.76 763.92 626.63 764.15 626.53 764.4 626.43 764.62 626.33 764.82 626.25 765 626.18 765.19 626.09 766 628 766.8 629.91"/>
          <path class="cls-1" d="M252.68,417.99l172.74,69.92c-.53,1.27-1.05,2.56-1.56,3.84l-172.75-69.92,1.57-3.84Z"/>
          <polygon class="cls-1" points="766.77 626.08 766 628 765.22 629.92 765.04 629.84 764.83 629.76 764.65 629.69 764.42 629.59 764.19 629.5 763.92 629.39 763.65 629.28 763.3 629.14 762.89 628.97 762.33 628.75 761.67 628.48 760.58 628.04 758.92 627.37 755.37 625.93 746.74 622.44 756.31 624.16 746.99 618.08 757.33 622.26 760.32 623.47 762.14 624.21 763.17 624.62 763.92 624.93 764.41 625.12 764.86 625.31 765.2 625.44 765.51 625.57 765.74 625.66 765.98 625.76 766.39 625.93 766.56 625.99 766.77 626.08"/>
          <polygon class="cls-1" points="785.25 633.56 775.68 631.84 785 637.92 774.66 633.74 771.67 632.53 769.85 631.79 768.83 631.38 768.07 631.07 767.58 630.88 767.14 630.69 766.79 630.56 766.48 630.43 766.26 630.34 766.02 630.24 765.81 630.15 765.6 630.07 765.44 630.01 765.22 629.92 766 628 766.77 626.08 766.95 626.16 767.16 626.24 767.34 626.31 767.57 626.41 767.8 626.5 768.07 626.61 768.34 626.72 768.69 626.86 769.11 627.03 769.67 627.25 770.32 627.52 771.41 627.96 773.07 628.63 776.62 630.07 785.25 633.56"/>
          <path class="cls-1" d="M1280.88,834.17l-1.57,3.84-169.2-68.49c.54-1.27,1.07-2.55,1.58-3.83l169.19,68.48Z"/>
          <polygon class="cls-1" points="769.84 618.33 775.93 609.02 771.74 619.34 770.53 622.34 769.79 624.15 769.38 625.17 769.07 625.93 768.88 626.42 768.69 626.86 768.56 627.2 768.43 627.51 768.34 627.74 768.24 627.98 768.15 628.19 768.07 628.39 768.01 628.56 767.91 628.78 764.08 627.22 764.15 627.05 764.23 626.84 764.31 626.65 764.4 626.43 764.49 626.2 764.61 625.93 764.71 625.66 764.86 625.31 765.02 624.89 765.25 624.33 765.52 623.68 765.95 622.59 766.63 620.94 768.07 617.39 771.56 608.77 769.84 618.33"/>
          <path class="cls-1" d="M976.28,115.35l-69,170.01c-1.28-.53-2.56-1.04-3.85-1.53l69-170.04,3.85,1.56Z"/>
          <path class="cls-1" d="M629.14,970.76l-63.81,157.24h-4.48l64.45-158.83c1.27,.54,2.55,1.07,3.84,1.59Z"/>
          <polygon class="cls-1" points="767.91 628.78 767.84 628.95 767.76 629.16 767.69 629.35 767.59 629.57 767.5 629.8 767.39 630.07 767.28 630.34 767.14 630.69 766.97 631.11 766.74 631.67 766.47 632.32 766.04 633.41 765.36 635.06 763.92 638.61 760.43 647.23 762.15 637.67 756.06 646.98 760.25 636.66 761.46 633.66 762.2 631.85 762.62 630.83 762.93 630.07 763.11 629.58 763.3 629.14 763.44 628.8 763.56 628.49 763.65 628.26 763.76 628.02 763.84 627.81 763.92 627.61 763.98 627.44 764.08 627.22 767.91 628.78"/>
          <path class="cls-1" d="M691.99,266.14c-1.36,.28-2.72,.57-4.07,.87l-34.3-163.01h4.25l34.12,162.14Z"/>
          <polygon class="cls-1" points="768.03 627.58 766 628 763.96 628.42 763.88 628.03 763.84 627.81 763.79 627.6 763.74 627.34 763.68 627.09 763.61 626.76 763.54 626.39 763.44 625.93 763.33 625.41 763.17 624.62 762.94 623.54 762.53 621.62 761.86 618.44 759.57 607.51 763.92 617.8 763.92 608.06 765.84 617.17 766.63 620.94 767 622.69 767.24 623.84 767.39 624.52 767.51 625.11 767.6 625.55 767.69 625.93 767.74 626.21 767.8 626.5 767.85 626.75 767.9 626.99 767.95 627.17 767.99 627.4 768.03 627.58"/>
          <polygon class="cls-1" points="770.13 637.56 772.42 648.49 768.07 638.2 768.07 647.94 766.15 638.83 765.36 635.06 764.99 633.31 764.75 632.16 764.61 631.48 764.48 630.89 764.39 630.45 764.31 630.07 764.25 629.79 764.19 629.5 764.14 629.25 764.09 629.01 764.05 628.83 764.01 628.6 763.96 628.42 766 628 768.03 627.58 768.11 627.97 768.15 628.19 768.2 628.4 768.26 628.66 768.31 628.91 768.38 629.24 768.45 629.61 768.56 630.07 768.66 630.59 768.83 631.38 769.05 632.46 769.46 634.38 770.13 637.56"/>
          <path class="cls-1" d="M873.33,1128h-4.25l-28.9-137.34c1.36-.26,2.71-.54,4.07-.82l29.08,138.16Z"/>
          <polygon class="cls-1" points="786.52 621.58 776.21 625.93 785.97 625.93 776.84 627.84 773.07 628.63 771.32 629 770.16 629.24 769.48 629.39 768.89 629.51 768.45 629.61 768.07 629.69 767.79 629.74 767.5 629.8 767.25 629.85 767.01 629.91 766.83 629.95 766.6 629.99 766.42 630.03 766 628 765.57 625.97 765.77 625.93 765.96 625.89 766.18 625.85 766.4 625.79 766.66 625.74 766.91 625.69 767.24 625.62 767.6 625.55 768.07 625.44 768.59 625.34 769.38 625.17 770.46 624.95 772.38 624.54 775.57 623.87 786.52 621.58"/>
          <path class="cls-1" d="M1309.29,516.1l-178.56,37.48c-.28-1.36-.57-2.7-.86-4.06l178.56-37.48,.86,4.06Z"/>
          <path class="cls-1" d="M405.25,701.58c.27,1.36,.55,2.71,.84,4.07l-182.53,38.3-.86-4.06,182.55-38.31Z"/>
          <polygon class="cls-1" points="766.42 630.03 766.22 630.07 766.03 630.11 765.81 630.15 765.59 630.21 765.33 630.26 765.08 630.31 764.75 630.38 764.39 630.45 763.92 630.56 763.4 630.66 762.62 630.83 761.53 631.05 759.61 631.46 756.43 632.13 745.48 634.42 755.78 630.07 746.03 630.07 755.15 628.16 758.92 627.37 760.68 627 761.83 626.76 762.51 626.61 763.1 626.49 763.54 626.39 763.92 626.31 764.2 626.26 764.49 626.2 764.74 626.15 764.98 626.09 765.17 626.05 765.39 626.01 765.57 625.97 766 628 766.42 630.03"/>
          <path class="cls-1" d="M302.6,323.46l155.97,101.68c-.75,1.15-1.5,2.31-2.25,3.47l-155.99-101.68,2.27-3.47Z"/>
          <polygon class="cls-1" points="767.13 626.27 766 628 764.87 629.73 764.69 629.62 764.52 629.5 764.33 629.38 764.14 629.25 763.92 629.12 763.71 628.97 763.44 628.8 763.13 628.6 762.73 628.34 762.29 628.05 761.61 627.61 760.68 627 759.04 625.93 756.31 624.16 746.99 618.08 757.33 622.26 750.46 615.41 758.24 620.47 761.44 622.56 762.94 623.54 763.92 624.18 764.5 624.56 765.02 624.89 765.39 625.14 765.72 625.36 765.95 625.5 766.2 625.67 766.4 625.79 766.6 625.93 766.76 626.03 766.95 626.16 767.13 626.27"/>
          <polygon class="cls-1" points="785 637.92 774.66 633.74 781.53 640.59 773.75 635.53 770.55 633.44 769.05 632.46 768.07 631.82 767.49 631.44 766.97 631.11 766.6 630.86 766.28 630.64 766.04 630.5 765.79 630.33 765.59 630.21 765.39 630.07 765.23 629.97 765.04 629.84 764.87 629.73 766 628 767.13 626.27 767.3 626.38 767.47 626.5 767.67 626.62 767.85 626.75 768.07 626.88 768.28 627.03 768.56 627.2 768.86 627.4 769.26 627.66 769.7 627.95 770.38 628.39 771.32 629 772.95 630.07 775.68 631.84 785 637.92"/>
          <path class="cls-1" d="M1231.66,929.08l-2.27,3.47-153.08-99.79c.78-1.15,1.53-2.3,2.28-3.46l153.07,99.78Z"/>
          <polygon class="cls-1" points="771.74 619.34 778.6 612.49 773.53 620.25 771.44 623.45 770.46 624.95 769.82 625.93 769.44 626.51 769.11 627.03 768.86 627.4 768.64 627.72 768.49 627.96 768.33 628.21 768.2 628.4 768.07 628.6 767.97 628.77 767.84 628.95 767.73 629.13 766 628 764.26 626.87 764.38 626.7 764.49 626.53 764.62 626.33 764.74 626.15 764.88 625.93 765.02 625.72 765.2 625.44 765.39 625.14 765.65 624.74 765.94 624.3 766.39 623.62 767 622.69 768.07 621.05 769.84 618.33 775.93 609.02 771.74 619.34"/>
          <path class="cls-1" d="M1070.94,165.21l-100.23,153.37c-1.15-.76-2.31-1.5-3.48-2.25l100.24-153.39,3.47,2.27Z"/>
          <path class="cls-1" d="M562.54,935.51c1.15,.77,2.3,1.53,3.46,2.28l-101.48,155.28-3.47-2.27,101.49-155.29Z"/>
          <polygon class="cls-1" points="767.73 629.13 767.61 629.3 767.5 629.47 767.38 629.67 767.25 629.85 767.12 630.07 766.97 630.28 766.79 630.56 766.6 630.86 766.34 631.26 766.05 631.7 765.6 632.38 764.99 633.31 763.92 634.95 762.15 637.67 756.06 646.98 760.25 636.66 753.39 643.51 758.46 635.75 760.55 632.55 761.53 631.05 762.17 630.07 762.55 629.49 762.89 628.97 763.13 628.6 763.35 628.28 763.5 628.04 763.66 627.79 763.79 627.6 763.92 627.4 764.03 627.23 764.15 627.05 764.26 626.87 766 628 767.73 629.13"/>
          <path class="cls-1" d="M451.07,171.93l106.01,152.29c-1.14,.78-2.27,1.57-3.4,2.37l-106.01-152.3,3.4-2.36Z"/>
          <polygon class="cls-1" points="767.7 626.82 764.3 629.18 764.17 628.99 764.05 628.83 763.92 628.64 763.8 628.48 763.65 628.26 763.5 628.04 763.31 627.76 763.11 627.48 762.83 627.09 762.51 626.61 762.04 625.93 761.43 625.08 760.32 623.47 758.24 620.47 751.05 610.16 759.95 619.04 756.32 610.48 761.86 618.44 763.92 621.39 764.83 622.72 765.52 623.68 765.94 624.3 766.29 624.79 766.51 625.12 766.73 625.44 766.91 625.69 767.07 625.93 767.2 626.12 767.34 626.31 767.47 626.5 767.6 626.68 767.7 626.82"/>
          <polygon class="cls-1" points="780.94 645.84 772.04 636.96 775.67 645.52 770.13 637.56 768.07 634.61 767.16 633.28 766.47 632.32 766.05 631.7 765.71 631.21 765.48 630.88 765.26 630.56 765.08 630.31 764.92 630.07 764.79 629.88 764.65 629.69 764.52 629.5 764.39 629.32 764.3 629.18 767.7 626.82 767.82 627.01 767.95 627.17 768.07 627.36 768.19 627.52 768.34 627.74 768.49 627.96 768.68 628.24 768.88 628.52 769.16 628.91 769.48 629.39 769.96 630.07 770.56 630.92 771.67 632.53 773.75 635.53 780.94 645.84"/>
          <path class="cls-1" d="M1084.32,1081.71l-3.4,2.36-104.66-150.37c1.14-.77,2.28-1.55,3.41-2.35l104.65,150.36Z"/>
          <polygon class="cls-1" points="783.86 613.08 774.96 621.96 783.54 618.34 775.57 623.87 772.61 625.93 771.28 626.84 770.32 627.52 769.7 627.95 769.21 628.29 768.88 628.52 768.56 628.74 768.31 628.91 768.07 629.08 767.88 629.2 767.69 629.35 767.5 629.47 767.31 629.61 767.18 629.7 764.81 626.3 765 626.18 765.17 626.05 765.35 625.93 765.52 625.8 765.74 625.66 765.95 625.5 766.23 625.32 766.51 625.12 766.91 624.84 767.39 624.52 768.07 624.04 768.92 623.44 770.53 622.34 773.53 620.25 783.86 613.08"/>
          <path class="cls-1" d="M1222.66,313.48l-150.12,104.22c-.79-1.14-1.58-2.27-2.37-3.4l150.13-104.22,2.36,3.4Z"/>
          <path class="cls-1" d="M462.26,836.35c.78,1.14,1.57,2.28,2.35,3.41l-152.92,106.16-2.36-3.4,152.93-106.17Z"/>
          <polygon class="cls-1" points="767.18 629.7 766.99 629.82 766.83 629.95 766.64 630.07 766.47 630.2 766.26 630.34 766.04 630.5 765.76 630.68 765.48 630.88 765.08 631.16 764.61 631.48 763.92 631.96 763.07 632.56 761.46 633.66 758.46 635.75 748.13 642.92 757.03 634.04 748.45 637.66 756.43 632.13 759.38 630.07 760.71 629.16 761.67 628.48 762.29 628.05 762.78 627.71 763.11 627.48 763.44 627.26 763.68 627.09 763.92 626.92 764.11 626.8 764.31 626.65 764.49 626.53 764.68 626.39 764.81 626.3 767.18 629.7"/>
          <path class="cls-1" d="M220.4,527.9l183.61,32.98c-.26,1.36-.5,2.71-.73,4.08l-183.62-32.98,.74-4.08Z"/>
          <polygon class="cls-1" points="766.36 625.96 766 628 765.63 630.04 765.44 630.01 765.23 629.97 765 629.93 764.79 629.88 764.52 629.84 764.25 629.79 763.92 629.73 763.59 629.68 763.11 629.58 762.55 629.49 761.73 629.34 760.71 629.16 758.77 628.81 755.15 628.16 742.75 625.93 755.37 625.93 746.74 622.44 756.31 624.16 759.86 624.79 761.43 625.08 762.6 625.29 763.33 625.41 763.92 625.53 764.32 625.6 764.71 625.66 765.02 625.72 765.3 625.77 765.52 625.8 765.76 625.86 765.96 625.89 766.18 625.93 766.36 625.96"/>
          <polygon class="cls-1" points="789.24 630.07 776.62 630.07 785.25 633.56 775.68 631.84 772.13 631.21 770.56 630.92 769.4 630.71 768.66 630.59 768.07 630.47 767.68 630.4 767.28 630.34 766.97 630.28 766.69 630.23 766.47 630.2 766.23 630.14 766.03 630.11 765.81 630.07 765.63 630.04 766 628 766.36 625.96 766.56 625.99 766.76 626.03 766.99 626.07 767.2 626.12 767.47 626.16 767.74 626.21 768.07 626.27 768.4 626.32 768.88 626.42 769.44 626.51 770.26 626.66 771.28 626.84 773.22 627.19 776.84 627.84 789.24 630.07"/>
          <path class="cls-1" d="M1312.33,724.02l-.74,4.08-179.6-32.26c.26-1.36,.51-2.71,.74-4.08l179.6,32.26Z"/>
          <polygon class="cls-1" points="768.07 617.39 771.56 608.77 769.84 618.33 769.21 621.87 768.92 623.44 768.71 624.6 768.59 625.34 768.47 625.93 768.4 626.32 768.34 626.72 768.28 627.03 768.23 627.31 768.19 627.52 768.14 627.76 768.11 627.97 768.07 628.19 768.04 628.36 766 628 763.95 627.64 763.98 627.44 764.03 627.23 764.07 627.01 764.11 626.8 764.15 626.53 764.2 626.26 764.26 625.93 764.32 625.6 764.41 625.12 764.5 624.56 764.66 623.74 764.83 622.72 765.19 620.78 765.84 617.17 768.07 604.78 768.07 617.39"/>
          <path class="cls-1" d="M862.46,104l-28.83,160.11c-1.36-.25-2.72-.49-4.09-.7l28.7-159.41h4.22Z"/>
          <path class="cls-1" d="M702.57,991.9l-24.51,136.1h-4.22l24.64-136.85c1.35,.26,2.71,.51,4.09,.75Z"/>
          <polygon class="cls-1" points="768.04 628.36 768.01 628.56 767.97 628.77 767.92 628.99 767.88 629.2 767.84 629.47 767.79 629.74 767.73 630.07 767.68 630.4 767.58 630.88 767.49 631.44 767.33 632.26 767.16 633.28 766.8 635.22 766.15 638.83 763.92 651.22 763.92 638.61 760.43 647.23 762.15 637.67 762.78 634.13 763.07 632.56 763.28 631.4 763.4 630.66 763.52 630.07 763.59 629.68 763.65 629.28 763.71 628.97 763.77 628.69 763.8 628.48 763.85 628.24 763.88 628.03 763.92 627.81 763.95 627.64 766 628 768.04 628.36"/>
        </g>
      </g>
      <g>
        <ellipse class="cls-1" cx="768" cy="628" rx="294.38" ry="294"/>
        <ellipse class="cls-2" cx="768" cy="628" rx="357.47" ry="357"/>
        <ellipse class="cls-1" cx="768" cy="628" rx="294.38" ry="294"/>
        <ellipse class="cls-5" cx="768" cy="628" rx="328.43" ry="328"/>
        <ellipse class="cls-5" cx="768" cy="628" rx="357.47" ry="357"/>
      </g>
    </g>
  </g>
</svg>