<?xml version="1.0" encoding="UTF-8"?>
<svg id="Layer_1_copy" data-name="Layer 1 copy" xmlns="http://www.w3.org/2000/svg" viewBox="0 0 1427.17 553.92">
  <defs>
    <style>
      .cls-1 {
        fill: #291334;
      }
    </style>
  </defs>
  <g>
    <g>
      <path class="cls-1" d="M1389.47,363.74c5.6-11.8-10.2-18.67-5.05-29.67,3.32-9.99,8.76-18.13,16.16-25.78,20.67-21.25,27.91-51.57,26.4-80.37-.94-22.89-4-48-36-75-5.78-32.29-24-80-75.62-111.97-14.42-8.93,6.49-22.24-17.74-25.16-32.76-7.63-65.07-17.15-99.07-15.63-11.38,6.14-24.09,4.52-36.26,6.72-24.94,5.43-46.49,16.9-65.51,33.51-13.78,12.02-25.21,26.06-34.8,41.63-5.82,9.45-14.93,14.76-24.5,19.71-61.91,28.86-61.73,123.78-9.35,161.76,3.26,2.83,5.74,9.4,3.73,13.33-.51,1-1.87,1.89-3.02,2.19-12.14,3.19-19.15,11.27-22.18,23.13,.56,9.99,1,18.33-11.79,20.14-6.61,.37-13.32,.61-19.77,1.93-36.51,9.7-19.61,62.24,3.57,78.52,17.93,16.64,45.75,7.76,49.98-16.63q2.3-9.31,9.71-3.22c23.96,19.35,39.46,44.79,50.45,73.18,3.72,5.49,5.76-2.45,11.67,6.91,32.97,40.81,76.1,64.39,127.01,74.38,12,2.35,24.37,2.98,36.6,4.06,7.29,.03,4.62,7.65,5.83,12.44,10.65,.48,21.11-1.83,31.62-3.23,7.11-1.09,7.11-1.15,6.98-8.07-.15-7.66-.13-7.6,7.12-10.11,22.86-7.92,42.55-20.48,57.51-39.77,2.39-3.09,5.03-4.28,8.89-4.29,48.37-1.02,47.6-67.24,33.38-100.41-8.2-22.81-32.32-9.73-25.95-24.23Zm-114.25-128.5c8.78-100.51,134.1-98.36,135.81,4.62-3.66,112.55-141.37,107.87-135.81-4.62Zm143.3,6.05l-2.01-.03c2.96-92.21-107.49-120-140.71-32.51-21.66,59.98,18.94,137.43,89.72,115.81-36.69,26.97-89.65-1.17-102.74-43.45-5.23-15.55-5.11-30.91-1.68-46.62,.62-2.88,1.1-6.19,.31-8.92-4.15-14.49,1.29-27.02,8.11-38.92,46.68-79.98,162.22-33.94,149,54.64Zm-106.8-102.27c-8.89-26.5-21.94-50.57-36.63-74.29,11.31-.39,21.87-.83,32.43-1.01,19.21,19.09,30.09,49.23,37.46,75.2-9.51,1.58-20,1-29.19,3.66-1.18,.34-3.43-2.01-4.07-3.56Zm-4.74-94.1c35,15,67,69,73,103-6.73-3.26-15-6-29-9,0,0-1.87-4.47-2.07-5.98-9.16-31.29-22.93-60.02-44.77-85.61,.24-.37,2.6-2.04,2.84-2.41Zm-100.73-40.17c31.55,4.12,63.21,8.31,94.36,14.72,3.53,.67,4.97,2.85,5.26,6.26,.72,8.24,.09,9.09-8.2,9.3-11.82,.28-23.65,.32-35.47,.72-4.14,.14-6.46-1.15-6.25-5.48,.26-5.32-2.79-7.66-7.39-9.14-14.19-4.91-28.88-8.83-42.73-14.53,.14-.61,.28-1.23,.42-1.85Zm101.43,141.1c-5.82,2.94-11.85,6-18.41,9.31-20.13-64.98-68.39-133.83-143.3-133.14,79.74-40.38,143.98,56.89,161.71,123.83Zm-224.77-73.01c3.97-5.37,8.99-7.37,15.09-8.04-.02,.45-.03,.9-.05,1.34,2.17,1.13,4.25,2.97,6.52,3.26,18.63,2.45,36.43,7.25,52.67,17.06,12.72,7.78,26.8,13.44,36.07,25.67,4.51,5.68,11.25,.49,13.63-4.35,2.01-3.39,.96-6.32-1.81-8.91-27.16-24.33-77.18-53.03-113.38-36.68-.34-.6-.68-1.21-1.02-1.81,76.24-83.84,172.49,12.37,192.34,94.99,.51,1.7,.36,4.62-.73,5.61-13.32,12.07-23.2,26.45-29.85,43.67-13.34-11.56-35.74-14.66-51.04-5.39-39.46,26.68-9.42,89.99,37.51,79.53,4.76,31.93,13.84,61.96,41.94,82.73-79.51-4.12-157.73-24.35-230.34-56.83-3.7-1.74-7.15-3.55-4.17-7.94,90.57,39.03,140.7-48.95,121.38-129.3-11-50.55-56.19-70.9-104.5-71.14,7.07-8.31,13.87-15.55,19.74-23.47Zm23.47-9.44c8.66-6.57,42.43,6.07,52.74,11.27-1.03,1.58-1.94,2.99-2.25,3.46-16.97-4.95-33.27-9.7-50.49-14.73Zm56.04,17.67c.74-.85,1.76-2.02,2.81-3.23,6.35,2.61,43.82,22.65,34.56,29.55-12.71-8.95-24.85-17.5-37.37-26.32Zm83.11,124.96c29.46,19.94-3.53,74.46-27.22,39.88-13.09-24.37,3.44-54.49,27.22-39.88Zm-30.41,50.64c-33.4,2.86-28.79-59.57,6.11-56.33-19.33,12.37-21.06,39.81-6.11,56.33Zm-83.76-11.55c-2.1-3.06-1.4-5.67-.49-8.8,15.35-47.73,3.04-99.87-38.47-130.23,36.19,2.57,63.55,32.11,69.42,66.82,7.33,35.96-.23,93.55-44.7,98.33,2.72-5.97,5.22-11.73,8.03-17.33,2.19-4.59,10.67-2.07,6.21-8.79Zm-118.39-104.52c-11.47,20.12-12.13,41.35-11.48,64.1-23.98-53.12,39.92-135.41,94.5-88.67,39.92,33.65,43.75,97.7,12.33,138.32-8.93,11.78-21.33,20.52-36.88,20.36,45.2-19.03,55.36-78.48,38.26-120.22-14.12-42.44-73.23-57.22-96.73-13.89Zm63.68-3.31c-27.22,36.07-32.81,73.03-6.33,112.68-64,15.2-59.64-133.07,6.33-112.68Zm-54.33,154.93c55.2,54.68,282.89,99.16,353.12,61.26,7.67,10.73-12.06,14.5-19.28,17.47-86.28,22.01-208.41-2.49-288.34-39.52-9.86-7.02-64.77-22.55-45.5-39.21Zm359.2,106.23c-3.04,.65-4.47,.96-6.52,1.4-1.31-4.59-2.6-9.12-3.88-13.64,.68-.34,1.37-.67,2.06-1.01,2.63,4.18,5.26,8.37,8.34,13.25Zm-266.89-36.92c54.75,11.64,37.96,71.04,85.31,95.29,2.78,1.65,3.53,3.56,2.07,6.06-2.55,4.13-5.82,10.85-11.65,7.97-17.51-10.69-33.48-23.35-43.59-41.54-11.49-28.96-8.63-41.9-32.14-67.78Zm47.7,32.42c.38-.74,.75-1.49,1.12-2.24,58.63,15.04,120.15,26.06,180.08,11.75,.27,.67,.54,1.35,.81,2.02-50.64,19.49-109.5,9.36-161.23-3.1-7.43-1.98-15.39-2.15-20.78-8.43Zm1.24-13.42c.12-.26,.24-.53,.36-.8,59.48,8.31,119.58,21.65,179.63,10.08,.16,.51,.32,1.02,.49,1.53-58.76,14.87-122.61,4.25-180.48-10.81Zm177.25,87.77c-5.47,4.82-6.95,4.43-10.15-2-1.39-2.29-3.57-5.86-1.48-8.16,24.4-16.96,19.53-46.28,31.51-70.31,19.3,26.22,2.33,61.92-19.88,80.47Zm-242.84-24.38c-2.61,0-9.89-17-21.85-35.21l-4.48-6.54c-5.42-7.58-11.64-15.03-18.67-21.25-9.83-8.7-18.82-15.65-26.93-21.22-1.75-1.22-3.46-2.35-5.12-3.44-32.66-21.14-49.5-19.23-47.95-22.34,2-4,32.75-3.2,36-7,6-7,30.32-1.41,68,28,16.93,13.21,28.57,28.13,36.41,41.09,1.67,2.36,3.09,4.97,4.36,7.71,7.71,14.6,10.23,25.2,10.23,25.2,0,0-26,15-30,15Zm150.36,81.63c-52.71-7.63-102.35-29.28-134.89-73.12,4.19-3.18,7.87-5.53,10.98-8.48,3.42-3.24,5.58-2.07,8.08,1,31.8,39.02,76.08,59.32,124.94,67.26-2.8,4.85-2.13,13.79-9.11,13.34Zm-78.71-116.77c57.12,16.17,114.68,27.75,174.27,8.35-2.9,47.83-173,35-174.27-8.35Zm132.24,129.09c-1.18,6.9-9.25,3.08-14.09,4.47-6.98,1.97-4.14-16.21-6.86-20.64-1.86-6.67-4.75-13.04-7.55-20.49,6.5,.69,15.62-3.46,20.28,2.04,7.08,10.49,10.3,22.39,8.22,34.62Zm6.12-17.88c-1.76-4.63-3.34-8.79-5.13-13.51,53.94-19.62,75.35-41.5,73.8-100.06,4.3-1.48,6.12,.19,7.21,3.59,18.63,51.8-31.06,94.98-75.88,109.98Zm108.47-76.04c-1.52,4.04-19.48,2.97-19.28-.13,.2-3.1,2.8-7.9-1.2-28.9-3.88-20.34-11.34-35.08-11.81-35.99-.01-.03-.02-.04-.02-.04,0,0,.01,0,.04-.01,.64-.14,8.95-1.87,12.99,.4,4.2,2.37,9.65,5.66,13.8,19.64,5.22,17.62,7,41,5.48,45.03Z"/>
      <path class="cls-1" d="M1174.79,299.97c-7.01-.03-12.63,5.53-12.68,12.57-.05,7,5.84,13.01,12.85,13.1,7.07,.1,11.91-5.16,11.97-12.99,.05-7.86-4.54-12.65-12.14-12.68Zm-.5,17.05c-3.19-.11-5.73-2.89-5.74-7.3,.17-2.91,2.2-5.18,6.15-5.33,3.9-.15,5.74,2.44,6.21,5.85,.44,3.18-3.43,6.89-6.62,6.78Z"/>
      <path class="cls-1" d="M1391.9,192.85c-20.06-31.11-63.23-35.25-90.11-8.56-16.19,16.09-21.5,36.6-21.75,58.77-.26,14.49,3.23,28.02,9.96,40.77,20.43,38.67,69.71,43.1,96.55,8.81,10.43-13.32,15.48-28.52,16.79-45.1,1.54-19.32-.71-38.06-11.44-54.69Zm-45.64,83.97c-19.34,0-35.03-16.88-35.03-37.7,0-6.77,1.66-13.12,4.56-18.61-5.18-1.08-9.09-5.98-9.09-11.87,0-6.68,5.03-12.1,11.24-12.1,5.47,0,10.03,4.21,11.03,9.78,5.11-3.12,11.01-4.9,17.29-4.9,19.34,0,35.03,16.88,35.03,37.7s-15.69,37.7-35.03,37.7Z"/>
      <circle class="cls-1" cx="1140.57" cy="248.42" r="5.91"/>
      <circle class="cls-1" cx="1150.27" cy="200.64" r="7.21"/>
      <circle class="cls-1" cx="1135.57" cy="140.78" r="6.91"/>
      <circle class="cls-1" cx="1264.85" cy="29.64" r="4.12"/>
      <circle class="cls-1" cx="1298.85" cy="29.64" r="3.72"/>
      <path class="cls-1" d="M1220.48,223.42c1.56,9.37,5.24,19.01,13.66,24,2.64,1.53,5.73,2.32,9.19,1.93-1.43,1-3.2,1.55-5.02,1.71-13.43,.51-21.72-16.19-17.83-27.64h0Z"/>
    </g>
    <circle class="cls-1" cx="1023.98" cy="341.4" r="7"/>
    <circle class="cls-1" cx="1061.54" cy="366.04" r="7.35"/>
    <circle class="cls-1" cx="1098.02" cy="408.6" r="8.52"/>
  </g>
  <g>
    <path class="cls-1" d="M905.49,304.75c-1.73,0-2.94,.86-3.34,1.66l-.13,.22c-23.87,35.26-63.1,74.54-81.22,74.54-8.7,0-8.7-7.66-8.7-12.24,0-22.06,18.11-67.78,36.06-103.31,.17-.35,.18-.76,.18-1.47,0-2.89-1.65-6.9-5.26-8.88-11.34-5.84-19.38-8.81-23.86-8.81-1.35,0-1.66,.22-1.67,.23l-.09,.26c-10.01,19.57-20.8,40.65-28.09,60.6,0,.01-.01,.01-.01,.01-.81,2.23-1.58,4.44-2.3,6.63-.63,1.93-1.23,3.85-1.78,5.75,0,.01-.01,.01-.01,.01-1.01,1.35-2.08,2.76-3.21,4.23-.96,1.25-1.96,2.55-2.99,3.87h-.01c-18.5,23.67-48.78,57.85-69.33,57.85-3.7,0-3.97-5.63-3.97-14.21,0-26.35,28.78-100.23,48.24-141.86l.52-1.11,3.93-.15c8.69-.35,16.89-.68,23.36-.68,8.49,0,13.9,.44,16.1,1.32l.38,.15,.29,.29c2.99,2.99,6.87,5.33,8.83,5.33,.8,0,1.15-1.83,1.15-3.13,0-3.32-2.06-7.95-5.01-11.27-8.75-10.27-20.44-11.59-36.02-12.33l-3.01-.14,1.31-2.72c18.45-38.45,34.39-71.67,52.82-101.33,.15-.33,.15-.74,.15-1.4,0-2.9-1.64-6.91-5.26-8.88-7.28-3.64-14.66-5.66-20.7-5.66-4.58,0-7.03,1.37-7.4,1.87-21.21,35.08-41.29,75.61-61.7,117.53l-.55,1.13h-1.25c-20.34,0-33.77-.96-39.93-2.83-1.43-.37-2.79-.92-4.1-1.45-1.5-.61-3.04-1.24-4.03-1.24-.63,0-1.94,0-1.94,4.7,0,3.15,.86,6.05,2.3,7.78,10.58,12.03,14.78,12.27,34.98,13.38l4.35,.24-1.24,2.68c-8.43,18.2-19,44.51-27.52,69.04-.52,1.48-1.02,2.95-1.52,4.41-.77,2.25-1.51,4.48-2.23,6.68h-.01c-1.24,1.76-2.5,3.52-3.78,5.29,0,0,0,.01,0,.01-1.17,1.62-2.36,3.24-3.56,4.86t0,.01c-24.26,32.75-53.8,65.73-70.79,68.39l-1.89,.3-.38-1.88c-.38-1.89-.82-4.85-.82-8.27,0-33.24,18.89-82.25,29.04-108.58,.93-2.42,1.8-4.67,2.58-6.72-.01-.3-.39-1.39-2.03-3.13-4.88-5.17-15.35-10.74-26.81-10.74-3.19,0-4.16,.45-4.4,.6l-.06,.14c-.05,.12-5.16,12.36-10.98,29.04l-.04,.09c-5.66,13.9-11.1,25.57-16.64,35.66-16.67,31.53-42.55,65.24-65.17,65.24-2.03,0-4.32,0-6.65-.93l-.71-.28-.34-.68c-1.52-3.06-2.18-7.33-2.18-14.29,0-28.45,15.79-78.2,36.17-100,.24-.56,.47-1.31,.47-2.02,0-11.08-23.92-18.08-29.91-18.08-1.78,0-2.76,.24-3.11,.38l-.16,.17c-12.74,13.46-24.24,36.38-31.09,59.69-.62,2.09-1.19,4.18-1.73,6.27-.45,1.76-.87,3.51-1.26,5.26-.92,1.3-1.9,2.65-2.93,4.05-.87,1.19-1.78,2.41-2.73,3.66-18.72,24.84-50.32,60.35-71.21,60.35-2.79,0-2.79-3.58-2.79-5.94,0-17.07,10.97-48.92,21.84-72.91,3.81-8.65,8.22-16.65,12.12-23.71,4.53-8.2,8.45-15.29,8.57-18.63-1.39-2.95-20.51-15.49-29.5-15.49-2.14,0-3.35,.89-3.73,1.65l-.05,.1-1.14,1.97c-1.08,1.88-2.2,3.82-3.96,7.05l-1.1,2.02-1.85-1.37c-7.19-5.33-26.24-17.73-47.65-17.73-32.02,0-68.85,35.26-85.82,69.97-1.34,2.72-2.54,5.44-3.62,8.14h0c-.81,2.03-1.54,4.04-2.18,6.03h-.01c-1.07,1.38-2.18,2.79-3.32,4.22-.95,1.19-1.92,2.4-2.91,3.63-19.75,24.4-47.55,54.54-64.42,54.54-2.29,0-3.18-.89-3.18-3.18,0-5.33,4.37-15.56,9.91-28.51,8.62-20.17,20.42-47.8,20.42-69.17,0-8.72-1.81-15.42-5.52-20.49-12.61-17.33-31.64-29.9-45.26-29.9-19.67,0-59.11,32.92-77.62,55.59l-9.75,11.93,6.38-14.02c.93-2.05,1.81-4,2.64-5.85,6.39-14.11,10.24-22.63,14.6-27.71l.1-.12c.46-.46,.6-.76,.6-1.34,0-2.06-2.03-5.53-4.93-8.43l-.08-.09c-2.33-2.62-13.96-4.45-22.93-4.45-3.82,0-5.22,.38-5.6,.51C38.62,264.78,2.51,372.2,0,380.56c.42,2.18,7.22,8.26,22.29,13.66,1.79,.72,3.53,1.07,5.23,1.07,2.6,0,5.04-.93,5.92-1.65,5.12-8.43,84.08-137.39,123.67-137.39,8.04,0,13.03,1.78,13.03,10.66s-6.1,24.48-13.17,42.05c-8.04,19.99-17.16,42.65-17.16,58,0,22.44,25.8,30.96,38.2,35.06l1.4,.46c2.41,.69,5.01,1.08,7.24,1.08,18.08,0,36.97-19.46,54.41-42.72,.52-.69,1.04-1.39,1.54-2.09,.54-.71,1.07-1.43,1.59-2.15,.16,.89,.35,1.75,.57,2.59,.2,.83,.44,1.64,.7,2.42,8.72,27.01,42.69,28.56,50.3,28.56,18.61,0,36.59-17.47,53.25-36.35l4.62-5.24-1.15,6.89c-.76,4.57-1.55,9.29-1.55,13.85,0,19.94,27.2,28.4,38.96,31.13,2.24,.37,4.53,.75,6.31,.75,21.95,0,44.36-24.11,61.26-47.51,.63-.87,1.24-1.74,1.85-2.6,.65-.92,1.29-1.84,1.92-2.75,.02,1.2,.05,2.34,.11,3.43,.06,1.1,.14,2.16,.24,3.17,.25,2.48,.63,4.72,1.15,6.81,1.45,7.22,21.39,26.82,34.69,32.52,5.68,2.27,10.98,3.38,16.15,3.38,20.95,0,38.33-16.92,49.23-31.12l3.59-4.67v5.89c0,17.12,8.9,28.11,30.72,37.96,3.17,1.41,6.8,2.18,10.21,2.18,19.86,0,40.4-22.98,58.26-48.09,.73-1.01,1.44-2.03,2.15-3.05,.81-1.15,1.61-2.31,2.4-3.46-.21,1.51-.37,2.9-.46,4.18-.06,.86-.09,1.66-.09,2.4,0,.39,.01,.78,.02,1.17,.78,19.24,20.6,40.16,48.79,40.16,21.61,0,40.72-19.77,58.83-44.51,.57-.79,1.15-1.59,1.72-2.39,.61-.83,1.21-1.67,1.81-2.51,.06,1.06,.14,2.08,.26,3.06,.11,.98,.25,1.93,.42,2.85,.2,1.1,.44,2.17,.73,3.22l.02,.11c1.24,5.78,3.13,12.39,9.92,17.75,13.46,10.91,23.28,14.81,29.15,16.17l.1,.02c2.46,.7,5.41,1.11,8.11,1.11,28.15,0,53.85-38.23,76.52-71.96,1.8-2.67,3.58-5.32,5.33-7.91,.84-1.26,1.24-2.41,1.24-3.61,0-2.98-3.95-7.85-7.06-7.85Zm-522.53-33.69c-20.86,36.04-68.33,104.2-98.63,104.2-1.64,0-3.35,0-5.51-.43l-1.61-.32v-1.64c0-.28-.11-.97-.23-1.63-.23-1.41-.56-3.34-.56-5.46,0-35.35,55.37-100.08,94.17-100.08,4.67,0,8.58,.88,11.63,2.63l1.75,.99-1.01,1.74Z"/>
    <path class="cls-1" d="M900.23,165.53c-2.97-4.83-23.35-15.97-26.65-15.97-4.07,0-11.1,6.3-17.5,15.67-6.58,9.64-10.83,19.86-10.83,26.05,0,2.79,4.43,9.7,16.31,16.38,4.45,2.22,8.89,3.68,11.23,3.68,1.36,0,1.67-.22,1.68-.23,4.09-10.96,19.46-37.95,24.67-39.11l.19-.03c2.58-.32,2.58-1.43,2.58-1.96,0-1.06-.61-2.7-1.68-4.48Z"/>
  </g>
</svg>